<?xml version="1.0" encoding="UTF-8"?><svg id="Layer_2" xmlns="http://www.w3.org/2000/svg" viewBox="0 0 401 402"><defs><style>.cls-1{fill:#fff;}</style></defs><g id="Layer_1-2"><g><path class="cls-1" d="M401,402H0V0H401V402Zm-143.39-44.26c10.2,2.79,19.77,4.99,29.05,8.06,10.89,3.61,20.83,2.4,29.61-4.78,11.85-9.68,23.54-19.6,34.89-29.86,4.77-4.31,8.96-9.45,12.64-14.75,5.36-7.71,3.93-13.45-4.2-18.34-3.52-2.12-7.49-3.53-11.32-5.1-2.25-.92-4.65-1.5-7.04-2.26,65.81-107.61-2.35-236.19-113.95-252.97,.58,.96,1.76,1.32,2.55,2.08,9.94,9.56,8.61,22.07-3.49,28.44-14.23,7.49-29.5,9.31-45.07,5.3-11.76-3.03-13.75-10.91-5.25-19.3,8.33-8.22,18.55-13.41,29.44-17.38,1.09-.4,2.15-.88,4.25-1.75C103.58,29.77,22.4,121.43,35.29,221c3.08-3.55,6.14-2.11,8.86,.04,3.13,2.47,6.27,5.04,8.9,8.02,19.07,21.65,43.04,36.45,68.19,49.81,24.71,13.12,50.8,16.94,78.34,13.85,38.78-4.35,77.69-6.14,116.71-4.66,7.89,.3,15.74,1.63,24.66,2.59-21.41,31.53-48.38,54-83.33,67.1Zm-83.36,8.96c-77.11-17.37-123.68-64.42-139.52-142.91-.31,2.31-.74,3.89-.7,5.46,.34,16.33,.23,32.7,1.36,48.97,.7,10.22,2.07,20.71,5.25,30.38,10.49,31.89,34.83,48.66,66.04,56.17,22.26,5.36,45.05,3.28,67.58,1.92Zm79.55-8.08c-24.8-3.06-48.54,3.76-72.6,7.72,24.83,3.48,48.97,.54,72.6-7.72Z"/><path d="M257.61,357.74c34.95-13.1,61.92-35.57,83.33-67.1-8.92-.97-16.77-2.29-24.66-2.59-39.01-1.48-77.93,.31-116.71,4.66-27.53,3.09-53.63-.73-78.34-13.85-25.15-13.36-49.13-28.15-68.19-49.81-2.62-2.98-5.77-5.55-8.9-8.02-2.72-2.15-5.78-3.59-8.86-.04C22.4,121.43,103.58,29.77,209.71,35.14c-2.1,.87-3.16,1.35-4.25,1.75-10.89,3.97-21.11,9.17-29.44,17.38-8.5,8.38-6.5,16.27,5.25,19.3,15.57,4.01,30.84,2.19,45.07-5.3,12.1-6.37,13.43-18.88,3.49-28.44-.79-.76-1.97-1.11-2.55-2.08,111.59,16.79,179.76,145.37,113.95,252.97,2.4,.76,4.79,1.34,7.04,2.26,3.83,1.56,7.8,2.98,11.32,5.1,8.12,4.89,9.56,10.62,4.2,18.34-3.68,5.3-7.87,10.44-12.64,14.75-11.36,10.26-23.04,20.17-34.89,29.86-8.79,7.18-18.72,8.39-29.61,4.78-9.28-3.07-18.85-5.27-29.05-8.06Z"/><path d="M174.24,366.7c-22.53,1.36-45.32,3.44-67.58-1.92-31.21-7.51-55.55-24.28-66.04-56.17-3.18-9.67-4.54-20.17-5.25-30.38-1.12-16.28-1.01-32.64-1.36-48.97-.03-1.57,.39-3.16,.7-5.46,15.84,78.49,62.41,125.54,139.52,142.91Z"/><path d="M253.8,358.62c-23.63,8.26-47.77,11.2-72.6,7.72,24.06-3.97,47.79-10.78,72.6-7.72Z"/></g></g></svg>