<?xml version="1.0" encoding="UTF-8"?><svg id="Layer_2" xmlns="http://www.w3.org/2000/svg" viewBox="0 0 574.02 1020.49"><defs><style>.cls-1{fill:#fff;}</style></defs><g id="Layer_1-2"><g><path class="cls-1" d="M.05,652.33c0-41.08,0-82.15,0-123.23,4.74-8.42,10.12-16.36,17.21-23.02,7.73-7.27,15.04-14.74,19.84-24.53,4.5-9.17,8.96-18.15,9.67-28.58,.65-9.7,1.35-19.39,1.12-29.12-.27-10.95,.48-21.81,4.96-31.93,3.25-7.35,5.23-14.76,4.35-22.82-.32-2.88-.31-5.84-1.46-8.55-.48-1.12-1.33-2.58-3.02-1.67-1.5,.8-1.32,2.12-.66,3.45,.71,1.43,1.37,2.87,1.57,4.48,.14,1.1,.11,2.3-.99,2.77-1.13,.48-2.06-.37-2.68-1.25-2.32-3.29-5.41-5.42-9.16-6.85-3.62-1.37-4.57-5.09-2.2-8.18,1.54-2,2.17-4.2,2.1-6.67-.15-4.97,.5-9.83,1.56-14.7,1.11-5.11,3.37-8.87,8.92-9.81,.37-.06,.89-.08,1.1-.87-2.17-.48-4.07-1.49-5.29-3.45-1.74-2.8-3-5.75-3.51-9.07-.64-4.18-.86-8.42-1.91-12.54-1.99-7.81-7.33-13.38-12.6-19-3.64-3.89-8.09-6.5-13.07-8.3-5.3-1.92-10.56-3.94-15.84-5.92v-43.56c.97,.07,1.94,.2,2.91,.2,9.86-.03,19.57,1.15,29.02,4.03,9.36,2.86,17.89,7.28,24.03,15.14,4.89,6.26,9.12,12.99,12.24,20.38,3.98,9.42,7.02,19.01,7.61,29.33,.36,6.34,1.68,12.59,3.39,18.72,.45,1.63,1.4,2.67,3.68,2.64-2.62,1.41-4.6,2.76-5.61,5.05-3.34,7.57-4.15,15.28-1.2,23.2,1.42,3.82,2.99,7.58,4.94,11.13,5.59,10.2,6.26,20.93,4.03,32.12-1.6,8.03-4.79,15.75-4.65,24.13,.09,5.17-.83,10.45,2.1,15.21,.51,.83,.33,1.69,.12,2.57-2.1,8.82-1.4,17.56,.94,26.2,1.09,4.02,1.33,8.08,.45,12.05-2.13,9.71-6.02,18.81-10.38,27.72-5.36,10.95-11.96,21.28-16.69,32.55-5.09,12.15-10.57,24.09-17.07,35.56-1.33,2.34-2.5,4.76-3.75,7.14,4.31-4.77,6.67-10.82,10.53-15.99,.66,.82,.19,1.27,0,1.71-2.62,6.09-5.15,12.22-7.94,18.23-1.26,2.71-1.62,5.73-3.36,8.27-2.27,3.3-4.07,6.8-5.06,10.79-1.32,5.3,1.42,11.99,6.31,13.7,1.82,.64,3.78,.88,5.5,1.82,8.9,4.87,18.15,9.04,27.38,13.2,14.96,6.74,30.33,12.45,45.94,17.47,10,3.22,20.02,6.35,29.33,11.25,10.83,5.7,17.99,14.18,19.37,26.83,.53,4.82,1.47,9.61,2.93,14.24,2.48,7.87,3.81,15.98,4.95,24.11,1.06,7.57,.06,15.19,.21,22.78,.32,17.42-2.7,34.43-6.2,51.38-1.06,5.16-2.26,10.32-2.51,15.58-.09,1.93-1.11,4.63,1.01,5.85,1.45,.83,3.11,1.88,5.03,1.91,.72,.01,1.41,.2,1.96-.42,2.14-2.44,5.25-3.66,7.42-6.1,3.62-4.07,7.17-8.19,10.41-12.57,3.29-4.45,6.61-8.88,9.88-13.34,2.65-3.61,5.26-7.26,7.87-10.9,.86-1.2,2.1-2.04,3.38-1.2,1.76,1.16,3.25,.67,4.66-.24,5.32-3.42,11.54-4.47,17.37-6.46,2-.68,4.11-2.21,6.53-1.3,.02-.11,.05-.17,.09-.18,1.59-.89,3.19-1.9,4.81-2.57,.9-.37,2.16-2.82,3.67-.49,.29,.45,.9,.11,.92-.4,.04-1,.49-1.21,1.05-.49,.83,1.05,1.73,.73,2.78,.65,1.19-.09,3.09-.38,3.51,.02,2.21,2.14,2.17-.3,2.48-1.18,.36-1,1.22-1.18,1.83-1.74,1.62,2.21,2.38-.58,3.6-.6,1.55-.02,2.93-1.39,4.28-1.06,2.8,.68,4.01-.6,4.58-2.93,.62,.33,1.07,.59,1.53,.83,1.02,.52,1.87,1.4,3.19,.28,1.32-1.11,2.47-.85,2.79,1.13,.38,2.38,2.5,3.36,4,4.85,2.2,2.18,5.38,.18,7.67,1.86,.3-.86,.93-1.27,1.3-.25,.29,.79-.64,1.13-1.41,1.13-.61,0-1.1,.12-1.09,.82,0,.59,.64,.48,.97,.72,.83,.6,1.52,.8,2.5,.12,1.58-1.1,3.41-1.58,5.33-1.06,.93,.25,1.26-.42,1.75-.87,1.27-1.16,1.7-.47,1.83,1.22,.76-1.4,1.5-2.1,3.02-1.98,2.65,.22,5.36,.2,7.76-1.42-.41-.52-1.87-.51-1.08-1.59,.28-.39,1.16-1.23,1.95-.33,.52,.59,.87,.5,1.15-.17,.59-1.38,1.19-2.56,2.68-.7,.27,.34,.95,.13,1.14-.29,.91-2.03,1.65-.34,2.68,.22-.37-1.55-.27-2.29,1.66-2.09,1.86,.19,3.75-.67,4.94-2.35,.24-.33,.23-.89,.77-.87,2.15,.08,3.63-1.48,5.28-2.38,5.38-2.95,10.49-6.39,16.34-8.46,3.94-1.39,7.79-3,12.05-4.66-.92,2.03-2.74,2.1-4,2.86-2.48,1.5-2.91,4.3-4.44,6.38-.25,.34,.71,1.68,1.27,2.44,.41,.56,.06,1.01,.07,1.5,.02,3.86,3.84,7.99,7.74,8.15,1.43,.06,2.17,.58,2.92,1.75,1.14,1.77,2.53,3.39,3.92,4.97,1,1.15,2.68,.95,3.85,.89,1.05-.06,.65-1.86,.47-2.76-.64-3.22,.91-6.08,1.31-9.11,1.33-10.21,5.58-19.21,11.57-27.48,.6-.83,1.13-1.61,2.33-1.25l-.07-.05c-.45,.64-.9,1.28-1.37,1.92-4.14,5.66-7.7,11.55-8.18,18.81-.2,3.02,.63,5.94,1.26,8.79,.66,2.98,2.79,5.41,5.89,6.65,.88,.35,1.56,1.07,2.29,1.7,2.68,2.32,5.74,4.34,9.32,4.32,3.2-.02,6.44,.35,9.5,.67,2.83,.3,5.68,1.53,8.76,1.88,2.29,.26,2.6-.38,2.83-2.06,.32,.28,.61,.64,.98,.83,.64,.31,1.28,1.24,2.04,.46,.91-.93-.52-.96-.71-1.48-.26-.72,.73-.61,.79-1.13,.91-.31,1.08-2.57,2.69-1.01-.1,.56-.6,1.26,.17,1.6,.59,.26,1.13-.19,1.57-.67,.56-.61,.22-1.4-.12-1.63-.74-.5-1.03,.68-1.7,.78,.07-1.04-.66-1.52-1.37-2.07-.79-.61-1.49-1.2-2.32-.11-.18-3.27-2.17-1.1-3.43-1.14l.1,.04c-1.48-.48-2.77-1.97-4.6-.59-.34,.25-1.86-.29-2.08-.79-.81-1.84-3.88-1.42-3.86-4.01,0-.24-.76-.77-1.03-.7-1.36,.39-1.56-.56-1.9-1.42-.19-.48-.26-1.14-.87-1.23-3.4-.46-3.91-3.66-5.27-5.85-2.06-3.33-3.03-6.99-3.14-11.11-.12-4.47,.46-8.64,2.64-12.35,2.4-4.08,5.43-7.8,8.23-11.64,2.29-3.15,4.3-6.45,5.56-10.15,1.97-5.82,.52-10.51-4.32-12.93-3.13-1.57-6.59-1.6-10.11-1.27-4.37,.41-8.66,1.36-13.09,1.43-5.4,.09-10.78-.08-16.17-.35-3.41-.17-7.95-4.24-8.44-7.64-.54-3.77-.72-7.56-.89-11.36-.22-4.7,1.36-9.11,2.08-13.65,.49-3.08,2.29-5.7,2.9-8.85,.59-3.12,1.5-6.2,1.91-9.42,.45-3.49,1.99-6.91-.26-10.34-.75-1.15-1.03-2.54-.6-3.91,.23-.74-.17-1.14-.46-1.68-3.42-6.31-8.9-10.64-14.4-14.94-2.87-2.25-5.81-4.54-8.4-7.01-3.72-3.55-7.59-6.9-11.64-10.02-4.81-3.7-10.13-6.76-14.91-10.5-7.59-5.94-16.37-8.96-25.54-10.97-6.27-1.37-12.68-2.05-19.12-2.36-1.41-.07-2.8-.57-4.21-.7-3.35-.3-6.66-1.13-9.98-1.24-4.75-.15-8.49-2.41-12.34-4.63-.55-.31-.82-1.11-.82-1.88,0-.42-.2-.84-.3-1.26-2.8,.81-3.1-2.08-4.37-3.26-1.89-1.75-4.91-2.81-5.1-5.98-.14-2.3-1.6-2.54-3.27-2.49-.52-.8,1.18-1.64-.35-2.5-2.7-1.52-5.28-3.14-8.21-4.34-2.22-.91-5.34-1.19-6.5-4.12-.21-.54-.66-1.09-1.14-1.42-2.64-1.83-5.19-3.6-6.95-6.51-2.9-4.79-3.64-9.88-2.71-15.17,.86-4.91,2.5-9.66,3.73-14.5,2.18-8.61,4.21-17.23,5.55-26.01,.57-3.73,1.53-7.38,2.28-11.07,1.02-5.04,2.16-10.04,2.46-15.18,.2-3.47-.21-6.97,.8-10.38,.23-.76,.25-1.56-.54-2.13-1.13,3.02-2.84,3.73-5.7,2.02-3.21-1.91-5.57-4.94-6.81-8.25-2.6-6.97-3.39-14.39-3.01-21.8,.32-6.16,.19-12.36,1.29-18.47,.59-3.28,.42-6.78,1.54-9.85,1.61-4.43,1.08-8.96,1.33-13.39,.38-6.74-.14-13.47,1.3-20.23,1.31-6.11,2.11-12.34,4.12-18.29,1.95-5.75,3.8-11.56,6.11-17.17,2.32-5.61,4.9-11.14,8.03-16.37,1.97-3.29,2.75-7.23,5.67-10.03,1.13-1.08,3.46-2.19,1.06-4.29-.08-.07,0-.34,.04-.5,.66-3.09,1.01-6.03,.05-9.29-.76-2.59,.05-5.65-3.09-7.21-.1-.05,0-.46-.02-.7-.49-3.98-3.03-7.01-4.85-10.37-.78-1.44-3.38-2.1-3.13-3.11,.53-2.16-1.1-2.62-1.88-3.73-2.64-3.77-5.79-7.04-9.18-10.18-1.12-1.03-3.29-1.38-3.34-3.35-.05-1.86-1.57-2.33-2.62-2.41-1.23-.09-1.78-.91-2.66-1.27-2.67-1.09-3.75-5.77-7.88-3.55-.08,.04-.35-.11-.41-.22-1.07-2.37-3.02-2.68-5.29-1.99-.02-1,1.53-2.06,.73-1.97-2.08,.23-3.53-1.45-5.34-1.28-2.67,.24-5.31,.89-6.44-2.61-.2-.62-.78,.07-1.03,0-1.86-.49-4.21-.32-4.55-3.1-.12-.97-1.01-1.62-1.75-1.72-1.51-.2-2.46-2.15-4.3-1.27-.3,.14-.96-.28-1.18-.88-.7-1.93-2.57-2.63-4.01-3.81-1.55-1.27-3.9-1.72-4.22-4.35-.17-1.39-1.14-2-2.37-.67-.43,.46-.82,.95-1.52,.33-.65-.58-.23-1.11,0-1.66,.15-.38,.75-.51,.63-1.06-.94-.52-1.76,.5-2.68,.18,1.08-2.98-1.86-2.27-2.97-2.95-2.16-1.34-4.11-3.34-6.99-3.19-.56,.03-1.71-.03-1.29-.81,.66-1.22-.21-1.09-.77-1.38-1.37-.68-2.77-1.25-4.42-1.11,.65-.29,1.54-.88,1.1-1.23-.54-.44-1.07-1.39-2.05-1.13-.46,.12-1,.73-1.35,.06-.82-1.57-2.73-1.88-3.67-3.3-.23-.34-.5-1.09-1.11-.25-.77,1.06-2.05,.51-2.43,.03-1.63-2.08-4.08-1.49-6.12-2.15-.37-.12-.92,.07-1.19-.31-1.8-2.55-4.68-.84-6.96-1.78-2.17-.89-4.7-.25-7.08-.81-3.55-.83-7.05-1.77-10.88-1.08-4.76,.86-9.63,1.39-14.47,1.51-8.8,.21-17.61-.07-26.42,0-7.22,.06-14.43-.51-21.66,.06-6.49,.51-12.98,.42-19.44-.42-3.98-.52-7.9-1.63-11.98-1.13v-36.65l3.22-.8c.43-.55,1.3-.77,1.25-1.68-.41-.51-.53-1.01-.3-1.7,1.33-4.04,4.64-4.76,8.54-4.92-1.06-.94-2.17-1.91-3.11-1.53-3.11,1.25-6.63,.96-9.59,2.65v-3.72c2.05-1.42,4.69-1.14,7.12-2.86-.66,1.69-.32,2.63,.99,2.88,.93,.18,1.65-.27,2.14-1.17,.23-.42-.69-1.45,.58-1.26,.64,.09,.89,.54,.91,1.34,.03,1.25,.24,1.32,1.23,.42,.64-.58,1.07-.36,1.62-.02,.29,.18,.53,.39,.84-.08,.55-.83,.66-.86,1.05-.42,.58,.63,1.05,1.36,1.7,2.24,.58-1.15,1.3-1.84,2.63-.98,1.89,1.24,4.38,1.85,4.68,4.67-.8-.45-1.16-.14-1.12,.71,.02,.45-.28,1.16,.66,1.04,1.5-.2,2.68,.95,4.1,1.02,.61-1.22-2.55-1.13-.86-2.67l-.13,.08c.98,.06,2.7-.81,1.87,1.5,1.84,.72,1.54,3.96,4.27,3.61-.28,.55-.53,1.1-.84,1.63-.34,.58-.51,1.19,.05,1.67,.75,.64,1.21-.18,1.41-.59,.55-1.15,2.89-.76,2.42-2.23-.33-1.03-2.07-.08-3.14-.43l2.17-1.06-.16,.11c.71-.78,1.47-1.67,2.62-1.34,1.56,.45,2.15-.49,2.76-1.56l-.07,.06c2.02-1.78,1.18-6.92,6.18-5.29,.22,.07,.68-.49,.99-.8,.24-.24,.65-.75,.77-.49,1.15,2.49,1.99-.36,3.05-.18,.81,.14,1.59-.46,2.65-.4,2.66,.16,5.52,.08,8.01-.77,3.05-1.04,5.84-2.6,9.1-.93,.17,.09,.67-.08,.71-.21,.66-2.63,2.59-2.3,4.6-2.2,1.23,.07,2.74,.19,3.24-1.53,1.03,.88,1.98,1.6,3.44,.51,.71-.53,1.88-.78,2.77-.65,2.17,.32,4.23,.4,6.32-.45,2.56-1.05,5.25-.27,7.88-.39h-.11c1.11-.26,2.2-.43,3.36-.11,.65,.18,1.73,.51,1.86-.71,.23-2.24,1.32-.95,2.44-.9,2.22,.1,4.47-.39,6.7-.65,.06,0,.14-.32,.12-.48-.06-.57-.03-1.23,.68-1.12,.95,.15,.56,.96,.37,1.48-.42,1.15,.5,1.1,1.1,1.31,.81,.29,1.32-.13,1.75-.78,.42-.64-.49-1.38,.4-2.13,.54,1.98,2.4,.37,3.4,1.34,1.53,1.48,1.62,1.37,2.64-.7,.61-1.23,1.91-3.07,3.04-2.27,1.05,.75,3.07,1.58,2.48,3.88,1.03-.68,1.23-1.48,1.62-2.16l-.04,.05c1.06,.31,1.97,1.85,2.93,1.29,1.92-1.1,1.5-.07,1.55,1.15,.06,1.61,.43,2.95,2.5,1.38,.56-.43,2.03-1.34,2.3-.31,.44,1.72,1.04,.51,1.6,.4,.78-.16,2.59-2.71,2.45-3.46-.04-.22-.17-.43-.26-.65-2.06,1.69-1.92-2.08-3.64-1.4,1.96-1.48,4.17,.48,6.18-.7-.66,.94-2.19,1.32-1.2,3.07,.88-2.84,3.03-.85,4.57-1.51-.16,.68-.29,1.27-.43,1.85-.56-.24-1.09-.5-1.66-.7-.81-.28-1.31,.17-1.65,.84-.16,.31-.3,.68,.09,.91,.59,.35,1.2,.07,1.73-.13,.53-.2,.97-.63,1.46-.96,.51,.11,1.03,.17,1.52,.33,.56,.19,1.07,.23,1.3-.39,.15-.39,.17-.9-.33-1.13-.51-.23-1.1-.52-.78-1.11,.48-.88,1.02,.1,1.54,.12,2.73,.12,5,1.91,7.69,2.12,.14-.08,.29-.16,.43-.24h.03c.37,.78,.7,1.56,.79,2.46,.08,.83,.8,1.12,1.55,1.08,1.05-.05,.39-.97,.65-1.43l1.26,.25c1.3,1.12-.59,2.28,.25,3.64-.34-2.16,2.27-1.74,2.48-3.38l.02-.02,.12,.07c.95,.7,2.15-.17,3.03,.41,1.23,.81,1.34,.24,1.98-.79,.85-1.36-.09-2.86,.78-4.38,.74,1.74,1.17,3.59,3.39,2.14,.8-.52,1.3,.16,1.43,.64,.42,1.61,1.29,2.46,3.07,2.09-.25,1.18-1.23,.83-1.73,1.28-.48,.44-1.52,.5-1.03,1.49,.44,.9,1.05-.03,1.59-.03,1.37,.01,2.71-.46,3.91,.87,.98,1.09,1.96,.11,2.61-.73,.49-.64,.76-1.45,1.2-2.33,1.13,1.12-.64,3.84,2.25,3.43,.32,2.25,1.78,1.61,3.16,1.26,3.16-.79,7.61,1.08,7.96,3.98,.33,2.8,3.56,.89,3.86,3.13,.05,.36,.84,.51,1.42,.28,1.31-.51,2.77-.15,4.09-.79,1.37-.66,2.32,.09,3.11,1.21,.36,.51-.02,1.69,1.1,1.49,.76-.14,.46-1.05,.74-1.56,.23-.43,.35-1.04,1.04-.98,.56,1.25-.08,2.37-.44,3.53,1.57,.46,2.98,1.03,4.4-.04,.5-.37,1.29-.3,1.4,.16,.64,2.68,3.31,2.77,5,4.09l.34,.16c1.12,.11,1.34,1.35,2.22,1.75,.33,.15,.76,.97,.98,.35,.53-1.44,2.15-1.56,2.84-2.69,.26-.43,.33-1.16,1.03-.83,.56,.26,.4,.91,.28,1.42-.2,.85-.64,1.79,.65,2.15,1.75,.49,1.3,1.89,1.11,3.31,1.28-.86,2.37-1.4,2.84,.34,.15,.55,.32,.82,.81,.68,.56-.17,.41-.69,.33-1.11-.23-1.27-.07-2.45,.75-3.5,.01,.12,.05,.17,.1,.15,.89,1.3,.34,3.13,1.56,4.31,.4,.39-.29,1.76,.91,1.27,.82-.34,.35-1.16-.12-1.73-.2-.25-.37-.52-.73-1.05,3.13,0,2.94-1.9,2.59-3.89,1.48,1.16,1.78,4.22,4.77,2.95-.46,.72-1.14,1.42-.39,2.31,.25,.3,.65,.29,.87-.07,.5-.79,1.2-1.6,.16-2.49-.06-.05-.16-.06-.24-.08,.35-.04,.7-.1,1.04-.12,.87-.04,1.7,.3,1.94,1.08,.4,1.27-.77,.72-1.31,.91-.4,.14-.45,.52-.4,.88,.1,.65,.65,.64,1,.43,1.68-.98,3.6-1.37,5.11-2.88,1.32-1.32,3.16-2.46,5.34-2.17-.8,.98-1.22,2.45-.42,3.14,1.58,1.37,3.67,1.81,5.9,1.44-.14-1.09-1.69-1.22-1.39-2.19,.53-1.75-.88-1.78-1.78-2.3,1.11-.77,2.22-1.53,3.15-2.17,1.14,.62-.36,2.48,.76,1.84,1.82-1.04,3.55,.04,5.19-.64-.69,2.12-.56,4.1,1.07,5.79l-.08-.06c1.36,.53,2.72,1.18,4.08-.01l.09-.61c1.08-2.25,2.12-.16,3.23,.07,.28-1.22,.53-2.43,.84-3.62,.14-.55,.52-.98,1.16-.83,.56,.13,.48,.62,.42,1.07-.17,1.31-1.62,3.5,1.68,2.49,.08-.03,.27,.21,.38,.34,1.33,1.58,2.34,.13,3.01-.59,1.19-1.28-1.3-.84-1.2-1.84,1.19-.15,2.2,.09,3.29,.61-.74,1.05-1.6,2.12,.07,3.07,.41,.23,.56,.8,.36,1.18-.71,1.39-.05,2.12,1.12,2.72,1.54,.79,1.96-.61,2.73-1.34l-.19,.1c1.74,1.07,2.56,3.26,4.79,4.1-1.66-4.29-1.61-4.45,1.71-4.67-1.66,2.82-.22,3.1,2.1,2.74,1.11-.17,1.64,.92,2.3,1.5,2.5,2.2,4.31,1.92,5.53-1.07,.35-.87,1.09-1.22,1.89-1.87-1.45,2.63,.54,3.42,2.11,4.22,.47,.24,1.32-.01,1.35,.79,.03,.69,.5,1.68-.7,1.97-.85,.2-.88,.86-.68,1.44,.22,.63,.79,.89,1.51,.73,.59-.13,1.2-.18,1.8-.27l-.05-.07c.05,.87-.81,1.24-1.2,2.11,2.18-.33,4.21-.64,6.45-.98-.67,2.11-.91,3.41,1.9,2.43,1.62-.57,3.74-.69,3.38,2.41-.1,.89-.52,4.12,2.15,1.28,.18-.2,.82,.06,1.25,.07,2.67,.05,3.39,3.37,5.98,3.63,.14,.01,2.13,1.45-.29,1.7-.25,.03-.24,.8,.08,1.17,.35,.4,.77,.41,1.11-.01,1.56-1.94,3.01-1.25,4.44,.15,.12,.36,.23,.73,.35,1.09-.07,1.04-2.61,1.49-1.12,2.44,.64,.41,2.07,3.14,3.81,.74,.28-.39,1.4-.46,1.99-.26,1.96,.66,3.21,.02,4.26-1.65,.34-.54,1.04-.72,.87-1.67-.23-1.34-1.47-.22-2.01-.93,2.59-2.51,3.3,.46,4.88,1.95-.42-1.8-.18-3.4-1.53-4.02-1.92-.89-.44-1.53,.09-1.96,.84-.68,2.73,.49,2.87-.61,.16-1.31-2.1,.16-2.66-1.24-.16-.39-.89-.51-1.27-.85-.44-.4-1.46-.17-1.39-.96,.07-.8,1.01-.86,1.63-1.15-.02,.09-.05,.17-.06,.26,0,.08,.03,.17,.05,.25,1.68-.56,2.8-1.92,4.11-2.99,.99-.81-.53-1.51-.34-2.37,.17-.78-.94-1.63,.14-2.4,.82-.58,.29-.8-.32-.9-1.72-.27-.79-1.04-.42-1.83,.23-.49,.99-1.45,.7-1.38-1.26,.32-1.94-1.44-3.15-.7h.1c-2.44-.18-2.67-.96-1.82-3.4,.89-2.56,1.66-2.4,3.44-1.2,1.61,1.09,2.99,2.4,4.2,3.91,5.94,7.41,6.54,16.36,7.26,25.27,.07,.89-.31,1.29-1.29,1.07-.81-.18-1.05,.45-1.16,1.11-.09,.5,.05,.93,.59,.99,2.62,.3,2.95,2.39,3.53,4.36,1.74,5.92,3.1,11.99,6.71,17.18,.61,.87,.26,1.65-.13,2.48-1.22,2.58-1.8,5.32-2.07,8.16-.82,8.38-2.86,16.51-5.26,24.54-2.43,8.16-7,15.39-10.31,23.17-1.52,3.58-3.43,7.17-7.99,7.93-.63,.11-1.19,.71-1.76,1.12-2.93,2.11-5.4,4.84-8.34,6.84-7.4,5.04-12.74,12.23-19.33,18.11-3.98,3.55-7.7,7.58-10.9,12.12-4.67,6.64-9.66,13.1-14.41,19.71-1.21,1.68-1.35,3.74-1.84,5.67-.14,.55,.1,.9,.57,1.02,3.4,.89,1.07,2.86,1.08,4.82-1.58-1.46-1.77-3.44-3.03-4.38-3.22,1.58-.84,4.71-2.32,7.17-1.43,2.38-.35,6.24,0,9.45,.06,.52,.19,.71,.73,.85,2.56,.64,2.11,3.69,2.08,4.7-.08,2.45,1.34,4.24,1.24,6.5,1.05-.32,.73-.98,.92-1.44,.13-.33,.31-.7,.75-.54,.32,.11,.6,.35,.89,.54-1.79,2.43,1.17,2.15,1.89,2.99,.98,1.15,2.53,1.81,3.83,2.7,.94,.64,2.1,.54,3.15,1.31,1.11,.81,2.93-.63,4.57,1.43,1.02,1.28,4.15,1.76,6.4,2.35,2.51,.66,5.19,.02,7.74,1.02,.68,.27,1.28,.97,2.2,.9,.82-.06,2.32-1.25,2.3,1.06,0,.25,1.19-1.22,2.72-.95,2.47,.43,4.97,1.67,7.5,1.12,2.75-.6,5.27,.19,7.88,.58,1.94,.29,3.14,.96,2.53,3.19-.11,.39,.09,.68,.59,.78,.4-1.41,1.56-3.53,2.63-2.33,1.54,1.72,2.17,1.31,3.44,.22,.58-.5,1.13,.03,1.68,.32,.54,.28,1.17,.64,1.71,.58,1.39-.15,1.39-.24,1.58,1.12,.06,.47,.17,.86,.75,.86,.75-2.2,2.47-2.51,4.8-1.56,1.32,.53,3.19,2.9,4.61-.2,.21-.46,.98-.85,1.72-.04,1.33,1.45,2.86,2.38,5.1,1.95,1.34-.26,2.65,.44,3.91,1.31,1.55,1.08,.15,2.35,.57,3.7,1.83-2.54,3.57-1.01,5.3-.32l.14-.15c-.48,.22-1,.39-1.43,.69-.87,.59-1.81,1,.06,1.82,2.28,1,4.93,1.75,7.38,1.87,1.09,.06,1.17-.79,2.28-1.4-1.93,3.84,1.71,3.17,2.95,3.87,1.01,.57,.69-2.03,2.09-3.23-.22,1.85,1.77,2.21,1.64,3.87l.1-.2c-.83,1.31-3.67-.65-3.53,3.18,.84-4.3,1.92-.13,3.19-1.07,.98-.72,2.57-.74,3.95-.52-.81,.77-1.5,1.58,.02,2.28,.74,.34,.86,.97,1.07,1.6-1.05,.35-1.83-.32-2.64-.77-.79-.44-1.45-.63-1.88,.42,.42,1.46,.27,3.2,1.96,4.05-1.4,.31-2.92,.3-4.66,1.98,2.37-.78,3.37,.9,5.11,1.12-.24-1.2-.44-2.22-.64-3.23l.92,.95c.09,.09,.15,.15,.16,.16,.27,3.55,4.21,5.54,3.95,9.32v-.09c.11,1.22,.02,2.02-1.54,1.14-1.72-.98-3.41-1.19-3.42,1.52-.01,2.05-1.15,1.92-2.57,1.48q.69,2.98-1.91,4.34c-.41-.94,1.26-1.86-.16-3-.52,.94-1.42,1.6-1.06,2.82,.39,1.32-.62,1.56-1.35,2.31-1.31,1.34-3.13,1.88-4.34,3.33-.71,.86-.28,1.78-.54,2.64-.85,2.8-2,5.68-.1,8.73,.81,1.29,2.31,1.23,2.96,2.43,2.24,4.1,3.61,8.39,2.93,13.12-.76,5.32-1.86,10.58-2.96,15.84-1.43,6.88,1.95,12.72,4.9,18.51,1.91,3.75,4.95,6.87,6.95,10.52,4.62,8.43,9.99,16.46,13.83,25.32,.79,1.83,1.99,3.5,3.07,5.2,3.77,5.95,8.4,11.41,11.32,17.83,5.18,11.41,12.46,21.42,19.78,31.44,4.77,6.53,8.83,13.39,10.18,21.55,2.07,12.52-.72,24.01-7.04,34.85-3.2,5.49-6.81,10.76-9.4,16.58-2.04,4.59-4,9.24-5.53,14.01-1.72,5.34,.45,10.05,3.51,14.34,1.42,1.99,2.5,4.04,2.7,6.5,.27,3.34,.3,6.71,.83,10.01,1.02,6.31,3,12.21,8.98,15.71,2.81,1.64,5.71,3.14,8.85,4.04,6.67,1.93,13.16,4.65,20.23,4.9,6.7,.24,13.37-.16,20.06-.53,10.92-.59,21.81-1.18,32.55-3.35,7.19-1.45,14.27-3.12,20.74-6.87,3.95-2.28,6.03-4.71,6.01-9.91-.28-82.5-.29-165.01-.3-247.51,0-47.98,.09-95.96,.14-143.93q0-3.61-3.75-3.53c-9.18,.22-18.39,.03-27.52,.83-6.11,.54-12.2-1.1-18.34,.74-5.37,1.6-11.03,2.19-16.55,3.3-5.09,1.03-10.13,2.33-15.25,3.2-9.34,1.58-18.78,1.71-28.24,1.72-13.76,.02-27.48,2.32-41.27,1-5.6-.54-11.18-1.19-16.61-3.02-5.48-1.85-5.47-8.39-3.37-12.28,2.14-3.96,5.64-6.49,9-9.19,1.29-1.04,2.45-2.33,4.14-2.73,.66-.15,1.64,.14,1.52-.9-.14-1.17-1.31,.11-1.75-.36,.91-2.76,2.9-4.56,4.9-6.25,3.48-2.93,6.41-6.31,8.93-10.04,1.23-1.82,3.63-3.5,3.8-5.14,.26-2.58,.87-5.12,1.06-7.71,.46-6.1,.3-12.19,.2-18.29-.05-3.09-.17-6.22,.9-9.19,1.61-4.48,2.78-9.1,4.75-13.47,1.14-2.53,2.68-5.04,2.87-7.9,.25-3.71,1.14-7.34,1.36-11.04,.3-4.97,1.62-9.98-.21-14.94-.21-.57-.97-.91-.57-1.84,1.92-4.58,2.47-9.46,3-14.36,.83-7.56-1.31-15.12,.19-22.76,.26,.38,.59,.71,.72,1.1,2.08,6.39,5.3,12.35,7.09,18.84,1.24,4.5,3.91,8.53,4.25,13.32,.4,5.65,1.98,10.91,5.41,15.5,.61,.81,.41,1.44,.07,2.19-1.1,2.36-1.51,4.91-1.69,7.45-.79,11.1-3.37,21.98-3.93,33.11-.42,8.38-1.16,16.74,.53,25.07,.13,.62,.11,1.19-.05,1.82-1.91,7.69-4.24,15.3-4.09,23.37,.07,3.82,2.27,7.48,5.98,8.36,9.74,2.31,19.55,2.75,29.35,.36,5.68-1.39,11.21-3.32,17.24-3.04,8.58,.4,17.12-.53,25.59-1.72,12.14-1.7,24.23-3.74,36.35-5.61,3.97-.61,3.98-.57,3.98-4.58,0-88.26,.01-176.52,.02-264.78,.16,.12,.55-.27,.54,.27-.02,.71,0,1.42,0,2.12,0,338.54,0,677.07,.05,1015.61,0,1.99-.45,2.44-2.44,2.44-189.71-.05-379.43-.05-569.14,0-1.99,0-2.44-.45-2.44-2.44,.06-116.77,.05-233.54,.05-350.31,5.03,1.57,9.87,3.72,14.44,6.22,9.92,5.42,19.28,11.89,26.88,20.28,14.02,15.48,24.17,32.79,22.96,54.8-.28,5.1,3.18,7.53,8.16,6.34,2.46-.59,4.63-1.62,6.58-3.18,2.63-2.09,6.23-2.6,8.51-5.24,5.65-6.55,7.67-14.27,6.61-22.66-1.45-11.52-7.58-20.86-15.2-29.14-14-15.23-30.94-26.2-50.38-33.21-9.45-3.41-19.04-6.41-28.57-9.6ZM25.13,125.49c.29,1,.57,2,.88,3,.21,.69,.79,1.16,1.34,.66,.65-.59-.26-.7-.56-1.02-.54-.58-.35-1.23-.06-1.93,.33-.8,1.04-1.56,.67-3.03-.94,1.06-1.63,1.83-2.32,2.6q-1.72-2.52-4.1,.74c1.5-.47,2.92-.22,4.14-1.02Zm231.87,144.37c.66-.21,1.31-.47,1.98-.6,1.04-.21,2.23-1.7,3.03-.45,.71,1.11-.63,2.18-1.4,3.1-.1,.12-.31,.17-.72,.38,.22-1.19-.09-2.01-1.39-1.72-1.79,.41-2.64,1.85-2.89,3.41-.18,1.11,.99,1.85,1.97,1.24,2.6-1.62,5.01-3.55,6.42-6.38,.88-1.76-.17-2.41-1.67-2.01-1.99,.54-4.05,1.15-5.28,3.08-3.41,1.57-6.29,3.8-8.31,7-.76,1.2-1.04,2.64,1,2.47,2.09-.17,4.07-1.04,5.95-2.76-.74,.04-1.1,.14-1.41,.06-.97-.25-2.31,1.08-2.83-.22-.38-.96,.92-1.74,1.53-2.57,1.14-1.55,3.25-2.11,4.02-4.03Zm316.41,620.3c-2.47,.08-4.47,1.05-6.57,1.65-9.98,2.86-19.38,6.94-26.97,14.17-2.11,2.01-4.5,3.7-6.46,5.82-1.02,1.11-2.77,1.62-3.26,2.85-.81,2.03-1.09,4.19-3.31,5.37-.49,.26-.26,1.16,.29,1.65,.72-1.02,.96-.69,.76,.32-.76,3.88,2.83,5.12,4.74,7.06,1.5,1.52,3.64,2.5,5,4.39,.9,1.24,1.66,3.02,3.83,2.31,2-.65,3.14,.17,3.36,2.17,1.25-.14,1.4-1.46,2.73-1.82-.63,1.17,.03,1.52,.78,2.1,2.3,1.78,4.67,1.09,7.26,1.09,4.99,0,10,.09,15,.26,2.68,.09,2.82-.85,2.81-2.94-.05-13.71,0-27.41,.02-41.12,0-1.76,0-3.52,0-5.33Zm-188-125.9c.33,1.31,1.33,1.37,2.07,1.7,6.68,2.94,13.54,5.39,20.05,8.79,4.24,2.22,9.15,3.39,13.99,2.45,4.23-.82,8.34,.42,12.52-.1,2.22-.27,4.53,.32,6.81,.41,5.71,.23,11.42,.39,17.14,.58,6.71,.23,13.44,.84,20.13,.6,8.37-.29,16.62-.83,24.85,1.67,4.1,1.25,8.58,1.46,12.79,2.36,6.33,1.35,12.42,3.79,18.6,5.81,4.62,1.51,9.27,1.52,13.93,.28,7.89-2.1,15.62-4.66,23.04-8.1,.89-.41,1.91-.65,1.95-1.87,.05-1.68,.04-3.36,.02-5.04-.02-1.04-.81-1.66-1.53-1.07-1.12,.92-2.53,1.05-3.68,1.96-1.94,1.53-4.25,3.01-6.44,3.68-6.67,2.04-13.25,4.41-20.73,2.84-3.48-.73-7.11-1.4-10.63-2.18-5.43-1.2-10.9-2.18-16.34-3.29-4.95-1.01-9.95-1.9-14.95-2.71-1.9-.31-3.86-1.04-5.71-.84-5.04,.56-10.12,.08-15.14,.91-3.33,.55-6.6-.77-10.13-.35-2.17,.26-5.26-.62-7.74-.61-5.98,.04-11.89-.06-17.81-.92-3.27-.47-6.61-.08-9.86-.05-3.78,.03-7.71,.27-11.38-.07-4.64-.42-9.37-.45-14.02-2.02-6.98-2.35-14.64-2.08-21.78-4.84Zm140.32,255.24c10.69,0,20.98,.11,31.26-.05,4.87-.08,9.73-.46,14.58,.18,.83,.11,1.49,.02,1.72-1.11,.98-4.88,.04-6.43-4.76-7.49-.94-.21-1.91-.27-2.86-.39-6.39-.8-12.62,.24-18.81,1.72-7.13,1.7-14.05,4-21.13,7.14Zm-168.54-215.1c.08-1.74-.09-2.95-.61-4.08-.29-.65-.67-1.29-1.51-1.26-.91,.03-1.51,.64-1.65,1.44-.44,2.43-.5,4.87,.5,7.21,.27,.64,.65,1.35,1.49,1.26,.79-.08,1.19-.75,1.33-1.45,.24-1.19,.35-2.41,.45-3.13Zm-80.01,15.39c.1-1.21-.54-2.02-1.61-2.02-2.39-.01-4.14,1.23-5.27,3.32-.43,.8-.72,1.64,.17,2.37,.07,.05,.14,.11,.22,.14,1.74,.61,3.27-.22,4.77-.84,1.2-.5,1.82-1.61,1.72-2.97ZM143.45,165.53c1.87-.3,3.43-1.08,3.7-3.16,.15-1.17-.61-1.77-1.8-1.73-1.73,.07-3.84,2.05-3.77,3.52,.06,1.26,.97,1.28,1.88,1.37ZM410.59,788.07c.28-.1,1.07,.32,1.1-.72,.03-1.14-3.2-3.97-4.56-4.01-.89-.03-1.27,.5-1.37,1.27-.21,1.55,2.21,3.36,4.84,3.47Zm69.58,165.07c1.35-.13,2.41-.77,2.5-2.37,.07-1.17-.7-1.53-1.71-1.4-1.45,.17-2.53,1-2.72,2.41-.15,1.1,.85,1.38,1.93,1.36Zm-112.05-150.06c-.09-.86,.02-2.2-.83-2.03-2.02,.39-1.61,2.38-1.85,3.85-.1,.64-.14,1.8,.73,1.64,1.86-.35,1.67-2.15,1.96-3.46ZM174.84,114.56c2.2-.41,2.53-2,2.77-3.57,.09-.59-.49-.58-.96-.53-2.87,.28-1.42,2.49-1.81,4.1Zm100.74,19.58c-.04-1.67-.51-3.27-2.08-3.83-1.28-.45-.83,1.35-2.13,1.81,1.97,.36,3.2,.92,4.21,2.01Zm89.63,12.38c-.21,1.27-.74,2.55,.36,3.72,.31,.33,.66,.66,1.13,.49,.28-.1,.49-.42,.72-.65-1.2-.89,.29-3.39-2.21-3.56Zm-162.61,27.28c-.07-.73-.43-1.46-1.18-1.44-1.04,.03-1.7,.76-1.81,1.84-.1,1,.57,1.48,1.41,1.44,1.01-.05,1.34-.94,1.58-1.84Zm-125.41-55.81c.77-.9,2.51-1.11,1.98-2.56-.29-.79-1.16-.87-1.98-.8v3.35Zm140.71,225.24c-1.44,1.2-1.33,2.66-1.11,4.12,.05,.32,.47,.65,.8,.4,1.27-.99,.79-2.4,.75-3.68,0-.21-.21-.42-.43-.83ZM147.47,112.88c.99-1.19,.45-2.49,1.55-2.89,.41-.15,1.21,.28,1.12-.62-.02-.21-.48-.43-.77-.56-.56-.26-.91-.01-1.32,.44-.88,.97-.52,1.99-.58,3.63Zm-94.95,12.07c.56-.31,1.36-.32,1.32-1.32-.03-.81-.49-1.03-1.15-1.11-.88-.1-1.32,.28-1.27,1.18,.04,.68,.36,1.14,1.1,1.25Zm133.27-9.44c-2.81-1.81-3.34-1.51-3.49,1.37,.27-1.76,1.3-2.15,3.49-1.37Zm225.04,276.92c-.51,.28-1.04,.64-1.16,1.26-.11,.55,.3,.81,.81,.7,.66-.15,1.08-.59,1.05-1.3-.02-.35-.22-.66-.69-.66Zm-144.38-246.56c.17,0,.69,1.51,1.79,.53,.18-.15,.2-.72,.06-.96-.83-1.43-1.63,.58-1.85,.43Z"/><path d="M348.18,160.21c-1.43-1.4-2.88-2.09-4.44-.15-.33,.42-.75,.41-1.11,.01-.32-.37-.33-1.14-.08-1.17,2.42-.25,.43-1.69,.29-1.7-2.6-.25-3.31-3.58-5.98-3.63-.43,0-1.07-.27-1.25-.07-2.67,2.84-2.25-.39-2.15-1.28,.36-3.1-1.76-2.98-3.38-2.41-2.82,.99-2.57-.32-1.9-2.43-2.24,.34-4.27,.65-6.45,.98,.38-.87,1.25-1.24,1.19-2.12,1.07-1.46,2.44,1.31,3.63-.36-1.38-.96-2.64-2.04-3.57,.44-.6,.09-1.21,.14-1.8,.27-.72,.16-1.29-.1-1.51-.73-.2-.57-.17-1.23,.68-1.44,1.19-.29,.73-1.29,.7-1.97-.04-.8-.88-.54-1.35-.79-1.57-.81-3.57-1.59-2.11-4.22-.79,.65-1.53,1-1.89,1.87-1.22,2.99-3.03,3.27-5.53,1.07-.66-.58-1.19-1.67-2.3-1.5-2.32,.35-3.76,.07-2.1-2.74-3.31,.22-3.37,.38-1.71,4.67-2.23-.84-3.05-3.03-4.79-4.1,.88,.2,1.79,.6,3.06-.75-1.85,0-3.05-.52-4.04-1.49-.3-.29-.91-.92-1.31-.35-.36,.52-.41,1.31-.45,1.98-.04,.56,.3,1.07,.94,1,.67-.08,1.33-.33,1.99-.5-.77,.73-1.19,2.14-2.73,1.34-1.17-.6-1.82-1.33-1.12-2.72,.2-.39,.05-.95-.36-1.18-1.66-.95-.8-2.02-.07-3.07-1.09-.53-2.1-.76-3.29-.61-.1,1,2.39,.56,1.2,1.84-.66,.71-1.68,2.17-3.01,.59-.11-.13-.3-.37-.38-.34-3.3,1.02-1.85-1.18-1.68-2.49,.06-.46,.14-.94-.42-1.07-.63-.15-1.01,.27-1.16,.83-.31,1.19-.56,2.4-.84,3.62-1.11-.23-2.14-2.32-3.23-.08,.2-.57,.46-1.13,.59-1.71,.06-.29,0-.71-.18-.92-.29-.35-.58-.06-.85,.19-1.62,1.53-2.2,1.16-1.96-1.02,.1-.89-.25-1.72-1.16-2.15-.87-.42-1.25,.23-1.68,.78,.03-.08,.06-.17,.09-.26-1.63,.68-3.37-.4-5.19,.64-1.11,.63,.39-1.23-.76-1.84-.93,.64-2.04,1.4-3.15,2.17l.08-.05h-2.47l.09-.04c-2.19-.29-4.02,.85-5.34,2.17-1.51,1.51-3.43,1.9-5.11,2.88-.35,.2-.9,.22-1-.43-.05-.36,0-.73,.4-.88,.54-.19,1.7,.36,1.31-.91-.24-.78-1.07-1.12-1.94-1.08-.35,.02-.7,.08-1.04,.11-.13,.11-.27,.22-.4,.34-2.98,1.27-3.29-1.79-4.76-2.94-.56-.69-.84,.03-1.22,.25-1.94,.45-4.43-.71-5.87,2.19l2.77-1.5c-.82,1.04-.98,2.23-.75,3.5,.08,.42,.23,.94-.33,1.11-.49,.14-.66-.12-.81-.68-.46-1.74-1.56-1.2-2.84-.34,.19-1.43,.64-2.82-1.11-3.31-1.28-.36-.85-1.3-.65-2.15,.12-.52,.27-1.16-.28-1.42-.7-.33-.76,.4-1.03,.83-.69,1.13-2.32,1.25-2.84,2.69-.22,.62-.65-.2-.98-.35-.88-.4-1.1-1.64-2.22-1.75,1.79-1.1,2.87-2.26,.28-3.68-.65-.36-1-.91-1.32-1.55-.23-.47-.73-.47-1.13-.25-.52,.29-.37,.65-.04,1.04,1.04,1.23,1.25,2.84,1.86,4.27-1.69-1.31-4.36-1.41-5-4.09-.11-.46-.9-.54-1.4-.16-1.42,1.07-2.83,.5-4.4,.04,.35-1.16,.99-2.28,.44-3.53-.69-.06-.81,.56-1.04,.98-.28,.51,.02,1.43-.74,1.56-1.12,.2-.74-.98-1.1-1.49-.79-1.11-1.74-1.87-3.11-1.21-1.32,.64-2.78,.28-4.09,.79-.58,.23-1.37,.08-1.42-.28-.29-2.24-3.53-.33-3.86-3.13-.34-2.9-4.8-4.78-7.96-3.98-1.38,.35-2.84,.99-3.16-1.26-2.89,.41-1.11-2.31-2.25-3.43-.44,.88-.71,1.69-1.2,2.33-.65,.84-1.63,1.82-2.61,.73-1.2-1.33-2.54-.86-3.91-.87-.54,0-1.14,.93-1.59,.03-.49-.99,.55-1.05,1.03-1.49,.5-.46,1.48-.11,1.73-1.28-1.78,.37-2.65-.48-3.07-2.09-.13-.48-.63-1.16-1.43-.64-2.23,1.45-2.66-.4-3.39-2.14-.87,1.51,.07,3.02-.78,4.38-.65,1.04-.75,1.6-1.98,.79-.88-.58-2.09,.29-3.03-.41,1.34,.12,2.14-.9,2.11-1.83-.05-1.7-2.2-1.46-3.2-2.53,.31,1.15,.62,2.3,.92,3.45-.09-1.02-1.1-1.3-1.63-1.96-2.31-2.91-2.73-2.88-5.34,.11-.04-.86,.65-1.92-.64-2.42-.62-.24-1.21,.21-1.09,.68,.18,.77-.66,2.36,1.29,2.04-2.7-.21-4.97-2-7.7-2.12-.52-.02-1.06-1-1.54-.12-.32,.59,.27,.88,.78,1.11,.5,.23,.47,.74,.33,1.13-.23,.62-.74,.58-1.3,.39-.49-.16-1.01-.23-1.52-.33l.04,.05,.42-1.86c-1.54,.66-3.69-1.33-4.57,1.51-.99-1.75,.54-2.14,1.2-3.07-2.02,1.18-4.22-.78-6.18,.7,1.72-.68,1.57,3.09,3.64,1.4,.09,.22,.22,.42,.26,.65,.14,.75-1.67,3.3-2.45,3.46-.56,.11-1.16,1.32-1.6-.4-.27-1.04-1.73-.12-2.3,.31-2.07,1.57-2.44,.23-2.5-1.38-.05-1.22,.37-2.25-1.55-1.15-.96,.55-1.87-.98-2.92-1.3-.66-1.33,2.28-1.44,1.06-2.57-1.01-.94-2.18,.62-3.37,.71-.04,0-.07,.13-.11,.2,.58,.9,2.13,.33,2.45,1.62-.38,.68-.59,1.48-1.62,2.16,.59-2.31-1.43-3.13-2.48-3.88-1.12-.8-2.43,1.04-3.04,2.27-1.02,2.08-1.11,2.18-2.64,.7-1-.97-2.86,.64-3.4-1.34-.89,.74,.02,1.49-.4,2.13-.43,.66-.94,1.07-1.75,.78-.6-.21-1.52-.16-1.1-1.31,.19-.52,.58-1.33-.37-1.48-.71-.11-.74,.55-.68,1.12,.02,.16-.06,.47-.12,.48-2.23,.27-4.48,.75-6.7,.65-1.13-.05-2.21-1.34-2.44,.9-.12,1.21-1.2,.89-1.86,.71-1.17-.32-2.25-.15-3.36,.1h.11c-2.63,.12-5.32-.65-7.88,.4-2.08,.85-4.15,.77-6.32,.45-.89-.13-2.07,.12-2.77,.65-1.46,1.09-2.4,.37-3.44-.51-.5,1.72-2.01,1.6-3.24,1.53-2.01-.11-3.94-.43-4.6,2.2-.03,.13-.54,.3-.71,.21-3.26-1.67-6.05-.11-9.1,.93-2.49,.85-5.35,.92-8.01,.77-1.06-.06-1.84,.54-2.65,.4-1.06-.18-1.9,2.67-3.05,.18-.12-.26-.53,.25-.77,.49-.31,.31-.77,.87-.99,.8-5-1.64-4.16,3.5-6.18,5.29-1.01-1.73-2.25-3.12-4.46-3.44-.04,1.49,1.49,1.01,1.8,2l-2.46,1.73c1.96,.44,3.55-.28,5.19-.35-.6,1.07-1.19,2.01-2.76,1.56-1.14-.33-1.91,.56-2.62,1.34,.33-1.46-1.62-1.76-1.57-3.08,.04-.91-.5-1.03-1.19-.78-1,.37-.72,1.16-.33,1.7,.79,1.08,2.01,1.61,3.24,2.06-.72,.35-1.45,.71-2.17,1.06l.09-.04c-2.73,.35-2.43-2.9-4.27-3.61,.83-2.31-.89-1.44-1.87-1.5,.95-.49,1.91-.99,2.86-1.48-2.03-.42-3.99-.71-5.3,1.35-.12-.03-.19-.04-.21-.05-.3-2.82-2.79-3.43-4.68-4.67-1.32-.87-2.05-.17-2.63,.98-.66-.88-1.13-1.61-1.7-2.24-.4-.43-.51-.4-1.05,.42-.31,.47-.55,.26-.84,.08-.55-.35-.98-.56-1.62,.02-.98,.9-1.2,.83-1.23-.42-.02-.79-.27-1.24-.91-1.34-1.28-.19-.35,.84-.58,1.26-.49,.9-1.21,1.35-2.14,1.17-1.31-.25-1.65-1.19-.99-2.88-2.43,1.72-5.07,1.45-7.12,2.86C.05,77.69,.07,40.06,0,2.44,0,.45,.45,0,2.44,0,192.77,.05,383.11,.05,573.44,.05c0,88.26-.01,176.52-.02,264.78,0,4.01,0,3.97-3.98,4.58-12.12,1.87-24.21,3.91-36.35,5.61-8.47,1.18-17.01,2.12-25.59,1.72-6.03-.28-11.56,1.66-17.24,3.04-9.8,2.39-19.61,1.96-29.35-.36-3.71-.88-5.91-4.54-5.98-8.36-.15-8.08,2.18-15.68,4.09-23.37,.16-.62,.18-1.2,.05-1.82-1.68-8.32-.95-16.69-.53-25.07,.56-11.13,3.14-22.01,3.93-33.11,.18-2.54,.6-5.09,1.69-7.45,.35-.75,.54-1.37-.07-2.19-3.43-4.59-5-9.85-5.41-15.5-.34-4.79-3.01-8.83-4.25-13.32-1.8-6.49-5.02-12.45-7.09-18.84-.13-.39-.46-.72-.72-1.1-1.5,7.64,.64,15.2-.19,22.76-.54,4.89-1.08,9.78-3,14.36-.39,.93,.36,1.28,.57,1.84,1.83,4.97,.52,9.97,.21,14.94-.22,3.69-1.11,7.32-1.36,11.04-.19,2.86-1.72,5.36-2.87,7.9-1.97,4.37-3.14,8.99-4.75,13.47-1.07,2.97-.95,6.09-.9,9.19,.09,6.1,.25,12.19-.2,18.29-.19,2.59-.8,5.13-1.06,7.71-.17,1.64-2.57,3.32-3.8,5.14-2.52,3.73-5.45,7.12-8.93,10.04-2,1.69-3.99,3.49-4.9,6.25,.43,.47,1.61-.81,1.75,.36,.12,1.04-.86,.75-1.52,.9-1.69,.39-2.85,1.69-4.14,2.73-3.36,2.7-6.86,5.23-9,9.19-2.1,3.89-2.11,10.43,3.37,12.28,5.42,1.83,11.01,2.48,16.61,3.02,13.79,1.32,27.5-.98,41.27-1,9.46-.01,18.9-.15,28.24-1.72,5.12-.86,10.16-2.17,15.25-3.2,5.52-1.11,11.18-1.7,16.55-3.3,6.13-1.83,12.22-.2,18.34-.74,9.13-.8,18.34-.61,27.52-.83q3.75-.09,3.75,3.53c-.05,47.98-.15,95.96-.14,143.93,.01,82.5,.02,165.01,.3,247.51,.02,5.2-2.06,7.62-6.01,9.91-6.47,3.74-13.55,5.41-20.74,6.87-10.75,2.17-21.64,2.76-32.55,3.35-6.69,.36-13.36,.76-20.06,.53-7.07-.25-13.56-2.98-20.23-4.9-3.14-.91-6.04-2.4-8.85-4.04-5.99-3.5-7.96-9.4-8.98-15.71-.53-3.29-.56-6.67-.83-10.01-.2-2.45-1.28-4.5-2.7-6.5-3.06-4.29-5.23-9-3.51-14.34,1.53-4.77,3.49-9.42,5.53-14.01,2.58-5.82,6.2-11.09,9.4-16.58,6.32-10.84,9.11-22.33,7.04-34.85-1.35-8.17-5.41-15.02-10.18-21.55-7.32-10.02-14.6-20.03-19.78-31.44-2.92-6.42-7.55-11.88-11.32-17.83-1.08-1.7-2.27-3.37-3.07-5.2-3.84-8.86-9.2-16.89-13.83-25.32-2-3.65-5.04-6.77-6.95-10.52-2.95-5.8-6.33-11.63-4.9-18.51,1.1-5.26,2.19-10.52,2.96-15.84,.68-4.74-.69-9.03-2.93-13.12-.66-1.2-2.16-1.14-2.96-2.43-1.91-3.05-.76-5.94,.1-8.73,.26-.87-.17-1.78,.54-2.64,1.21-1.45,3.03-1.99,4.34-3.33,.73-.75,1.74-.99,1.35-2.31-.36-1.22,.54-1.88,1.06-2.82,1.42,1.13-.25,2.06,.16,3q2.6-1.36,1.91-4.34c1.42,.44,2.56,.56,2.57-1.48,.01-2.7,1.7-2.5,3.42-1.52,1.56,.89,1.65,.08,1.56-1.13,.25,.69,1.32,1.18,.76,2.03-.94,1.43,.09,1.29,.81,.99,.29-.12,1.59,.26,1.06-1.17-.52-1.41-.92-2.41-2.64-1.76,.26-3.77-3.67-5.77-3.94-9.31,.71,.8,1.13,3.04,2.3,1.85,.89-.91,1.56-1.66,2.8-2.08,.68-.23,.87-1.33,.46-1.85-2.02-2.6,.02-2.03,1.46-1.98,1.41-.85,.8-1.43-.27-1.94-.37-3.17-.93-3.51-3.25-1.93l.08,.05c.05-1.79-1.49-2.86-1.84-4.72-.42,.85-.69,1.38-.95,1.91-.12-.9-.35-2.04-1.43-.91-.76,.79-1.8,.92-2.5,1.65,.13-1.65-1.86-2.02-1.64-3.87-1.4,1.2-1.08,3.79-2.09,3.23-1.25-.7-4.88-.03-2.95-3.87-1.11,.61-1.19,1.45-2.28,1.4-2.45-.12-5.11-.87-7.38-1.87-1.87-.82-.93-1.23-.06-1.82,.43-.3,.95-.46,1.43-.69-1.03,1.82,.44,2.76,1.44,3.76,.86,.86,1.34-.3,1.98-.62,.61-.31,1.09-.83,.8-1.47-.63-1.38-1.01,.57-1.56,.19-.42-.29-.76-.69-1.13-1.04l.07,.14c-.37-.71-.95-.97-1.73-.81-1.74-.7-3.47-2.22-5.31,.32-.42-1.35,.98-2.62-.57-3.7-1.26-.87-2.57-1.57-3.91-1.31-2.24,.43-3.77-.5-5.1-1.95-.74-.81-1.51-.42-1.72,.04-1.42,3.1-3.29,.73-4.61,.2-2.34-.95-4.06-.64-4.8,1.56-.58,0-.69-.39-.75-.86-.19-1.36-.19-1.27-1.58-1.12-.55,.06-1.18-.3-1.71-.58-.55-.29-1.1-.81-1.68-.32-1.27,1.09-1.91,1.51-3.44-.22-1.07-1.2-2.23,.93-2.63,2.33-.5-.09-.7-.39-.59-.78,.61-2.24-.59-2.9-2.53-3.19-2.61-.39-5.13-1.18-7.88-.58-2.53,.55-5.02-.69-7.5-1.12-1.54-.27-2.73,1.2-2.72,.95,.02-2.31-1.48-1.12-2.3-1.06-.92,.07-1.52-.64-2.2-.9-2.56-1-5.23-.36-7.74-1.02-2.25-.59-5.38-1.07-6.4-2.35-1.64-2.07-3.45-.62-4.57-1.43-1.05-.76-2.21-.67-3.15-1.31-1.3-.88-2.84-1.55-3.83-2.7-.72-.84-3.67-.56-1.89-2.99-.3-.18-.57-.42-.89-.54-.44-.16-.62,.21-.75,.54-.18,.45,.13,1.12-.92,1.44,.11-2.26-1.31-4.05-1.24-6.5,.03-1.01,.48-4.06-2.08-4.7-.54-.13-.67-.33-.73-.85-.36-3.2-1.44-7.06,0-9.45,1.47-2.46-.91-5.59,2.32-7.17,1.26,.94,1.45,2.91,3.03,4.38,0-1.96,2.32-3.93-1.08-4.82-.47-.12-.71-.48-.57-1.02,.49-1.93,.63-3.98,1.84-5.67,4.75-6.61,9.73-13.06,14.41-19.71,3.2-4.54,6.92-8.57,10.9-12.12,6.59-5.88,11.93-13.07,19.33-18.11,2.95-2.01,5.41-4.74,8.34-6.84,.57-.41,1.13-1.01,1.76-1.12,4.56-.76,6.47-4.35,7.99-7.93,3.31-7.79,7.88-15.02,10.31-23.17,2.4-8.04,4.44-16.17,5.26-24.54,.28-2.84,.86-5.58,2.07-8.16,.39-.83,.74-1.61,.13-2.48-3.61-5.19-4.97-11.26-6.71-17.18-.58-1.96-.91-4.05-3.53-4.36-.54-.06-.67-.49-.59-.99,.11-.66,.35-1.29,1.16-1.11,.98,.22,1.36-.18,1.29-1.07-.72-8.91-1.31-17.86-7.26-25.27-1.21-1.51-2.59-2.82-4.2-3.91-1.78-1.2-2.55-1.36-3.44,1.2-.85,2.44-.61,3.22,1.82,3.4-.49,.64-1.37,1.54-1.87,1.01-2.56-2.71-2.38-.48-2.64,1.3-.1,.68-.38,1.36-.72,1.97-.3,.54-.98,1.08-1.33,.18-.35-.92-.67-.63-1.03-.19-.42,.51-.26,1.07,.34,1.28,1.45,.51,2.45-.12,2.83-1.52,.68-2.54,1.92-2.47,3.59-.92l.04-.09c-1.44,1.28-1.51,2.96-1.33,4.7-1.17-1.48-2.46-1.62-3.96-.29,1.67-.6,2.36,1.24,3.73,1.32-1.57-.06-2.52,.76-3.05,1.89,1.3,1.49,3.75-1.54,4.56,1.51l.02-.11c-.62,.3-1.56,.35-1.63,1.15-.07,.79,.95,.56,1.39,.96,.38,.34,1.11,.46,1.27,.85,.56,1.4,2.82-.07,2.66,1.24-.14,1.1-2.04-.07-2.87,.61-.53,.43-2.02,1.07-.09,1.96,1.35,.62,1.11,2.22,1.53,4.02-1.58-1.5-2.29-4.46-4.88-1.95,.54,.71,1.78-.41,2.01,.93,.17,.95-.53,1.13-.87,1.67-1.05,1.67-2.3,2.32-4.26,1.65-.59-.2-1.71-.12-1.99,.26-1.74,2.4-3.16-.33-3.81-.74-1.5-.95,1.05-1.4,1.12-2.43,.15,1.68,1.76,.72,2.33,1.58,1.03-3.3-1.33-3.82-3.35-4.6h.01c.22,.63,.45,1.28,.67,1.92Zm75.21,198.58c.36-.22,1.04-.56,.8-.82-.79-.87-1.92-.76-3.17-.7,.21,.76,1.18,1.09,.81,1.89-1.15,.72-1.47-.8-2.32-.87-1.73,.18-1.85,1.8-1.76,2.77,.11,1.27-1.36,2.8-.21,3.48,.94,.56,1.9-1.25,3.05-1.67l-.07-.07c-.15,2.06,.65,4.1-.3,6.47,.67-.4,.88-.56,1.11-.66,.59-.25-.14-1.85,1.04-1.25,1.08,.55,.64,1.45-.19,2.1-.53,.42-1.08,.85-.03,1.31,1.21,3.07,2.26-.47,3.41,0-1.18-.57-2.31,.24-3.48,.07,1.47-2.38,4.19-3.29,6.12-5.16-.66-.18-1.2,.03-1.79,.27-.62,.25-.75,1.82-1.74,.84-.61-.61-.07-1.49,.32-2.17,.26-.45,.6-.86,.9-1.28,.27-.56,.15-1.05-.25-1.5-.8-.97-.11-3.04-2.23-3.03Zm70.15,18.09c2.54-.8,3-2.43,1.35-4.72q-.41,3.12-2.57,3.41c.45,.47,.86,.9,1.25,1.32-1.12-.02-1.72-1.02-2.55-1.5-.79,.64-.65,1.73-.35,1.94,.96,.67,1.89-.35,2.87-.45Zm16.83,.25l-.16,.15,.03-.16c.29-.16,.76-.25,.84-.49,.53-1.45-.47-.86-1.56-1.67-2.43-1.82-2.17,1.09-3.35,1.22,1.54-.1,2.87,.39,4.2,.94Zm-11.22-6.58c-.12,.07-.43,.14-.53,.33-.24,.47,.16,.79,.4,1.14,.88,1.25,2.82,.84,3.59,2.37,.47,.93,1.26,1.74,2.51,1,1.28-.75,.67-1.76,.43-2.78-.13-.57-1.52-.81-.48-1.65,.48-.39,1.23-.64,.44-1.35-.56-.51-1.21-.18-1.71,.14-.88,.57-1.65,1.49-2.61,.11-.29-.42-.8-.19-.72,.19,.53,2.51-.75,.49-1.33,.5ZM334.65,120.17c1.21,1.77,2.55,2.72,4.55,1.88,.83-.35,.32-.94,.12-1.3-1.21-2.17-2.9-.98-4.67-.58Zm-198.01-17.47c.46,1.37,4.04,.79,1.51,3.22-.21,.2,.13,.87,.42,.72,.62-.32,1.87,.36,1.78-.32-.18-1.28,1.3-2.13,.58-3.42-.88-1.56-1.6,.44-2.46,.06-.5-.22-1.12-.17-1.82-.26Zm210.15,24.98c2.65-1.33,4.38,1.93,6.99,1.38-4.39-3.7-4.79-3.79-6.99-1.38Zm-37.84,10.75l5.33-1.06c-2.19-.6-3.16-2.72-5.16-1.97-1.06,1.19,2.77,1.11-.17,3.02Zm45.16,22.85c.33-1.03,.6-1.92,.89-2.81,.3-.9-.66-1.13-.99-1.66-.31-.5-.51,.41-.89,.53-.36,.11-.93,.78-.57,.85,1.9,.42,.43,2.2,1.56,3.08Zm-13.47-36.39c.98-.84,2.01,1.68,2.63-.09,.24-.68,.77-1.78-.45-2.22-2.11-.76-.48,2.32-2.18,2.32Zm12.28,10.72c1.34-.45,2.72-.82,3.99-1.43,.18-.09-.42-1.13-.99-1.67-.89,1.1-1.64,2.31-3.01,3.09Zm62.44,238.6c-.73,.14-1.2,.53-.95,1.25,.21,.6,.41,1.45,1.33,1.29,.83-.14,.59-.9,.65-1.48,.09-.82-.35-1.07-1.03-1.06Zm72.9,.82c-.85,.45-1.57,.66-1.32,1.62,.19,.73,.51,1.33,1.36,1.32,.45,0,.96-.67,.76-.74-1.06-.4-.64-1.42-.8-2.19ZM279.11,112.86c.54-2.33,.36-2.5-2.94-2.95,.67,1.35,3.27,.65,2.94,2.95Zm-68.49,4.87c1.36,.97,2.81,.94,4.34,.06-1.44-.02-2.91,.21-4.34-.06Zm219.54,244.65c1.69,.04,3.11,.95,4.34-.24-1.34,.25-2.72-1.37-4.34,.24Zm-10.92,29.58q-.31,2.44,1.85,2.73c-.42-1.08-1.9-1.39-1.85-2.73Zm-7.1-18.6c-.13-.68-.07-1.55-1.07-1.47-.69,.05-.96,.69-1,1.33-.13,1.8,1.16-.81,1.56,.51,.26,.85,.36-.15,.51-.37Zm-87.52-237.19c.09-.7-.25-.93-.9-.66-.48,.2-1.4,.03-1.13,.99,.16,.55,.44,1.19,1.22,1.11,.87-.09,.66-.85,.81-1.44Zm103.21,222.93c.71-.52,1.96,.17,2.33-1,.05-.16-.19-.59-.36-.62-1.15-.23-1.7,.48-1.97,1.63Z"/><path d="M239.08,755.09c-2.42-.92-4.54,.62-6.53,1.3-5.84,1.99-12.05,3.04-17.37,6.46-1.41,.9-2.9,1.4-4.66,.24-1.27-.84-2.51,0-3.38,1.2-2.61,3.64-5.22,7.28-7.87,10.9-3.27,4.46-6.59,8.89-9.88,13.34-3.24,4.38-6.79,8.5-10.41,12.57-2.17,2.44-5.28,3.66-7.42,6.1-.55,.62-1.24,.43-1.96,.42-1.92-.03-3.58-1.07-5.03-1.91-2.12-1.21-1.1-3.92-1.01-5.85,.25-5.26,1.45-10.42,2.51-15.58,3.5-16.96,6.52-33.96,6.2-51.38-.14-7.59,.86-15.21-.21-22.78-1.14-8.14-2.47-16.24-4.95-24.11-1.46-4.64-2.4-9.42-2.93-14.24-1.38-12.65-8.54-21.13-19.37-26.83-9.32-4.9-19.34-8.04-29.33-11.25-15.61-5.02-30.98-10.73-45.94-17.47-9.24-4.16-18.48-8.33-27.38-13.2-1.72-.94-3.68-1.18-5.5-1.82-4.89-1.71-7.63-8.41-6.31-13.7,.99-3.99,2.79-7.49,5.06-10.79,1.74-2.53,2.1-5.56,3.36-8.27,2.8-6.01,5.33-12.14,7.94-18.23,.19-.44,.66-.9,0-1.71-3.87,5.17-6.23,11.22-10.53,15.99,1.25-2.38,2.42-4.8,3.75-7.14,6.5-11.47,11.97-23.41,17.07-35.56,4.72-11.27,11.32-21.59,16.69-32.55,4.36-8.9,8.25-18,10.38-27.72,.87-3.97,.64-8.03-.45-12.05-2.34-8.64-3.04-17.38-.94-26.2,.21-.88,.39-1.74-.12-2.57-2.93-4.76-2.02-10.04-2.1-15.21-.14-8.38,3.05-16.1,4.65-24.13,2.23-11.19,1.56-21.91-4.03-32.12-1.95-3.56-3.52-7.32-4.94-11.13-2.95-7.92-2.14-15.63,1.2-23.2,1.01-2.29,2.99-3.64,5.61-5.05-2.28,.03-3.22-1.01-3.68-2.64-1.71-6.14-3.03-12.38-3.39-18.72-.59-10.32-3.64-19.91-7.61-29.33-3.12-7.39-7.35-14.12-12.24-20.38-6.14-7.86-14.67-12.28-24.03-15.14-9.44-2.88-19.15-4.05-29.02-4.03-.97,0-1.94-.13-2.91-.2v-55.77c4.08-.5,7.99,.61,11.98,1.13,6.46,.84,12.96,.93,19.44,.42,7.22-.56,14.44,0,21.66-.06,8.81-.07,17.62,.21,26.42,0,4.84-.11,9.71-.64,14.47-1.51,3.83-.7,7.33,.25,10.88,1.08,2.37,.56,4.91-.08,7.08,.81,2.28,.93,5.16-.78,6.96,1.78,.27,.38,.83,.19,1.19,.31,2.04,.66,4.49,.07,6.12,2.15,.38,.48,1.66,1.03,2.43-.03,.61-.84,.88-.09,1.11,.25,.94,1.42,2.85,1.73,3.67,3.3,.35,.67,.89,.06,1.35-.06,.99-.26,1.51,.69,2.05,1.13,.44,.35-.45,.94-1.1,1.23,1.65-.14,3.05,.42,4.42,1.11,.56,.28,1.43,.15,.77,1.38-.42,.78,.73,.84,1.29,.81,2.89-.15,4.83,1.85,6.99,3.19,1.11,.68,4.05-.03,2.97,2.95,.92,.32,1.74-.71,2.68-.18,.12,.55-.47,.67-.63,1.06-.22,.55-.65,1.08,0,1.66,.7,.62,1.1,.13,1.52-.33,1.24-1.33,2.2-.71,2.37,.67,.32,2.63,2.67,3.08,4.22,4.35,1.44,1.18,3.31,1.88,4.01,3.81,.22,.6,.88,1.02,1.18,.88,1.84-.88,2.79,1.07,4.3,1.27,.74,.1,1.63,.74,1.75,1.72,.34,2.79,2.69,2.61,4.55,3.1,.24,.06,.83-.62,1.03,0,1.13,3.49,3.77,2.85,6.44,2.61,1.81-.16,3.25,1.51,5.34,1.28,.8-.09-.74,.98-.73,1.97,2.27-.69,4.22-.38,5.29,1.99,.05,.12,.33,.27,.41,.22,4.13-2.22,5.21,2.46,7.88,3.55,.88,.36,1.43,1.18,2.66,1.27,1.05,.08,2.57,.55,2.62,2.41,.06,1.96,2.22,2.31,3.34,3.35,3.39,3.13,6.54,6.41,9.18,10.18,.78,1.11,2.41,1.57,1.88,3.73-.25,1.01,2.36,1.67,3.13,3.11,1.82,3.37,4.36,6.39,4.85,10.37,.03,.24-.08,.65,.02,.7,3.14,1.55,2.33,4.62,3.09,7.21,.96,3.26,.61,6.2-.05,9.29-.04,.17-.12,.44-.04,.5,2.4,2.1,.07,3.21-1.06,4.29-2.91,2.8-3.7,6.74-5.67,10.03-3.13,5.23-5.71,10.76-8.03,16.37-2.31,5.61-4.17,11.41-6.11,17.17-2.01,5.95-2.82,12.18-4.12,18.29-1.44,6.76-.92,13.48-1.3,20.23-.25,4.43,.27,8.96-1.33,13.39-1.11,3.06-.95,6.57-1.54,9.85-1.1,6.12-.97,12.32-1.29,18.47-.39,7.41,.4,14.83,3.01,21.8,1.24,3.31,3.6,6.33,6.81,8.25,2.86,1.71,4.57,1,5.7-2.02,.79,.57,.76,1.37,.54,2.13-1.01,3.41-.61,6.92-.8,10.38-.3,5.14-1.43,10.14-2.46,15.18-.75,3.69-1.71,7.35-2.28,11.07-1.34,8.78-3.37,17.4-5.55,26.01-1.23,4.84-2.86,9.59-3.73,14.5-.93,5.29-.19,10.38,2.71,15.17,1.76,2.92,4.31,4.68,6.95,6.51,.48,.33,.92,.88,1.14,1.42,1.16,2.94,4.28,3.21,6.5,4.12,2.93,1.2,5.51,2.82,8.21,4.34,1.53,.86-.17,1.7,.35,2.5,1.67-.04,3.14,.19,3.27,2.49,.19,3.17,3.2,4.24,5.1,5.98,1.27,1.18,1.57,4.07,4.37,3.26,.11,.42,.3,.84,.3,1.26,0,.77,.27,1.57,.82,1.88,3.85,2.21,7.59,4.47,12.34,4.63,3.31,.11,6.63,.93,9.98,1.24,1.41,.13,2.8,.63,4.21,.7,6.44,.3,12.85,.98,19.12,2.36,9.17,2.01,17.95,5.03,25.54,10.97,4.78,3.74,10.1,6.8,14.91,10.5,4.05,3.11,7.91,6.47,11.64,10.02,2.59,2.47,5.53,4.75,8.4,7.01,5.5,4.31,10.97,8.63,14.4,14.94,.29,.54,.69,.94,.46,1.68-.42,1.36-.15,2.76,.6,3.91,2.25,3.43,.72,6.85,.26,10.34-.42,3.21-1.32,6.29-1.91,9.42-.6,3.16-2.4,5.77-2.9,8.85-.73,4.54-2.3,8.95-2.08,13.65,.18,3.8,.35,7.59,.89,11.36,.49,3.4,5.03,7.47,8.44,7.64,5.39,.27,10.77,.44,16.17,.35,4.43-.07,8.72-1.02,13.09-1.43,3.51-.33,6.98-.3,10.11,1.27,4.84,2.43,6.29,7.12,4.32,12.93-1.25,3.7-3.26,7.01-5.56,10.15-2.8,3.84-5.83,7.56-8.23,11.64-2.18,3.71-2.76,7.88-2.64,12.35,.11,4.12,1.08,7.78,3.14,11.11,1.36,2.19,1.87,5.39,5.27,5.85,.62,.08,.68,.74,.87,1.23,.34,.86,.54,1.82,1.9,1.42,.27-.08,1.03,.45,1.03,.7-.03,2.59,3.04,2.17,3.86,4.01,.22,.51,1.74,1.05,2.08,.79,1.83-1.37,3.12,.12,4.59,.6-.97,.49-2.72,.78-2.03,2.17,.77,1.54,1.57-.68,2.52-.53,.08,.01,.17-.02,.26-.03l-.08-.04c-1.08,1.54,1.07,2.41,.79,3.78-.05,.11-.1,.17-.14,.17-.23,1.68-.54,2.32-2.83,2.06-3.08-.35-5.93-1.58-8.76-1.88-3.07-.32-6.3-.7-9.5-.67-3.58,.02-6.64-2-9.32-4.32-.73-.64-1.41-1.35-2.29-1.7-3.1-1.24-5.23-3.67-5.89-6.65-.63-2.84-1.46-5.76-1.26-8.79,.47-7.26,4.04-13.15,8.18-18.81,.46-.63,.91-1.28,1.36-1.92,2.6-1.57,4.46-3.97,6.57-6.06,4.57-4.54,9.1-9.17,11.84-15.17,1.14-2.51,2.13-5.12,1.45-7.93-.9-3.76-4.99-5.96-10.18-5.83-4.64,.12-9.03,1.52-13.52,2.4-6.33,1.23-12.64,2.59-19.16,1.85-4.46-.5-8.02-2.59-9.76-6.72-2.93-6.96-2.85-14.36-1.39-21.57,1.43-7.08,3.75-13.98,5.57-20.98,.66-2.55,1.42-5.31,.08-7.76-2.52-4.63-7.26-5.45-11.86-5.78-3.27-.23-6.35-1.14-9.53-1.6-3.86-.57-7.07-4.28-11.44-2.35-.14,.06-.37,0-.52-.07-2.45-1.27-4.86,.16-7.29,.11-2.23-.05-4.26,1.63-6.07,1.5-2.56-.18-5.21,.68-7.71-.36-.18-.07-.5,.12-.72,.24-3.03,1.61-6.96,.28-9.69,2.98-.57,.57-1.53,.29-2.3,.04-.46-.16-.74-.43-1.39-.12-3.27,1.53-6.92,2.17-10.02,4.08-1.74,1.07-4.53-.79-5.55,2.08-3.58-.16-4.97,3.4-7.78,4.65-1.31,.58-2.25,2.01-3.98,1.94-.76-.03-.76,.8-1.11,1.25-.69,.88-.76,2.29-1.89,2.72-1.66,.63-3,1.48-3.99,3.04-.37,.58-.67,1.27-1.17,1.86-1.42,1.68-3.46,2.75-4.14,5.25-.92,3.38-3.89,5.83-4.9,9.34-.25,.88-1.88,1.33-1.07,2.88,.22,.41-.48,.85-1.03,1-.43,.12-1.04,.42-.65,.87,1.09,1.23,2.26,2.31-.57,2.64,.8,1.82-1.49,4.08,.86,5.75,.51,.36,1.4,1.11,.82,2-.46,.71-1.28,.25-1.95,.18-.6-.06-1.03,.14-.9,.88,1.76,.71,3.38-.3,4.76-.45,1.63,1.44-1.14,2.11-.23,3.55,.8,1.26,.97,2.49-.77,3.52-.77,.45-2.01,2.7-.05,2.6,1.98-.1,2.52,2.5,4.49,1.54,.43-.21,.43,.47,.41,.94-.11,2.6-.07,5.21-.23,7.81-.11,1.7,.9,3.71-1.39,4.88,1.14,.72,1.97,1.82,3.19,.78,1.42-1.22,3.36-1.63,4.72-2.72,2.76-2.21,6.57-1.06,9.21-3.31,.09-.08,.34,.04,.51,.03,2.17-.03,4.36,.08,6.51-.15,1.21-.13,2.06-.62,3.08,.78,.62,.85,2.9,.09,2.92,2.31,0,.47,.74,.16,1.14,0,.61-.22,.93-.12,1.52,.41,2.11,1.9-.66,2.54-.81,3.81,.48,.46,.97,.2,1.49,.07,1.49-.38,7.35,2.11,7.27,3.41-.17,2.75,1.63,3.47,3.43,4.48,3.61,2.03,7.38,2.75,11.43,1.61l-.13,.09c1.05-.48,2.06,.06,3.09,.15,1.77,.15,2.22-.56,1.63-2.18q-1.91,1.59-3.22-.38c-.29-.44-.56-.89-.83-1.34,2.34,.2,4.09-2.29,6.68-1.37,.84,.3,2-.22,3.02-.46,1.8-.42,3.74-.8,5.57,.43,1.01,.68,2.31,.53,3.52,.18,2.38-.68,4.79-1.42,7.26-1.39,9.4,.12,18.09-2.63,26.3-6.81,7.53-3.83,14.91-7.91,23.05-10.32,4.97-1.47,9.96-3,15.18-3.2,5.78-.23,9.15,3.5,7.32,8.2-2.91,7.44-7.51,13.8-13.66,18.92-1.61,1.34-2.33,2.51-1.25,4.41-1.2-.37-1.72,.41-2.33,1.25-6,8.26-10.24,17.27-11.57,27.48-.4,3.04-1.95,5.89-1.31,9.11,.18,.9,.58,2.7-.47,2.76-1.18,.06-2.85,.26-3.85-.89-1.39-1.59-2.78-3.21-3.92-4.97-.75-1.17-1.49-1.69-2.92-1.75-3.91-.15-7.72-4.29-7.74-8.15,0-.49,.34-.94-.07-1.5-.56-.76-1.51-2.1-1.27-2.44,1.53-2.08,1.96-4.89,4.44-6.38,1.26-.76,3.08-.83,4-2.86-4.25,1.65-8.11,3.27-12.05,4.66-5.85,2.07-10.96,5.51-16.34,8.46-1.65,.9-3.13,2.46-5.28,2.38-.54-.02-.54,.54-.77,.87-1.19,1.68-3.08,2.54-4.94,2.35-1.93-.2-2.03,.54-1.66,2.09-1.02-.56-1.77-2.25-2.68-.22-.19,.42-.87,.63-1.14,.29-1.49-1.86-2.08-.68-2.68,.7-.29,.67-.63,.76-1.15,.17-.78-.89-1.66-.05-1.95,.33-.79,1.08,.67,1.06,1.08,1.59-2.4,1.62-5.11,1.65-7.76,1.42-1.52-.13-2.25,.58-3.02,1.98-.13-1.7-.55-2.38-1.83-1.22-.49,.45-.82,1.12-1.75,.87-1.92-.52-3.75-.04-5.33,1.06-.98,.68-1.67,.48-2.5-.12-.33-.24-.96-.13-.97-.72,0-.7,.48-.82,1.09-.82,.77,0,1.69-.33,1.41-1.13-.37-1.02-1-.6-1.3,.25-2.29-1.68-5.47,.31-7.67-1.86-1.5-1.49-3.61-2.47-4-4.85-.32-1.98-1.47-2.25-2.79-1.13-1.32,1.12-2.18,.24-3.19-.28-.46-.24-.92-.49-1.53-.83-.58,2.33-1.79,3.61-4.58,2.93-1.36-.33-2.73,1.04-4.28,1.06-1.21,.02-1.98,2.81-3.6,.6-.62,.56-1.47,.74-1.83,1.74-.32,.87-.27,3.32-2.48,1.18-.41-.4-2.32-.11-3.51-.02-1.06,.08-1.96,.4-2.78-.65-.56-.71-1.01-.51-1.05,.49-.02,.5-.63,.84-.92,.4-1.51-2.33-2.76,.12-3.67,.49-1.62,.67-3.22,1.68-4.81,2.57,.77-.71,1.64-1.35,1.86-2.6-1.38-.13-2.13,1.04-3.75,.75l1.79,2.03Zm124.67-33.34c8.56-.92,15.26-5.1,21.1-11.82-2.88,.54-4.49,3.02-7.12,2.82-1.53-.12-2.81,.44-3.8,1.49-2.62,2.79-5.73,4.85-9.16,6.48-.44,.21-.97,.39-1.03,1.03Zm-88.79-135.82c.36-.03,.8-.04,1.24-.09,1.07-.12,2.2-.23,2.48-1.54,.28-1.31-.72-1.89-1.61-2.47-1.52-.99-3.25-1.41-5-1.59-1.18-.12-2.35,.3-2.78,1.55-.39,1.14,.25,2.06,1.12,2.77,1.3,1.05,2.87,1.3,4.56,1.38Zm114.4,118.88c3.82-1.9,6.87-4.57,8.63-8.51,.53-1.19,.63-2.41-.3-3.48-.73-.84-2-.97-3.38-.44,2.8,1.44,3.22,3.17,1.52,5.92-1.67,2.69-4.21,4.46-6.47,6.51Zm-47.89,31.07c-1.06-.38-1.48,.03-1.97,.17-3.25,.9-5.45,4.52-9.45,3.61-.35-.08-1.43,.54-1.26,1.41,.17,.89,1.03,.57,1.51,.39,3.83-1.43,7.6-2.98,11.17-5.59Zm-56.76-32.61c1.54-.11,2.05,1.36,3.1,1.99-.4-1.57-1.34-2.39-3.1-1.99Z"/><path d="M.05,262.98c5.28,1.98,10.54,4,15.84,5.92,4.98,1.8,9.43,4.41,13.07,8.3,5.27,5.62,10.61,11.19,12.6,19,1.05,4.12,1.27,8.36,1.91,12.54,.51,3.31,1.77,6.27,3.51,9.07,1.22,1.96,3.12,2.97,5.29,3.45-.2,.79-.73,.81-1.1,.87-5.55,.94-7.8,4.69-8.92,9.81-1.06,4.87-1.71,9.73-1.56,14.7,.07,2.47-.56,4.66-2.1,6.67-2.37,3.08-1.42,6.8,2.2,8.18,3.75,1.42,6.84,3.56,9.16,6.85,.62,.88,1.55,1.73,2.68,1.25,1.1-.47,1.13-1.67,.99-2.77-.2-1.61-.86-3.05-1.57-4.48-.66-1.33-.84-2.64,.66-3.45,1.7-.91,2.55,.54,3.02,1.67,1.14,2.7,1.14,5.66,1.46,8.55,.89,8.06-1.09,15.47-4.35,22.82-4.48,10.13-5.23,20.98-4.96,31.93,.24,9.73-.46,19.42-1.12,29.12-.7,10.43-5.17,19.41-9.67,28.58-4.8,9.8-12.11,17.26-19.84,24.53-7.09,6.66-12.47,14.6-17.21,23.02v-35.06c3.57-3.22,7.13-6.46,9.87-10.45,4.77-6.93,8.5-14.36,10.33-22.62,1.63-7.35,1.12-14.78,.2-22.16-1.02-8.17-1.88-16.34-.69-24.57,.8-5.55,2.15-10.84,6.15-15.21,1.71-1.87,3.54-3.7,5.01-5.81,.55-.79,1.08-1.69-.18-2.12-1.61-.55-3.33-.81-5.46-1.31,1.09,1.33,2.27,.91,3.32,1.55-4.37,.67-7.45-1.39-10.35-3.8-5.91-4.9-11.47-10.23-18.19-14.07,0-36.83,0-73.66,0-110.48Zm6.48,111.7c-.32-1.64-1.69-2.44-2.54-3.63-.33-.46-.76-.83-1.3-.31-.57,.55,.07,.95,.28,1.37,.72,1.45,2.67,1.27,3.56,2.57Z"/><path d="M.05,652.33c9.53,3.19,19.12,6.19,28.57,9.6,19.44,7.01,36.39,17.99,50.38,33.21,7.61,8.28,13.74,17.62,15.2,29.14,1.06,8.39-.96,16.12-6.61,22.66-2.28,2.65-5.88,3.16-8.51,5.24-1.96,1.55-4.12,2.59-6.58,3.18-4.98,1.19-8.44-1.24-8.16-6.34,1.21-22.01-8.94-39.32-22.96-54.8-7.6-8.39-16.96-14.85-26.88-20.28-4.57-2.5-9.41-4.65-14.44-6.22,0-5.13,0-10.27,0-15.4Z"/><path class="cls-1" d="M.05,373.47c6.72,3.84,12.28,9.18,18.19,14.07,2.9,2.4,5.97,4.46,10.35,3.8-1.05-.64-2.23-.22-3.32-1.55,2.14,.49,3.85,.75,5.46,1.31,1.26,.43,.73,1.33,.18,2.12-1.47,2.11-3.3,3.94-5.01,5.81-4,4.38-5.35,9.66-6.15,15.21-1.19,8.22-.33,16.39,.69,24.57,.92,7.38,1.43,14.81-.2,22.16-1.83,8.26-5.56,15.69-10.33,22.62-2.74,3.99-6.3,7.23-9.87,10.45v-120.58Z"/><path d="M.05,119.03c2.96-1.69,6.48-1.4,9.59-2.65,.95-.38,2.05,.59,3.11,1.53-3.9,.16-7.21,.88-8.54,4.92-.23,.68-.11,1.19,.3,1.68-2.02-1.31-2.67-1.1-2.9,.92l.08-.03-1.65-1.05v-5.31Z"/><path d="M3.27,126.2l-3.22,.8v-.53l1.65-1.08-.08,.03c.48,.4,.87,1,1.65,.78Z"/><path class="cls-1" d="M1.7,125.39l-1.65,1.08c0-.71,0-1.42,0-2.12l1.65,1.05Z"/><path d="M573.41,890.16c0,1.81,0,3.57,0,5.33-.02,13.71-.06,27.41-.02,41.12,0,2.08-.14,3.02-2.81,2.94-4.99-.17-10.01-.26-15-.26-2.59,0-4.96,.69-7.26-1.09-.75-.58-1.41-.93-.78-2.1-1.33,.36-1.48,1.68-2.73,1.82-.22-2-1.35-2.82-3.36-2.17-2.17,.71-2.93-1.07-3.83-2.31-1.37-1.9-3.51-2.88-5-4.39-1.91-1.94-5.5-3.18-4.74-7.06,.2-1.01-.04-1.34-.76-.32-.55-.49-.77-1.39-.29-1.65,2.22-1.18,2.51-3.34,3.31-5.37,.49-1.22,2.23-1.73,3.26-2.85,1.96-2.13,4.35-3.81,6.46-5.82,7.58-7.24,16.98-11.31,26.97-14.17,2.1-.6,4.1-1.57,6.57-1.65Z"/><path d="M385.41,764.26c7.15,2.76,14.8,2.48,21.78,4.84,4.65,1.57,9.38,1.6,14.02,2.02,3.68,.33,7.6,.1,11.38,.07,3.26-.03,6.6-.42,9.86,.05,5.92,.86,11.84,.96,17.81,.92,2.48-.02,5.57,.87,7.74,.61,3.53-.42,6.8,.9,10.13,.35,5.02-.83,10.1-.35,15.14-.91,1.85-.21,3.8,.53,5.71,.84,5,.81,10,1.7,14.95,2.71,5.44,1.11,10.91,2.09,16.34,3.29,3.52,.78,7.15,1.45,10.63,2.18,7.47,1.57,14.05-.8,20.73-2.84,2.19-.67,4.5-2.15,6.44-3.68,1.15-.91,2.56-1.04,3.68-1.96,.72-.59,1.52,.03,1.53,1.07,.03,1.68,.03,3.36-.02,5.04-.03,1.22-1.06,1.46-1.95,1.87-7.42,3.44-15.15,6-23.04,8.1-4.67,1.24-9.31,1.22-13.93-.28-6.18-2.01-12.27-4.46-18.6-5.81-4.21-.9-8.69-1.12-12.79-2.36-8.23-2.5-16.48-1.97-24.85-1.67-6.7,.24-13.42-.37-20.13-.6-5.71-.19-11.43-.35-17.14-.58-2.28-.09-4.59-.69-6.81-.41-4.18,.52-8.3-.72-12.52,.1-4.84,.94-9.75-.23-13.99-2.45-6.5-3.4-13.37-5.86-20.05-8.79-.74-.32-1.74-.39-2.07-1.7Z"/><path d="M525.73,1019.51c7.08-3.14,14-5.44,21.13-7.14,6.19-1.48,12.42-2.51,18.81-1.72,.96,.12,1.92,.18,2.86,.39,4.8,1.06,5.74,2.61,4.76,7.49-.23,1.13-.89,1.22-1.72,1.11-4.86-.64-9.71-.26-14.58-.18-10.28,.16-20.57,.05-31.26,.05Z"/><path class="cls-1" d="M418.17,384.22c-1.44-.05-3.48-.62-1.46,1.98,.41,.52,.22,1.62-.46,1.85-1.24,.41-1.91,1.17-2.8,2.08-1.17,1.19-1.59-1.05-2.3-1.85-.01-.01-.07-.07-.16-.16,.24-1.06,1.88-.41,2.04-1.61-.96-.69-3.08-.21-2.95-1.03,.28-1.79-1.2-1.52-1.77-2.23,.43-1.05,1.09-.86,1.88-.42,.81,.45,1.59,1.12,2.64,.77,1.12-1.29,2.29-1.37,3.55-.18,.49,.46,.96,1.07,1.8,.79Z"/><path d="M357.2,804.41c-.1,.72-.21,1.94-.45,3.13-.14,.7-.54,1.37-1.33,1.45-.84,.08-1.22-.63-1.49-1.26-1-2.34-.94-4.78-.5-7.21,.15-.81,.74-1.41,1.65-1.44,.84-.03,1.22,.61,1.51,1.26,.52,1.14,.68,2.34,.61,4.08Z"/><path d="M277.18,819.79c.1,1.36-.52,2.46-1.72,2.97-1.49,.62-3.03,1.45-4.77,.84-.08-.03-.15-.08-.22-.14-.89-.73-.6-1.57-.17-2.37,1.13-2.09,2.87-3.33,5.27-3.32,1.07,0,1.71,.81,1.61,2.02Z"/><path d="M358.98,142.09l-.04,.09c2.89-.41,1.84-1.75,.73-3.1,1.21-.74,1.89,1.01,3.15,.7,.29-.07-.46,.89-.7,1.38-.38,.78-1.3,1.55,.42,1.83,.6,.1,1.14,.32,.32,.9-1.08,.77,.03,1.62-.14,2.4-.19,.86,1.34,1.56,.34,2.37-1.31,1.07-2.43,2.43-4.11,2.99-.02-.08-.05-.17-.05-.25,0-.09,.03-.17,.06-.26l-.02,.11c1.07-2.65,3.11-5.32-.17-7.91-.16-.12,.13-.81,.21-1.23Z"/><path d="M257.05,269.91c1.23-1.92,3.3-2.54,5.28-3.08,1.5-.41,2.55,.25,1.67,2.01-1.41,2.83-3.82,4.76-6.42,6.38-.99,.62-2.15-.12-1.97-1.24,.25-1.55,1.1-3,2.89-3.41,1.3-.3,1.61,.52,1.39,1.72,.42-.21,.62-.26,.72-.38,.78-.92,2.11-2,1.4-3.1-.8-1.25-2,.23-3.03,.45-.67,.14-1.32,.4-1.98,.6l.05,.05Z"/><path d="M257,269.86c-.76,1.91-2.87,2.48-4.02,4.03-.61,.83-1.92,1.62-1.53,2.57,.52,1.3,1.86-.03,2.83,.22,.31,.08,.67-.02,1.41-.06-1.89,1.73-3.87,2.6-5.95,2.76-2.03,.16-1.75-1.28-1-2.47,2.03-3.2,4.9-5.43,8.31-7l-.05-.05Z"/><path d="M143.45,165.53c-.91-.09-1.82-.11-1.88-1.37-.07-1.47,2.04-3.45,3.77-3.52,1.2-.05,1.96,.56,1.8,1.73-.27,2.08-1.83,2.86-3.7,3.16Z"/><path class="cls-1" d="M162.98,104.61c2.62-2.99,3.03-3.02,5.34-.11,.53,.67,1.54,.94,1.63,1.96,.01,.27,.03,.56,.04,.84l-.02,.02c-.94,.22-1.83-.04-2.72-.26l-1.26-.25c-1.57,.1-1.11-2.68-3-2.13h-.03v-.05Z"/><path d="M410.59,788.07c-2.63-.11-5.05-1.91-4.84-3.47,.1-.77,.48-1.3,1.37-1.27,1.36,.04,4.59,2.87,4.56,4.01-.03,1.05-.82,.63-1.1,.72Z"/><path d="M418.17,384.22c-.84,.28-1.31-.33-1.8-.79-1.27-1.19-2.43-1.12-3.55,.18-.2-.63-.33-1.27-1.07-1.6-1.53-.7-.83-1.51-.03-2.28l.55-.4c.9,.16,1.15,1.85,2.46,1.07l-.08-.05c.24,.68,.28,1.78,1.41,1.19,1.05-.55,1.35,.2,1.84,.74,1.07,.51,1.68,1.09,.27,1.94Z"/><path d="M265.81,129.05l-.09,.05c.4,.41,.97,.7,.59,1.47-.32,.65-.03,1.28,.64,1.4,.69,.12,1.06-.59,1.22-1.11,.17-.54,.02-1.18,.02-1.77l-.08,.05c.9,.52,2.3,.55,1.78,2.3-.29,.97,1.25,1.1,1.39,2.19-2.22,.37-4.31-.07-5.9-1.44-.8-.69-.38-2.16,.42-3.14Z"/><path class="cls-1" d="M359.68,139.07c1.12,1.35,2.16,2.69-.73,3.1-1.67-1.55-2.91-1.62-3.59,.92-.37,1.4-1.37,2.03-2.83,1.52-.6-.21-.76-.77-.34-1.28,.36-.43,.68-.73,1.03,.19,.35,.9,1.02,.36,1.33-.18,.34-.6,.63-1.29,.72-1.97,.25-1.78,.08-4,2.64-1.3,.5,.53,1.38-.37,1.87-1.01h-.1Z"/><path d="M426.42,756.45c-1.61-1.56-1.78,.7-2.69,1.01l.04,.08c-.18-.39-.39-1.11-.55-1.1-1.53,.09-2.55-.08-2.09-2.1,.07-.31-.72,.36-1.15,.49l.08,.04-.84-1.66c1.26,.04,3.25-2.13,3.43,1.14,.83-1.1,1.52-.51,2.32,.11,.72,.55,1.44,1.03,1.37,2.07l.08-.08Z"/><path class="cls-1" d="M277.12,128.43c.43-.54,.81-1.2,1.68-.78,.91,.44,1.26,1.26,1.16,2.15-.24,2.18,.34,2.55,1.96,1.02,.27-.25,.56-.54,.85-.19,.18,.21,.24,.63,.18,.92-.13,.58-.39,1.14-.59,1.71-.03,.21-.06,.42-.09,.62-1.36,.22-2.73-2.55-4.08,.01l.08,.06c.09-1.49,.12-2.99,.29-4.47,.14-1.3-.61-1.18-1.44-1.06Z"/><path d="M246.7,128.56c.38-.22,.66-.94,1.22-.25,.35,1.98,.54,3.88-2.6,3.88,.37,.53,.53,.8,.73,1.05,.47,.57,.94,1.4,.12,1.73-1.2,.49-.5-.89-.91-1.27-1.23-1.17-.68-3-1.57-4.31,1.62,1.95,2.32,.61,3-.84Z"/><path d="M480.17,953.14c-1.09,.01-2.08-.26-1.93-1.36,.19-1.42,1.27-2.24,2.72-2.41,1.02-.12,1.78,.24,1.71,1.4-.09,1.6-1.15,2.24-2.5,2.37Z"/><path d="M368.12,803.08c-.29,1.31-.09,3.11-1.96,3.46-.87,.16-.83-.99-.73-1.64,.24-1.47-.17-3.46,1.85-3.85,.85-.16,.74,1.17,.83,2.03Z"/><path class="cls-1" d="M229.44,127.21c-.61-1.43-.82-3.03-1.86-4.27-.33-.39-.48-.75,.04-1.04,.4-.22,.89-.22,1.13,.25,.32,.64,.66,1.19,1.32,1.55,2.58,1.42,1.5,2.58-.28,3.68-.11-.06-.23-.11-.34-.17Z"/><path class="cls-1" d="M394.56,371.66c.37,.35,.71,.75,1.13,1.04,.55,.38,.93-1.57,1.56-.19,.29,.64-.18,1.16-.8,1.47-.63,.32-1.12,1.48-1.98,.62-1-1-2.46-1.94-1.44-3.76l-.14,.15c.78-.16,1.36,.1,1.73,.81l-.07-.14Z"/><path class="cls-1" d="M299.45,136.61c-.66,.18-1.32,.43-1.99,.5-.64,.07-.98-.43-.94-1,.05-.68,.09-1.46,.45-1.98,.4-.57,1.01,.05,1.31,.35,.99,.97,2.19,1.5,4.04,1.49-1.27,1.35-2.18,.95-3.06,.75l.19-.11Z"/><path d="M412.27,379.32l-.55,.4c-1.38-.22-2.97-.21-3.95,.52-1.27,.94-2.35-3.23-3.19,1.07-.14-3.83,2.69-1.87,3.53-3.18,1.55,1.34,2.65,0,3.86-.65,.5,.55,.4,1.2,.3,1.85Z"/><path d="M174.84,114.56c.39-1.61-1.06-3.82,1.81-4.1,.47-.05,1.05-.06,.96,.53-.24,1.57-.58,3.16-2.77,3.57Z"/><path d="M34.34,125.36l-.09,.04c1.06,.36,2.81-.59,3.14,.43,.47,1.47-1.87,1.08-2.42,2.23-.2,.42-.66,1.24-1.41,.59-.56-.48-.39-1.08-.05-1.67,.31-.53,.56-1.09,.84-1.63Z"/><path class="cls-1" d="M347.5,158.29c2.03,.78,4.38,1.3,3.35,4.6-.57-.86-2.18,.1-2.33-1.58-.12-.37-.23-.74-.35-1.1-.22-.64-.44-1.29-.67-1.93h-.01Z"/><path d="M25.55,120.06s.09,.02,.21,.05c.86-.03,1.71,.41,2.57,.05-1.69,1.54,1.48,1.45,.86,2.67-1.42-.07-2.6-1.22-4.1-1.02-.93,.12-.63-.59-.66-1.04-.04-.85,.31-1.15,1.12-.71Z"/><path class="cls-1" d="M170,107.3c-.01-.28-.03-.57-.04-.84-.31-1.14-.62-2.29-.92-3.44,1,1.07,3.15,.83,3.2,2.53,.03,.92-.77,1.95-2.11,1.83l-.12-.07Z"/><path d="M277.12,128.43c.83-.12,1.58-.24,1.44,1.06-.16,1.48-.2,2.98-.29,4.47-1.63-1.69-1.76-3.67-1.07-5.79-.02,.09-.05,.18-.09,.26Z"/><path d="M408.3,383.25c.58,.71,2.05,.44,1.77,2.23-.13,.82,1.99,.33,2.95,1.03-.15,1.2-1.8,.56-2.04,1.61-.31-.32-.62-.63-.92-.95l.19,.13c-1.69-.85-1.53-2.59-1.96-4.05Z"/><path d="M275.58,134.13c-1.01-1.1-2.24-1.65-4.21-2.01,1.3-.47,.85-2.27,2.13-1.81,1.57,.56,2.04,2.16,2.08,3.83Z"/><path d="M365.2,146.52c2.5,.16,1.01,2.67,2.21,3.56-.24,.22-.44,.54-.72,.65-.47,.17-.82-.16-1.13-.49-1.09-1.16-.57-2.44-.36-3.72Z"/><path d="M410.26,387.3l-.19-.13c.2,1.02,.41,2.04,.64,3.23-1.74-.22-2.74-1.9-5.11-1.12,1.74-1.68,3.26-1.67,4.66-1.98Z"/><path d="M25.09,125.77l2.32-2.6c.37,1.47-.34,2.23-.67,3.03-.29,.7-.48,1.34,.06,1.93,.3,.32,1.21,.43,.56,1.02-.56,.5-1.13,.03-1.34-.66-.31-1-.59-2-.88-3-.02,.09-.03,.18-.04,.28Z"/><path d="M202.6,173.8c-.24,.9-.57,1.79-1.58,1.84-.84,.04-1.51-.44-1.41-1.44,.11-1.08,.77-1.81,1.81-1.84,.75-.02,1.11,.71,1.18,1.44Z"/><path d="M25.09,125.77c0-.09,.02-.19,.04-.28-1.21,.8-2.63,.54-4.14,1.02q2.37-3.26,4.1-.74Z"/><path class="cls-1" d="M36.42,124.34c-1.23-.45-2.45-.98-3.24-2.06-.4-.54-.67-1.34,.33-1.7,.69-.25,1.23-.13,1.19,.78-.05,1.32,1.9,1.62,1.57,3.08l.16-.11Z"/><path d="M77.19,117.99v-3.35c.83-.08,1.7,0,1.98,.8,.52,1.44-1.22,1.66-1.98,2.56Z"/><path class="cls-1" d="M246.7,128.56c-.67,1.45-1.37,2.79-3,.84-.06,.01-.09-.03-.1-.15-.82,.45-1.64,.89-2.77,1.5,1.44-2.9,3.93-1.74,5.87-2.19Z"/><path class="cls-1" d="M3.27,126.2c-.78,.22-1.17-.38-1.65-.78,.22-2.02,.87-2.23,2.9-.92,.06,.93-.82,1.14-1.24,1.69Z"/><path class="cls-1" d="M28.33,120.16c-.86,.36-1.71-.08-2.57-.05,1.32-2.06,3.28-1.76,5.3-1.35-.95,.49-1.91,.99-2.86,1.48l.13-.08Z"/><path d="M217.9,343.23c.22,.41,.43,.62,.43,.83,.04,1.28,.53,2.69-.75,3.68-.33,.25-.75-.07-.8-.4-.22-1.46-.33-2.91,1.11-4.12Z"/><path class="cls-1" d="M415.09,397.59c1.72-.65,2.12,.35,2.64,1.76,.53,1.43-.76,1.05-1.06,1.17-.71,.3-1.75,.44-.81-.99,.56-.85-.51-1.34-.76-2.03l-.02,.09Z"/><path d="M420.63,758.78s.09-.06,.14-.17c.87-.72,1.77-1.36,3-1.08l-.04-.08c-.06,.52-1.04,.41-.79,1.13,.19,.53,1.62,.56,.71,1.48-.77,.78-1.4-.15-2.04-.46-.37-.18-.66-.55-.98-.83Z"/><path class="cls-1" d="M411.97,377.47c-1.21,.65-2.31,1.99-3.86,.65l-.1,.2c.7-.73,1.74-.86,2.5-1.65,1.08-1.13,1.31,0,1.43,.91l.02-.11Z"/><path class="cls-1" d="M162.98,104.61v.06c-.16,.08-.3,.16-.44,.24-1.94,.32-1.11-1.28-1.29-2.04-.11-.47,.48-.92,1.09-.68,1.28,.5,.6,1.57,.64,2.42Z"/><path d="M163,104.66c1.89-.55,1.43,2.23,3,2.13-.27,.46,.4,1.37-.65,1.43-.75,.04-1.47-.25-1.55-1.08-.09-.9-.42-1.68-.79-2.47Z"/><path d="M147.47,112.88c.06-1.65-.3-2.67,.58-3.63,.41-.45,.76-.7,1.32-.44,.29,.14,.75,.35,.77,.56,.09,.9-.71,.48-1.12,.62-1.1,.4-.56,1.69-1.55,2.89Z"/><path class="cls-1" d="M239.08,755.09l-1.79-2.03c1.61,.29,2.36-.88,3.75-.75-.22,1.25-1.09,1.89-1.86,2.6-.04,.01-.08,.07-.09,.18Z"/><path d="M151.59,104.96c-.48,.33-.93,.76-1.46,.96-.53,.21-1.15,.49-1.73,.13-.39-.23-.24-.61-.09-.91,.34-.67,.84-1.12,1.65-.84,.56,.19,1.1,.46,1.66,.7,0,0-.03-.04-.03-.04Z"/><path class="cls-1" d="M419.22,753.22l.84,1.66c-.09,.01-.17,.05-.26,.03-.95-.16-1.75,2.07-2.52,.53-.69-1.39,1.06-1.68,2.03-2.17l-.09-.04Z"/><path d="M167.26,107.05c.9,.22,1.79,.48,2.72,.26-.21,1.63-2.82,1.21-2.48,3.38-.83-1.36,1.06-2.52-.25-3.64Z"/><path d="M252.69,131.26c.13-.11,.27-.23,.4-.34,.08,.03,.18,.03,.24,.09,1.04,.9,.34,1.7-.16,2.49-.22,.36-.62,.37-.87,.07-.75-.89-.08-1.59,.39-2.31Z"/><path d="M52.52,124.95c-.74-.11-1.06-.57-1.1-1.25-.06-.9,.38-1.28,1.27-1.18,.66,.08,1.12,.3,1.15,1.11,.04,1-.76,1.01-1.32,1.32Z"/><path d="M426.34,756.53c.66-.1,.95-1.28,1.7-.78,.34,.23,.68,1.02,.12,1.63-.44,.48-.98,.92-1.57,.67-.77-.34-.27-1.04-.17-1.6l-.08,.08Z"/><path d="M185.79,115.51c-2.19-.79-3.22-.39-3.49,1.37,.15-2.88,.68-3.18,3.49-1.37Z"/><path d="M278.2,133.9c1.35-2.56,2.72,.21,4.08-.01-1.36,1.19-2.72,.54-4.08,.01Z"/><path d="M410.83,392.43c.48,0,.67,.31,.69,.66,.04,.71-.39,1.15-1.05,1.3-.51,.12-.91-.15-.81-.7,.12-.62,.65-.98,1.16-1.26Z"/><path d="M266.46,145.87c.22,.15,1.02-1.85,1.85-.43,.14,.24,.12,.8-.06,.96-1.11,.98-1.62-.54-1.79-.53Z"/><path d="M101.27,107.84h0Z"/><path class="cls-1" d="M499.15,370.55c.58-.02,1.86,2,1.33-.5-.08-.37,.43-.6,.72-.19,.96,1.38,1.73,.46,2.61-.11,.5-.32,1.14-.65,1.71-.14,.79,.72,.03,.97-.44,1.35-1.04,.84,.35,1.08,.48,1.65,.24,1.02,.85,2.03-.43,2.78-1.25,.73-2.04-.08-2.51-1-.77-1.53-2.7-1.13-3.59-2.37-.25-.35-.65-.67-.4-1.14,.1-.19,.41-.26,.53-.33Z"/><path class="cls-1" d="M422.14,370.76c-1.04-.46-.5-.9,.03-1.31,.82-.65,1.27-1.54,.19-2.1-1.18-.6-.45,1-1.04,1.25-.24,.1-.44,.26-1.11,.66,.94-2.37,.15-4.41,.3-6.47,.6,.35,1.34-.73,1.99,.41,.9,1.57,2.2,1.32,3.38,.12-.3,.43-.64,.83-.9,1.28-.39,.68-.93,1.57-.32,2.17,.99,.98,1.12-.59,1.74-.84,.58-.23,1.13-.45,1.79-.27-1.93,1.87-4.64,2.79-6.12,5.16l.07-.08Z"/><path class="cls-1" d="M358.98,142.09c-.08,.42-.36,1.1-.21,1.23,3.27,2.59,1.24,5.26,.17,7.91-.81-3.06-3.26-.02-4.56-1.51,.53-1.13,1.48-1.94,3.04-1.88,.07-.34,.15-.69,.23-1.04-.18-1.74-.11-3.42,1.33-4.7Z"/><path d="M425.87,363.32c-1.18,1.2-2.48,1.45-3.38-.12-.65-1.14-1.39-.06-1.99-.41l.07,.07q-1.61-1.45-1.07-4.57c.85,.07,1.17,1.59,2.32,.87,.44-.07,.88-.14,1.33-.21-.62,2.2,1.45,2.09,2.47,2.87,.4,.45,.52,.94,.25,1.5Z"/><path class="cls-1" d="M334.65,120.17c1.77-.39,3.46-1.58,4.67,.58,.2,.36,.72,.94-.12,1.3-2,.84-3.34-.11-4.55-1.88Z"/><path class="cls-1" d="M136.64,102.7c.71,.09,1.32,.04,1.82,.26,.86,.38,1.59-1.61,2.46-.06,.73,1.29-.76,2.14-.58,3.42,.1,.68-1.15,0-1.78,.32-.29,.15-.63-.52-.42-.72,2.53-2.43-1.05-1.85-1.51-3.22Z"/><path class="cls-1" d="M346.79,127.68c2.2-2.41,2.6-2.31,6.99,1.38-2.61,.55-4.34-2.71-6.99-1.38Z"/><path class="cls-1" d="M510.37,377.13c-1.32-.55-2.66-1.04-4.2-.94,1.17-.13,.92-3.04,3.35-1.22,1.08,.81,2.09,.23,1.56,1.67-.09,.23-.55,.33-.84,.49h.13Z"/><path class="cls-1" d="M41.63,121.55c-1.64,.07-3.23,.79-5.19,.35l2.46-1.73c-.31-.99-1.84-.51-1.8-2,2.21,.32,3.45,1.71,4.46,3.44l.07-.06Z"/><path class="cls-1" d="M419.51,358.29q-.54,3.13,1.07,4.57c-1.14,.43-2.1,2.23-3.05,1.67-1.14-.68,.33-2.2,.21-3.48-.09-.97,.03-2.59,1.76-2.77Z"/><path class="cls-1" d="M308.96,138.42c2.93-1.92-.89-1.83,.17-3.02,2-.75,2.98,1.37,5.16,1.97l-5.33,1.06Z"/><path class="cls-1" d="M493.59,376.91l-1.27-1.33q2.17-.3,2.57-3.41c1.65,2.29,1.19,3.91-1.35,4.72l.04,.03Z"/><path class="cls-1" d="M354.12,161.28c-1.13-.89,.34-2.67-1.56-3.08-.36-.08,.21-.74,.57-.85,.39-.12,.58-1.03,.89-.53,.33,.53,1.29,.76,.99,1.66-.29,.89-.57,1.78-.89,2.81Z"/><path class="cls-1" d="M340.65,124.88c1.7,0,.07-3.08,2.18-2.32,1.22,.44,.68,1.55,.45,2.22-.62,1.77-1.64-.74-2.63,.09Z"/><path class="cls-1" d="M357.65,146.79c-.08,.35-.15,.7-.23,1.04-1.37-.09-2.07-1.93-3.73-1.33,1.5-1.33,2.79-1.19,3.96,.29Z"/><path class="cls-1" d="M411.97,377.47l-.02,.11c.26-.53,.52-1.06,.95-1.91,.35,1.86,1.89,2.93,1.84,4.72-1.31,.78-1.56-.91-2.46-1.07,.1-.65,.2-1.3-.3-1.85Z"/><path class="cls-1" d="M352.93,135.6c1.37-.79,2.12-2,3.01-3.09,.57,.54,1.17,1.58,.99,1.67-1.27,.61-2.65,.98-3.99,1.43Z"/><path class="cls-1" d="M417.9,382.28c-.49-.53-.79-1.28-1.84-.74-1.13,.59-1.16-.52-1.41-1.19,2.32-1.58,2.88-1.24,3.25,1.93Z"/><path class="cls-1" d="M425.62,361.82c-1.02-.79-3.09-.67-2.47-2.87,.08-.06,.16-.11,.24-.15,2.13-.01,1.43,2.06,2.23,3.03Z"/><path class="cls-1" d="M133.12,103.83c-.32-1.29-1.88-.71-2.45-1.62,.04-.08,.07-.2,.11-.2,1.18-.1,2.35-1.65,3.37-.71,1.23,1.14-1.72,1.24-1.06,2.57,0,0,.04-.04,.04-.04Z"/><path class="cls-1" d="M268.2,129.09c0,.59,.15,1.23-.02,1.77-.16,.52-.53,1.23-1.22,1.11-.67-.12-.97-.75-.64-1.4,.38-.78-.19-1.07-.59-1.47,.82,0,1.65,0,2.47-.01Z"/><path class="cls-1" d="M423.39,358.79c-.08,.04-.16,.1-.24,.15-.44,.07-.88,.14-1.32,.21,.38-.8-.6-1.13-.81-1.89,1.25-.06,2.38-.17,3.17,.7,.24,.26-.45,.61-.8,.82Z"/><path class="cls-1" d="M415.37,374.2c.68,0,1.11,.24,1.03,1.06-.06,.58,.18,1.33-.65,1.48-.91,.16-1.12-.69-1.33-1.29-.25-.72,.22-1.11,.95-1.25Z"/><path class="cls-1" d="M488.27,375.02c.15,.78-.26,1.79,.8,2.19,.2,.08-.31,.74-.76,.74-.84,.01-1.16-.59-1.36-1.32-.25-.96,.47-1.17,1.32-1.62Z"/><path class="cls-1" d="M279.11,112.86c.33-2.3-2.27-1.59-2.94-2.95,3.3,.45,3.48,.62,2.94,2.95Z"/><path class="cls-1" d="M210.62,117.73c1.42,.26,2.89,.03,4.34,.06-1.53,.88-2.98,.91-4.34-.06Z"/><path class="cls-1" d="M430.17,362.38c1.62-1.61,3,0,4.34-.24-1.23,1.19-2.64,.28-4.34,.24Z"/><path class="cls-1" d="M419.24,391.96c-.05,1.34,1.42,1.65,1.85,2.73q-2.15-.29-1.85-2.73Z"/><path class="cls-1" d="M412.15,373.37c-.14,.21-.25,1.21-.51,.37-.4-1.32-1.69,1.29-1.56-.51,.04-.64,.31-1.27,1-1.33,.99-.08,.93,.79,1.07,1.47Z"/><path class="cls-1" d="M322.97,146.32c.93-2.48,2.19-1.4,3.57-.44-1.2,1.67-2.56-1.1-3.63,.36l.06,.08Z"/><path class="cls-1" d="M324.62,136.18c-.15,.58,.06,1.35-.81,1.44-.78,.08-1.06-.56-1.22-1.11-.27-.96,.65-.79,1.13-.99,.65-.26,.99-.04,.9,.66Z"/><path class="cls-1" d="M427.84,359.11c.27-1.15,.83-1.85,1.97-1.63,.16,.03,.41,.46,.36,.62-.37,1.17-1.61,.49-2.33,1Z"/><path class="cls-1" d="M422.07,370.83c1.17,.17,2.3-.64,3.48-.07-1.15-.48-2.2,3.06-3.41,0l-.07,.07Z"/><path class="cls-1" d="M493.54,376.88c-.99,.1-1.91,1.13-2.87,.45-.3-.21-.44-1.31,.35-1.94,.83,.49,1.43,1.48,2.56,1.51,.01,0-.03-.02-.03-.02Z"/><path class="cls-1" d="M510.37,377.13h-.13l-.03,.15,.16-.15Z"/><path d="M347.5,158.29h0Z"/><path class="cls-1" d="M394.56,371.66l.07,.14-.07-.14Z"/><path class="cls-1" d="M390.39,716.15c-1.09-1.9-.37-3.06,1.25-4.41,6.14-5.12,10.75-11.47,13.66-18.92,1.84-4.71-1.53-8.43-7.32-8.2-5.22,.21-10.21,1.73-15.18,3.2-8.14,2.41-15.53,6.49-23.05,10.32-8.21,4.18-16.9,6.92-26.3,6.81-2.47-.03-4.89,.7-7.26,1.39-1.21,.35-2.52,.49-3.52-.18-1.83-1.23-3.77-.86-5.57-.43-1.01,.24-2.17,.76-3.02,.46-2.59-.92-4.34,1.57-6.68,1.37l.1,.06c-.09-.87-.4-1.44-1.31-.72-1.33,1.05-.93,3.49,.68,4.32-4.05,1.14-7.82,.42-11.43-1.61-1.8-1.01-3.6-1.72-3.43-4.48,.08-1.3-5.79-3.8-7.27-3.41-.51,.13-1.01,.39-1.49-.07,.15-1.27,2.92-1.91,.81-3.81-.59-.53-.91-.63-1.52-.41-.4,.15-1.13,.46-1.14,0-.02-2.22-2.3-1.46-2.92-2.31-1.02-1.4-1.87-.91-3.08-.78-2.15,.23-4.34,.12-6.51,.15-.17,0-.42-.11-.51-.03-2.64,2.25-6.45,1.11-9.21,3.31-1.37,1.09-3.3,1.51-4.72,2.72-1.22,1.04-2.05-.06-3.19-.78,2.29-1.17,1.28-3.18,1.39-4.88,.16-2.6,.12-5.21,.23-7.81,.02-.48,.02-1.15-.41-.94-1.96,.95-2.51-1.64-4.49-1.54-1.96,.1-.72-2.15,.05-2.6,1.74-1.03,1.57-2.26,.77-3.52-.91-1.44,1.87-2.11,.23-3.55-1.38,.15-2.99,1.16-4.76,.45-.13-.75,.3-.94,.9-.88,.68,.07,1.49,.53,1.95-.18,.58-.89-.32-1.64-.82-2-2.35-1.67-.06-3.93-.86-5.75,2.83-.32,1.66-1.41,.57-2.64-.4-.45,.22-.74,.65-.87,.55-.16,1.24-.59,1.03-1-.81-1.55,.82-2.01,1.07-2.88,1.01-3.52,3.98-5.96,4.9-9.34,.68-2.49,2.72-3.57,4.14-5.25,.5-.59,.8-1.28,1.17-1.86,.99-1.56,2.33-2.4,3.99-3.04,1.13-.43,1.2-1.83,1.89-2.72,.35-.45,.35-1.28,1.11-1.25,1.74,.07,2.67-1.36,3.98-1.94,2.81-1.25,4.2-4.81,7.78-4.65,1.02-2.87,3.8-1.01,5.55-2.08,3.1-1.9,6.75-2.55,10.02-4.08,.65-.3,.93-.03,1.39,.12,.77,.26,1.72,.53,2.3-.04,2.74-2.7,6.66-1.37,9.69-2.98,.23-.12,.54-.32,.72-.24,2.51,1.04,5.16,.18,7.71,.36,1.81,.13,3.84-1.55,6.07-1.5,2.43,.05,4.83-1.37,7.29-.11,.15,.08,.38,.13,.52,.07,4.36-1.93,7.58,1.78,11.44,2.35,3.18,.47,6.26,1.37,9.53,1.6,4.6,.33,9.34,1.15,11.86,5.78,1.34,2.46,.57,5.22-.08,7.76-1.81,7.01-4.13,13.9-5.57,20.98-1.46,7.21-1.54,14.61,1.39,21.57,1.74,4.13,5.3,6.22,9.76,6.72,6.52,.73,12.83-.62,19.16-1.85,4.49-.88,8.88-2.28,13.52-2.4,5.19-.13,9.28,2.08,10.18,5.83,.67,2.81-.31,5.42-1.45,7.93-2.73,5.99-7.27,10.63-11.84,15.17-2.1,2.09-3.97,4.49-6.57,6.06l.07,.06Z"/><path class="cls-1" d="M363.74,721.75c.06-.63,.59-.82,1.03-1.03,3.43-1.63,6.54-3.69,9.16-6.48,.99-1.06,2.26-1.61,3.8-1.49,2.63,.2,4.24-2.27,7.12-2.82-5.84,6.71-12.54,10.89-21.1,11.82Z"/><path class="cls-1" d="M274.95,585.93c-1.7-.07-3.26-.32-4.56-1.38-.87-.7-1.51-1.63-1.12-2.77,.43-1.25,1.6-1.68,2.78-1.55,1.76,.18,3.49,.6,5,1.59,.89,.58,1.89,1.16,1.61,2.47-.28,1.32-1.41,1.42-2.48,1.54-.44,.05-.88,.07-1.24,.09Zm3.47-1.72c-2.27-1.48-4.17-2.07-6.17-2.36-.67-.1-1.57-.15-1.76,.73-.16,.74,.43,1.35,1.06,1.69,2.07,1.13,4.17,.91,6.88-.06Z"/><path class="cls-1" d="M389.35,704.81c2.26-2.06,4.8-3.82,6.47-6.51,1.71-2.75,1.29-4.48-1.52-5.92,1.37-.53,2.64-.4,3.38,.44,.93,1.06,.83,2.29,.3,3.48-1.76,3.94-4.82,6.61-8.63,8.51Z"/><path class="cls-1" d="M341.46,735.88c-3.57,2.6-7.34,4.15-11.17,5.59-.48,.18-1.34,.5-1.51-.39-.17-.87,.91-1.49,1.26-1.41,3.99,.91,6.2-2.71,9.45-3.61,.49-.14,.91-.55,1.97-.17Z"/><path class="cls-1" d="M307.39,707.56c.28,.45,.54,.9,.83,1.34q1.31,1.96,3.22,.38c.59,1.62,.14,2.32-1.63,2.18-1.02-.08-2.04-.63-3.09-.15-.16-.63,1.77-1.25-.04-1.99-.31-.13-.71-1.68,.8-1.7l-.1-.06Z"/><path class="cls-1" d="M423.77,757.54c-1.23-.28-2.13,.35-3,1.08,.28-1.37-1.87-2.24-.79-3.78,.42-.14,1.22-.8,1.15-.49-.45,2.01,.56,2.19,2.09,2.1,.16,0,.36,.72,.55,1.1Z"/><path d="M307.49,707.61c-1.52,.01-1.11,1.57-.8,1.7,1.81,.74-.12,1.36,.04,1.99l.13-.09c-1.61-.84-2.01-3.27-.68-4.32,.91-.72,1.22-.15,1.31,.72Z"/><path class="cls-1" d="M284.71,703.27c1.76-.4,2.7,.42,3.1,1.99-1.05-.63-1.55-2.1-3.1-1.99Z"/><path class="cls-1" d="M6.53,374.68c-.89-1.29-2.84-1.12-3.56-2.57-.21-.42-.85-.82-.28-1.37,.54-.52,.97-.15,1.3,.31,.85,1.19,2.21,1.99,2.54,3.63Z"/><path d="M278.42,584.21c-2.71,.97-4.81,1.19-6.88,.06-.62-.34-1.22-.95-1.06-1.69,.19-.88,1.09-.83,1.76-.73,2,.29,3.91,.88,6.17,2.36Z"/></g></g></svg>