<?xml version="1.0" encoding="utf-8"?>
<!-- Generator: Adobe Illustrator 26.3.1, SVG Export Plug-In . SVG Version: 6.00 Build 0)  -->
<svg version="1.1" id="Layer_2_00000079470410261218394250000004268627447764534151_"
	 xmlns="http://www.w3.org/2000/svg" xmlns:xlink="http://www.w3.org/1999/xlink" x="0px" y="0px" viewBox="0 0 574 1020.5"
	 style="enable-background:new 0 0 574 1020.5;" xml:space="preserve">
<style type="text/css">
	.st0{fill:#171717;}
	.st1{fill:#F5F5F5;}
</style>
<g id="Layer_1-2">
	<g>
		<path class="st0" d="M0.1,652.3c0-41.1,0-82.2,0-123.2c4.7-8.4,10.1-16.4,17.2-23c7.7-7.3,15-14.7,19.8-24.5
			c4.5-9.2,9-18.1,9.7-28.6c0.7-9.7,1.3-19.4,1.1-29.1c-0.3-11,0.5-21.8,5-31.9c3.2-7.4,5.2-14.8,4.3-22.8c-0.3-2.9-0.3-5.8-1.5-8.5
			c-0.5-1.1-1.3-2.6-3-1.7c-1.5,0.8-1.3,2.1-0.7,3.5c0.7,1.4,1.4,2.9,1.6,4.5c0.1,1.1,0.1,2.3-1,2.8c-1.1,0.5-2.1-0.4-2.7-1.2
			c-2.3-3.3-5.4-5.4-9.2-6.9c-3.6-1.4-4.6-5.1-2.2-8.2c1.5-2,2.2-4.2,2.1-6.7c-0.2-5,0.5-9.8,1.6-14.7c1.1-5.1,3.4-8.9,8.9-9.8
			c0.4-0.1,0.9-0.1,1.1-0.9c-2.2-0.5-4.1-1.5-5.3-3.5c-1.7-2.8-3-5.8-3.5-9.1c-0.6-4.2-0.9-8.4-1.9-12.5c-2-7.8-7.3-13.4-12.6-19
			c-3.6-3.9-8.1-6.5-13.1-8.3C10.6,267,5.3,265,0.1,263v-43.6c1,0.1,1.9,0.2,2.9,0.2c9.9,0,19.6,1.1,29,4c9.4,2.9,17.9,7.3,24,15.1
			c4.9,6.3,9.1,13,12.2,20.4c4,9.4,7,19,7.6,29.3c0.4,6.3,1.7,12.6,3.4,18.7c0.4,1.6,1.4,2.7,3.7,2.6c-2.6,1.4-4.6,2.8-5.6,5
			c-3.3,7.6-4.2,15.3-1.2,23.2c1.4,3.8,3,7.6,4.9,11.1c5.6,10.2,6.3,20.9,4,32.1c-1.6,8-4.8,15.8-4.7,24.1
			c0.1,5.2-0.8,10.5,2.1,15.2c0.5,0.8,0.3,1.7,0.1,2.6c-2.1,8.8-1.4,17.6,0.9,26.2c1.1,4,1.3,8.1,0.4,12c-2.1,9.7-6,18.8-10.4,27.7
			c-5.4,11-12,21.3-16.7,32.5c-5.1,12.2-10.6,24.1-17.1,35.6c-1.3,2.3-2.5,4.8-3.8,7.1c4.3-4.8,6.7-10.8,10.5-16
			c0.7,0.8,0.2,1.3,0,1.7c-2.6,6.1-5.2,12.2-7.9,18.2c-1.3,2.7-1.6,5.7-3.4,8.3c-2.3,3.3-4.1,6.8-5.1,10.8c-1.3,5.3,1.4,12,6.3,13.7
			c1.8,0.6,3.8,0.9,5.5,1.8c8.9,4.9,18.1,9,27.4,13.2c15,6.7,30.3,12.5,45.9,17.5c10,3.2,20,6.3,29.3,11.2
			c10.8,5.7,18,14.2,19.4,26.8c0.5,4.8,1.5,9.6,2.9,14.2c2.5,7.9,3.8,16,4.9,24.1c1.1,7.6,0.1,15.2,0.2,22.8
			c0.3,17.4-2.7,34.4-6.2,51.4c-1.1,5.2-2.3,10.3-2.5,15.6c-0.1,1.9-1.1,4.6,1,5.8c1.4,0.8,3.1,1.9,5,1.9c0.7,0,1.4,0.2,2-0.4
			c2.1-2.4,5.2-3.7,7.4-6.1c3.6-4.1,7.2-8.2,10.4-12.6c3.3-4.5,6.6-8.9,9.9-13.3c2.6-3.6,5.3-7.3,7.9-10.9c0.9-1.2,2.1-2,3.4-1.2
			c1.8,1.2,3.2,0.7,4.7-0.2c5.3-3.4,11.5-4.5,17.4-6.5c2-0.7,4.1-2.2,6.5-1.3c0-0.1,0.1-0.2,0.1-0.2c1.6-0.9,3.2-1.9,4.8-2.6
			c0.9-0.4,2.2-2.8,3.7-0.5c0.3,0.5,0.9,0.1,0.9-0.4c0-1,0.5-1.2,1.1-0.5c0.8,1,1.7,0.7,2.8,0.7c1.2-0.1,3.1-0.4,3.5,0
			c2.2,2.1,2.2-0.3,2.5-1.2c0.4-1,1.2-1.2,1.8-1.7c1.6,2.2,2.4-0.6,3.6-0.6c1.5,0,2.9-1.4,4.3-1.1c2.8,0.7,4-0.6,4.6-2.9
			c0.6,0.3,1.1,0.6,1.5,0.8c1,0.5,1.9,1.4,3.2,0.3c1.3-1.1,2.5-0.8,2.8,1.1c0.4,2.4,2.5,3.4,4,4.8c2.2,2.2,5.4,0.2,7.7,1.9
			c0.3-0.9,0.9-1.3,1.3-0.2c0.3,0.8-0.6,1.1-1.4,1.1c-0.6,0-1.1,0.1-1.1,0.8c0,0.6,0.6,0.5,1,0.7c0.8,0.6,1.5,0.8,2.5,0.1
			c1.6-1.1,3.4-1.6,5.3-1.1c0.9,0.2,1.3-0.4,1.8-0.9c1.3-1.2,1.7-0.5,1.8,1.2c0.8-1.4,1.5-2.1,3-2c2.6,0.2,5.4,0.2,7.8-1.4
			c-0.4-0.5-1.9-0.5-1.1-1.6c0.3-0.4,1.2-1.2,2-0.3c0.5,0.6,0.9,0.5,1.1-0.2c0.6-1.4,1.2-2.6,2.7-0.7c0.3,0.3,1,0.1,1.1-0.3
			c0.9-2,1.6-0.3,2.7,0.2c-0.4-1.5-0.3-2.3,1.7-2.1c1.9,0.2,3.8-0.7,4.9-2.3c0.2-0.3,0.2-0.9,0.8-0.9c2.1,0.1,3.6-1.5,5.3-2.4
			c5.4-3,10.5-6.4,16.3-8.5c3.9-1.4,7.8-3,12-4.7c-0.9,2-2.7,2.1-4,2.9c-2.5,1.5-2.9,4.3-4.4,6.4c-0.2,0.3,0.7,1.7,1.3,2.4
			c0.4,0.6,0.1,1,0.1,1.5c0,3.9,3.8,8,7.7,8.2c1.4,0.1,2.2,0.6,2.9,1.8c1.1,1.8,2.5,3.4,3.9,5c1,1.2,2.7,1,3.9,0.9
			c1-0.1,0.6-1.9,0.5-2.8c-0.6-3.2,0.9-6.1,1.3-9.1c1.3-10.2,5.6-19.2,11.6-27.5c0.6-0.8,1.1-1.6,2.3-1.2l-0.1,0
			c-0.5,0.6-0.9,1.3-1.4,1.9c-4.1,5.7-7.7,11.5-8.2,18.8c-0.2,3,0.6,5.9,1.3,8.8c0.7,3,2.8,5.4,5.9,6.7c0.9,0.3,1.6,1.1,2.3,1.7
			c2.7,2.3,5.7,4.3,9.3,4.3c3.2,0,6.4,0.3,9.5,0.7c2.8,0.3,5.7,1.5,8.8,1.9c2.3,0.3,2.6-0.4,2.8-2.1c0.3,0.3,0.6,0.6,1,0.8
			c0.6,0.3,1.3,1.2,2,0.5c0.9-0.9-0.5-1-0.7-1.5c-0.3-0.7,0.7-0.6,0.8-1.1c0.9-0.3,1.1-2.6,2.7-1c-0.1,0.6-0.6,1.3,0.2,1.6
			c0.6,0.3,1.1-0.2,1.6-0.7c0.6-0.6,0.2-1.4-0.1-1.6c-0.7-0.5-1,0.7-1.7,0.8c0.1-1-0.7-1.5-1.4-2.1c-0.8-0.6-1.5-1.2-2.3-0.1
			c-0.2-3.3-2.2-1.1-3.4-1.1l0.1,0c-1.5-0.5-2.8-2-4.6-0.6c-0.3,0.2-1.9-0.3-2.1-0.8c-0.8-1.8-3.9-1.4-3.9-4c0-0.2-0.8-0.8-1-0.7
			c-1.4,0.4-1.6-0.6-1.9-1.4c-0.2-0.5-0.3-1.1-0.9-1.2c-3.4-0.5-3.9-3.7-5.3-5.8c-2.1-3.3-3-7-3.1-11.1c-0.1-4.5,0.5-8.6,2.6-12.3
			c2.4-4.1,5.4-7.8,8.2-11.6c2.3-3.2,4.3-6.5,5.6-10.2c2-5.8,0.5-10.5-4.3-12.9c-3.1-1.6-6.6-1.6-10.1-1.3
			c-4.4,0.4-8.7,1.4-13.1,1.4c-5.4,0.1-10.8-0.1-16.2-0.3c-3.4-0.2-8-4.2-8.4-7.6c-0.5-3.8-0.7-7.6-0.9-11.4
			c-0.2-4.7,1.4-9.1,2.1-13.7c0.5-3.1,2.3-5.7,2.9-8.8c0.6-3.1,1.5-6.2,1.9-9.4c0.5-3.5,2-6.9-0.3-10.3c-0.8-1.2-1-2.5-0.6-3.9
			c0.2-0.7-0.2-1.1-0.5-1.7c-3.4-6.3-8.9-10.6-14.4-14.9c-2.9-2.2-5.8-4.5-8.4-7c-3.7-3.5-7.6-6.9-11.6-10
			c-4.8-3.7-10.1-6.8-14.9-10.5c-7.6-5.9-16.4-9-25.5-11c-6.3-1.4-12.7-2-19.1-2.4c-1.4-0.1-2.8-0.6-4.2-0.7
			c-3.4-0.3-6.7-1.1-10-1.2c-4.8-0.2-8.5-2.4-12.3-4.6c-0.6-0.3-0.8-1.1-0.8-1.9c0-0.4-0.2-0.8-0.3-1.3c-2.8,0.8-3.1-2.1-4.4-3.3
			c-1.9-1.8-4.9-2.8-5.1-6c-0.1-2.3-1.6-2.5-3.3-2.5c-0.5-0.8,1.2-1.6-0.4-2.5c-2.7-1.5-5.3-3.1-8.2-4.3c-2.2-0.9-5.3-1.2-6.5-4.1
			c-0.2-0.5-0.7-1.1-1.1-1.4c-2.6-1.8-5.2-3.6-6.9-6.5c-2.9-4.8-3.6-9.9-2.7-15.2c0.9-4.9,2.5-9.7,3.7-14.5c2.2-8.6,4.2-17.2,5.6-26
			c0.6-3.7,1.5-7.4,2.3-11.1c1-5,2.2-10,2.5-15.2c0.2-3.5-0.2-7,0.8-10.4c0.2-0.8,0.2-1.6-0.5-2.1c-1.1,3-2.8,3.7-5.7,2
			c-3.2-1.9-5.6-4.9-6.8-8.2c-2.6-7-3.4-14.4-3-21.8c0.3-6.2,0.2-12.4,1.3-18.5c0.6-3.3,0.4-6.8,1.5-9.9c1.6-4.4,1.1-9,1.3-13.4
			c0.4-6.7-0.1-13.5,1.3-20.2c1.3-6.1,2.1-12.3,4.1-18.3c1.9-5.8,3.8-11.6,6.1-17.2c2.3-5.6,4.9-11.1,8-16.4c2-3.3,2.8-7.2,5.7-10
			c1.1-1.1,3.5-2.2,1.1-4.3c-0.1-0.1,0-0.3,0-0.5c0.7-3.1,1-6,0.1-9.3c-0.8-2.6,0.1-5.6-3.1-7.2c-0.1-0.1,0-0.5,0-0.7
			c-0.5-4-3-7-4.9-10.4c-0.8-1.4-3.4-2.1-3.1-3.1c0.5-2.2-1.1-2.6-1.9-3.7c-2.6-3.8-5.8-7-9.2-10.2c-1.1-1-3.3-1.4-3.3-3.4
			c-0.1-1.9-1.6-2.3-2.6-2.4c-1.2-0.1-1.8-0.9-2.7-1.3c-2.7-1.1-3.8-5.8-7.9-3.6c-0.1,0-0.4-0.1-0.4-0.2c-1.1-2.4-3-2.7-5.3-2
			c0-1,1.5-2.1,0.7-2c-2.1,0.2-3.5-1.4-5.3-1.3c-2.7,0.2-5.3,0.9-6.4-2.6c-0.2-0.6-0.8,0.1-1,0c-1.9-0.5-4.2-0.3-4.6-3.1
			c-0.1-1-1-1.6-1.8-1.7c-1.5-0.2-2.5-2.1-4.3-1.3c-0.3,0.1-1-0.3-1.2-0.9c-0.7-1.9-2.6-2.6-4-3.8c-1.6-1.3-3.9-1.7-4.2-4.4
			c-0.2-1.4-1.1-2-2.4-0.7c-0.4,0.5-0.8,0.9-1.5,0.3c-0.6-0.6-0.2-1.1,0-1.7c0.1-0.4,0.8-0.5,0.6-1.1c-0.9-0.5-1.8,0.5-2.7,0.2
			c1.1-3-1.9-2.3-3-2.9c-2.2-1.3-4.1-3.3-7-3.2c-0.6,0-1.7,0-1.3-0.8c0.7-1.2-0.2-1.1-0.8-1.4c-1.4-0.7-2.8-1.2-4.4-1.1
			c0.6-0.3,1.5-0.9,1.1-1.2c-0.5-0.4-1.1-1.4-2.1-1.1c-0.5,0.1-1,0.7-1.4,0.1c-0.8-1.6-2.7-1.9-3.7-3.3c-0.2-0.3-0.5-1.1-1.1-0.2
			c-0.8,1.1-2.1,0.5-2.4,0c-1.6-2.1-4.1-1.5-6.1-2.1c-0.4-0.1-0.9,0.1-1.2-0.3c-1.8-2.6-4.7-0.8-7-1.8c-2.2-0.9-4.7-0.2-7.1-0.8
			c-3.6-0.8-7.1-1.8-10.9-1.1c-4.8,0.9-9.6,1.4-14.5,1.5c-8.8,0.2-17.6-0.1-26.4,0c-7.2,0.1-14.4-0.5-21.7,0.1
			c-6.5,0.5-13,0.4-19.4-0.4c-4-0.5-7.9-1.6-12-1.1V127l3.2-0.8c0.4-0.6,1.3-0.8,1.3-1.7c-0.4-0.5-0.5-1-0.3-1.7
			c1.3-4,4.6-4.8,8.5-4.9c-1.1-0.9-2.2-1.9-3.1-1.5c-3.1,1.2-6.6,1-9.6,2.7v-3.7c2-1.4,4.7-1.1,7.1-2.9c-0.7,1.7-0.3,2.6,1,2.9
			c0.9,0.2,1.6-0.3,2.1-1.2c0.2-0.4-0.7-1.4,0.6-1.3c0.6,0.1,0.9,0.5,0.9,1.3c0,1.2,0.2,1.3,1.2,0.4c0.6-0.6,1.1-0.4,1.6,0
			c0.3,0.2,0.5,0.4,0.8-0.1c0.6-0.8,0.7-0.9,1.1-0.4c0.6,0.6,1,1.4,1.7,2.2c0.6-1.2,1.3-1.8,2.6-1c1.9,1.2,4.4,1.8,4.7,4.7
			c-0.8-0.4-1.2-0.1-1.1,0.7c0,0.4-0.3,1.2,0.7,1c1.5-0.2,2.7,0.9,4.1,1c0.6-1.2-2.5-1.1-0.9-2.7l-0.1,0.1c1,0.1,2.7-0.8,1.9,1.5
			c1.8,0.7,1.5,4,4.3,3.6c-0.3,0.6-0.5,1.1-0.8,1.6c-0.3,0.6-0.5,1.2,0,1.7c0.8,0.6,1.2-0.2,1.4-0.6c0.5-1.2,2.9-0.8,2.4-2.2
			c-0.3-1-2.1-0.1-3.1-0.4l2.2-1.1l-0.2,0.1c0.7-0.8,1.5-1.7,2.6-1.3c1.6,0.4,2.2-0.5,2.8-1.6l-0.1,0.1c2-1.8,1.2-6.9,6.2-5.3
			c0.2,0.1,0.7-0.5,1-0.8c0.2-0.2,0.7-0.8,0.8-0.5c1.2,2.5,2-0.4,3-0.2c0.8,0.1,1.6-0.5,2.7-0.4c2.7,0.2,5.5,0.1,8-0.8
			c3.1-1,5.8-2.6,9.1-0.9c0.2,0.1,0.7-0.1,0.7-0.2c0.7-2.6,2.6-2.3,4.6-2.2c1.2,0.1,2.7,0.2,3.2-1.5c1,0.9,2,1.6,3.4,0.5
			c0.7-0.5,1.9-0.8,2.8-0.7c2.2,0.3,4.2,0.4,6.3-0.4c2.6-1.1,5.2-0.3,7.9-0.4h-0.1c1.1-0.3,2.2-0.4,3.4-0.1c0.7,0.2,1.7,0.5,1.9-0.7
			c0.2-2.2,1.3-0.9,2.4-0.9c2.2,0.1,4.5-0.4,6.7-0.7c0.1,0,0.1-0.3,0.1-0.5c-0.1-0.6,0-1.2,0.7-1.1c0.9,0.2,0.6,1,0.4,1.5
			c-0.4,1.2,0.5,1.1,1.1,1.3c0.8,0.3,1.3-0.1,1.8-0.8c0.4-0.6-0.5-1.4,0.4-2.1c0.5,2,2.4,0.4,3.4,1.3c1.5,1.5,1.6,1.4,2.6-0.7
			c0.6-1.2,1.9-3.1,3-2.3c1.1,0.8,3.1,1.6,2.5,3.9c1-0.7,1.2-1.5,1.6-2.2l0,0.1c1.1,0.3,2,1.8,2.9,1.3c1.9-1.1,1.5-0.1,1.6,1.2
			c0.1,1.6,0.4,2.9,2.5,1.4c0.6-0.4,2-1.3,2.3-0.3c0.4,1.7,1,0.5,1.6,0.4c0.8-0.2,2.6-2.7,2.4-3.5c0-0.2-0.2-0.4-0.3-0.7
			c-2.1,1.7-1.9-2.1-3.6-1.4c2-1.5,4.2,0.5,6.2-0.7c-0.7,0.9-2.2,1.3-1.2,3.1c0.9-2.8,3-0.8,4.6-1.5c-0.2,0.7-0.3,1.3-0.4,1.8
			c-0.6-0.2-1.1-0.5-1.7-0.7c-0.8-0.3-1.3,0.2-1.6,0.8c-0.2,0.3-0.3,0.7,0.1,0.9c0.6,0.3,1.2,0.1,1.7-0.1s1-0.6,1.5-1
			c0.5,0.1,1,0.2,1.5,0.3c0.6,0.2,1.1,0.2,1.3-0.4c0.1-0.4,0.2-0.9-0.3-1.1c-0.5-0.2-1.1-0.5-0.8-1.1c0.5-0.9,1,0.1,1.5,0.1
			c2.7,0.1,5,1.9,7.7,2.1c0.1-0.1,0.3-0.2,0.4-0.2h0c0.4,0.8,0.7,1.6,0.8,2.5c0.1,0.8,0.8,1.1,1.6,1.1c1.1-0.1,0.4-1,0.6-1.4
			l1.3,0.2c1.3,1.1-0.6,2.3,0.2,3.6c-0.3-2.2,2.3-1.7,2.5-3.4l0,0l0.1,0.1c0.9,0.7,2.1-0.2,3,0.4c1.2,0.8,1.3,0.2,2-0.8
			c0.9-1.4-0.1-2.9,0.8-4.4c0.7,1.7,1.2,3.6,3.4,2.1c0.8-0.5,1.3,0.2,1.4,0.6c0.4,1.6,1.3,2.5,3.1,2.1c-0.2,1.2-1.2,0.8-1.7,1.3
			c-0.5,0.4-1.5,0.5-1,1.5c0.4,0.9,1.1,0,1.6,0c1.4,0,2.7-0.5,3.9,0.9c1,1.1,2,0.1,2.6-0.7c0.5-0.6,0.8-1.4,1.2-2.3
			c1.1,1.1-0.6,3.8,2.2,3.4c0.3,2.2,1.8,1.6,3.2,1.3c3.2-0.8,7.6,1.1,8,4c0.3,2.8,3.6,0.9,3.9,3.1c0.1,0.4,0.8,0.5,1.4,0.3
			c1.3-0.5,2.8-0.2,4.1-0.8c1.4-0.7,2.3,0.1,3.1,1.2c0.4,0.5,0,1.7,1.1,1.5c0.8-0.1,0.5-1.1,0.7-1.6c0.2-0.4,0.4-1,1-1
			c0.6,1.2-0.1,2.4-0.4,3.5c1.6,0.5,3,1,4.4,0c0.5-0.4,1.3-0.3,1.4,0.2c0.6,2.7,3.3,2.8,5,4.1l0.3,0.2c1.1,0.1,1.3,1.4,2.2,1.8
			c0.3,0.1,0.8,1,1,0.4c0.5-1.4,2.1-1.6,2.8-2.7c0.3-0.4,0.3-1.2,1-0.8c0.6,0.3,0.4,0.9,0.3,1.4c-0.2,0.9-0.6,1.8,0.6,2.1
			c1.8,0.5,1.3,1.9,1.1,3.3c1.3-0.9,2.4-1.4,2.8,0.3c0.1,0.6,0.3,0.8,0.8,0.7c0.6-0.2,0.4-0.7,0.3-1.1c-0.2-1.3-0.1-2.4,0.8-3.5
			c0,0.1,0.1,0.2,0.1,0.1c0.9,1.3,0.3,3.1,1.6,4.3c0.4,0.4-0.3,1.8,0.9,1.3c0.8-0.3,0.4-1.2-0.1-1.7c-0.2-0.2-0.4-0.5-0.7-1.1
			c3.1,0,2.9-1.9,2.6-3.9c1.5,1.2,1.8,4.2,4.8,2.9c-0.5,0.7-1.1,1.4-0.4,2.3c0.2,0.3,0.6,0.3,0.9-0.1c0.5-0.8,1.2-1.6,0.2-2.5
			c-0.1-0.1-0.2-0.1-0.2-0.1c0.4,0,0.7-0.1,1-0.1c0.9,0,1.7,0.3,1.9,1.1c0.4,1.3-0.8,0.7-1.3,0.9c-0.4,0.1-0.4,0.5-0.4,0.9
			c0.1,0.6,0.6,0.6,1,0.4c1.7-1,3.6-1.4,5.1-2.9c1.3-1.3,3.2-2.5,5.3-2.2c-0.8,1-1.2,2.4-0.4,3.1c1.6,1.4,3.7,1.8,5.9,1.4
			c-0.1-1.1-1.7-1.2-1.4-2.2c0.5-1.8-0.9-1.8-1.8-2.3c1.1-0.8,2.2-1.5,3.1-2.2c1.1,0.6-0.4,2.5,0.8,1.8c1.8-1,3.5,0,5.2-0.6
			c-0.7,2.1-0.6,4.1,1.1,5.8l-0.1-0.1c1.4,0.5,2.7,1.2,4.1,0l0.1-0.6c1.1-2.2,2.1-0.2,3.2,0.1c0.3-1.2,0.5-2.4,0.8-3.6
			c0.1-0.6,0.5-1,1.2-0.8c0.6,0.1,0.5,0.6,0.4,1.1c-0.2,1.3-1.6,3.5,1.7,2.5c0.1,0,0.3,0.2,0.4,0.3c1.3,1.6,2.3,0.1,3-0.6
			c1.2-1.3-1.3-0.8-1.2-1.8c1.2-0.1,2.2,0.1,3.3,0.6c-0.7,1.1-1.6,2.1,0.1,3.1c0.4,0.2,0.6,0.8,0.4,1.2c-0.7,1.4,0,2.1,1.1,2.7
			c1.5,0.8,2-0.6,2.7-1.3l-0.2,0.1c1.7,1.1,2.6,3.3,4.8,4.1c-1.7-4.3-1.6-4.4,1.7-4.7c-1.7,2.8-0.2,3.1,2.1,2.7
			c1.1-0.2,1.6,0.9,2.3,1.5c2.5,2.2,4.3,1.9,5.5-1.1c0.4-0.9,1.1-1.2,1.9-1.9c-1.5,2.6,0.5,3.4,2.1,4.2c0.5,0.2,1.3,0,1.4,0.8
			c0,0.7,0.5,1.7-0.7,2c-0.9,0.2-0.9,0.9-0.7,1.4c0.2,0.6,0.8,0.9,1.5,0.7c0.6-0.1,1.2-0.2,1.8-0.3l0-0.1c0,0.9-0.8,1.2-1.2,2.1
			c2.2-0.3,4.2-0.6,6.5-1c-0.7,2.1-0.9,3.4,1.9,2.4c1.6-0.6,3.7-0.7,3.4,2.4c-0.1,0.9-0.5,4.1,2.1,1.3c0.2-0.2,0.8,0.1,1.2,0.1
			c2.7,0.1,3.4,3.4,6,3.6c0.1,0,2.1,1.4-0.3,1.7c-0.2,0-0.2,0.8,0.1,1.2c0.4,0.4,0.8,0.4,1.1,0c1.6-1.9,3-1.2,4.4,0.1
			c0.1,0.4,0.2,0.7,0.4,1.1c-0.1,1-2.6,1.5-1.1,2.4c0.6,0.4,2.1,3.1,3.8,0.7c0.3-0.4,1.4-0.5,2-0.3c2,0.7,3.2,0,4.3-1.6
			c0.3-0.5,1-0.7,0.9-1.7c-0.2-1.3-1.5-0.2-2-0.9c2.6-2.5,3.3,0.5,4.9,1.9c-0.4-1.8-0.2-3.4-1.5-4c-1.9-0.9-0.4-1.5,0.1-2
			c0.8-0.7,2.7,0.5,2.9-0.6c0.2-1.3-2.1,0.2-2.7-1.2c-0.2-0.4-0.9-0.5-1.3-0.9c-0.4-0.4-1.5-0.2-1.4-1c0.1-0.8,1-0.9,1.6-1.1
			c0,0.1,0,0.2-0.1,0.3c0,0.1,0,0.2,0,0.2c1.7-0.6,2.8-1.9,4.1-3c1-0.8-0.5-1.5-0.3-2.4c0.2-0.8-0.9-1.6,0.1-2.4
			c0.8-0.6,0.3-0.8-0.3-0.9c-1.7-0.3-0.8-1-0.4-1.8c0.2-0.5,1-1.4,0.7-1.4c-1.3,0.3-1.9-1.4-3.1-0.7h0.1c-2.4-0.2-2.7-1-1.8-3.4
			c0.9-2.6,1.7-2.4,3.4-1.2c1.6,1.1,3,2.4,4.2,3.9c5.9,7.4,6.5,16.4,7.3,25.3c0.1,0.9-0.3,1.3-1.3,1.1c-0.8-0.2-1,0.4-1.2,1.1
			c-0.1,0.5,0,0.9,0.6,1c2.6,0.3,3,2.4,3.5,4.4c1.7,5.9,3.1,12,6.7,17.2c0.6,0.9,0.3,1.6-0.1,2.5c-1.2,2.6-1.8,5.3-2.1,8.2
			c-0.8,8.4-2.9,16.5-5.3,24.5c-2.4,8.2-7,15.4-10.3,23.2c-1.5,3.6-3.4,7.2-8,7.9c-0.6,0.1-1.2,0.7-1.8,1.1
			c-2.9,2.1-5.4,4.8-8.3,6.8c-7.4,5-12.7,12.2-19.3,18.1c-4,3.5-7.7,7.6-10.9,12.1c-4.7,6.6-9.7,13.1-14.4,19.7
			c-1.2,1.7-1.4,3.7-1.8,5.7c-0.1,0.5,0.1,0.9,0.6,1c3.4,0.9,1.1,2.9,1.1,4.8c-1.6-1.5-1.8-3.4-3-4.4c-3.2,1.6-0.8,4.7-2.3,7.2
			c-1.4,2.4-0.4,6.2,0,9.5c0.1,0.5,0.2,0.7,0.7,0.9c2.6,0.6,2.1,3.7,2.1,4.7c-0.1,2.5,1.3,4.2,1.2,6.5c1-0.3,0.7-1,0.9-1.4
			c0.1-0.3,0.3-0.7,0.8-0.5c0.3,0.1,0.6,0.4,0.9,0.5c-1.8,2.4,1.2,2.1,1.9,3c1,1.1,2.5,1.8,3.8,2.7c0.9,0.6,2.1,0.5,3.1,1.3
			c1.1,0.8,2.9-0.6,4.6,1.4c1,1.3,4.1,1.8,6.4,2.4c2.5,0.7,5.2,0,7.7,1c0.7,0.3,1.3,1,2.2,0.9c0.8-0.1,2.3-1.2,2.3,1.1
			c0,0.2,1.2-1.2,2.7-1c2.5,0.4,5,1.7,7.5,1.1c2.8-0.6,5.3,0.2,7.9,0.6c1.9,0.3,3.1,1,2.5,3.2c-0.1,0.4,0.1,0.7,0.6,0.8
			c0.4-1.4,1.6-3.5,2.6-2.3c1.5,1.7,2.2,1.3,3.4,0.2c0.6-0.5,1.1,0,1.7,0.3c0.5,0.3,1.2,0.6,1.7,0.6c1.4-0.1,1.4-0.2,1.6,1.1
			c0.1,0.5,0.2,0.9,0.8,0.9c0.8-2.2,2.5-2.5,4.8-1.6c1.3,0.5,3.2,2.9,4.6-0.2c0.2-0.5,1-0.9,1.7,0c1.3,1.5,2.9,2.4,5.1,2
			c1.3-0.3,2.6,0.4,3.9,1.3c1.5,1.1,0.1,2.4,0.6,3.7c1.8-2.5,3.6-1,5.3-0.3l0.1-0.1c-0.5,0.2-1,0.4-1.4,0.7c-0.9,0.6-1.8,1,0.1,1.8
			c2.3,1,4.9,1.8,7.4,1.9c1.1,0.1,1.2-0.8,2.3-1.4c-1.9,3.8,1.7,3.2,3,3.9c1,0.6,0.7-2,2.1-3.2c-0.2,1.9,1.8,2.2,1.6,3.9l0.1-0.2
			c-0.8,1.3-3.7-0.6-3.5,3.2c0.8-4.3,1.9-0.1,3.2-1.1c1-0.7,2.6-0.7,4-0.5c-0.8,0.8-1.5,1.6,0,2.3c0.7,0.3,0.9,1,1.1,1.6
			c-1,0.4-1.8-0.3-2.6-0.8c-0.8-0.4-1.5-0.6-1.9,0.4c0.4,1.5,0.3,3.2,2,4c-1.4,0.3-2.9,0.3-4.7,2c2.4-0.8,3.4,0.9,5.1,1.1
			c-0.2-1.2-0.4-2.2-0.6-3.2l0.9,1c0.1,0.1,0.1,0.1,0.2,0.2c0.3,3.5,4.2,5.5,4,9.3v-0.1c0.1,1.2,0,2-1.5,1.1c-1.7-1-3.4-1.2-3.4,1.5
			c0,2-1.1,1.9-2.6,1.5c0.5,2-0.2,3.4-1.9,4.3c-0.4-0.9,1.3-1.9-0.2-3c-0.5,0.9-1.4,1.6-1.1,2.8c0.4,1.3-0.6,1.6-1.4,2.3
			c-1.3,1.3-3.1,1.9-4.3,3.3c-0.7,0.9-0.3,1.8-0.5,2.6c-0.9,2.8-2,5.7-0.1,8.7c0.8,1.3,2.3,1.2,3,2.4c2.2,4.1,3.6,8.4,2.9,13.1
			c-0.8,5.3-1.9,10.6-3,15.8c-1.4,6.9,2,12.7,4.9,18.5c1.9,3.8,5,6.9,7,10.5c4.6,8.4,10,16.5,13.8,25.3c0.8,1.8,2,3.5,3.1,5.2
			c3.8,6,8.4,11.4,11.3,17.8c5.2,11.4,12.5,21.4,19.8,31.4c4.8,6.5,8.8,13.4,10.2,21.5c2.1,12.5-0.7,24-7,34.8
			c-3.2,5.5-6.8,10.8-9.4,16.6c-2,4.6-4,9.2-5.5,14c-1.7,5.3,0.5,10,3.5,14.3c1.4,2,2.5,4,2.7,6.5c0.3,3.3,0.3,6.7,0.8,10
			c1,6.3,3,12.2,9,15.7c2.8,1.6,5.7,3.1,8.9,4c6.7,1.9,13.2,4.7,20.2,4.9c6.7,0.2,13.4-0.2,20.1-0.5c10.9-0.6,21.8-1.2,32.5-3.3
			c7.2-1.5,14.3-3.1,20.7-6.9c4-2.3,6-4.7,6-9.9c-0.3-82.5-0.3-165-0.3-247.5c0-48,0.1-96,0.1-143.9c0-2.4-1.2-3.6-3.8-3.5
			c-9.2,0.2-18.4,0-27.5,0.8c-6.1,0.5-12.2-1.1-18.3,0.7c-5.4,1.6-11,2.2-16.5,3.3c-5.1,1-10.1,2.3-15.2,3.2
			c-9.3,1.6-18.8,1.7-28.2,1.7c-13.8,0-27.5,2.3-41.3,1c-5.6-0.5-11.2-1.2-16.6-3c-5.5-1.9-5.5-8.4-3.4-12.3c2.1-4,5.6-6.5,9-9.2
			c1.3-1,2.5-2.3,4.1-2.7c0.7-0.1,1.6,0.1,1.5-0.9c-0.1-1.2-1.3,0.1-1.8-0.4c0.9-2.8,2.9-4.6,4.9-6.2c3.5-2.9,6.4-6.3,8.9-10
			c1.2-1.8,3.6-3.5,3.8-5.1c0.3-2.6,0.9-5.1,1.1-7.7c0.5-6.1,0.3-12.2,0.2-18.3c0-3.1-0.2-6.2,0.9-9.2c1.6-4.5,2.8-9.1,4.8-13.5
			c1.1-2.5,2.7-5,2.9-7.9c0.2-3.7,1.1-7.3,1.4-11c0.3-5,1.6-10-0.2-14.9c-0.2-0.6-1-0.9-0.6-1.8c1.9-4.6,2.5-9.5,3-14.4
			c0.8-7.6-1.3-15.1,0.2-22.8c0.3,0.4,0.6,0.7,0.7,1.1c2.1,6.4,5.3,12.4,7.1,18.8c1.2,4.5,3.9,8.5,4.2,13.3c0.4,5.6,2,10.9,5.4,15.5
			c0.6,0.8,0.4,1.4,0.1,2.2c-1.1,2.4-1.5,4.9-1.7,7.4c-0.8,11.1-3.4,22-3.9,33.1c-0.4,8.4-1.2,16.7,0.5,25.1c0.1,0.6,0.1,1.2,0,1.8
			c-1.9,7.7-4.2,15.3-4.1,23.4c0.1,3.8,2.3,7.5,6,8.4c9.7,2.3,19.5,2.8,29.4,0.4c5.7-1.4,11.2-3.3,17.2-3c8.6,0.4,17.1-0.5,25.6-1.7
			c12.1-1.7,24.2-3.7,36.3-5.6c4-0.6,4-0.6,4-4.6c0-88.3,0-176.5,0-264.8c0.2,0.1,0.5-0.3,0.5,0.3c0,0.7,0,1.4,0,2.1
			c0,338.5,0,677.1,0,1015.6c0,2-0.5,2.4-2.4,2.4c-189.7,0-379.4,0-569.1,0c-2,0-2.4-0.5-2.4-2.4C0,901.2,0,784.4,0,667.7
			c5,1.6,9.9,3.7,14.4,6.2c9.9,5.4,19.3,11.9,26.9,20.3c14,15.5,24.2,32.8,23,54.8c-0.3,5.1,3.2,7.5,8.2,6.3
			c2.5-0.6,4.6-1.6,6.6-3.2c2.6-2.1,6.2-2.6,8.5-5.2c5.7-6.5,7.7-14.3,6.6-22.7c-1.4-11.5-7.6-20.9-15.2-29.1
			c-14-15.2-30.9-26.2-50.4-33.2C19.1,658.5,9.5,655.5,0.1,652.3L0.1,652.3z M25.1,125.5c0.3,1,0.6,2,0.9,3c0.2,0.7,0.8,1.2,1.3,0.7
			c0.6-0.6-0.3-0.7-0.6-1c-0.5-0.6-0.4-1.2-0.1-1.9c0.3-0.8,1-1.6,0.7-3c-0.9,1.1-1.6,1.8-2.3,2.6c-1.1-1.7-2.5-1.4-4.1,0.7
			C22.5,126,23.9,126.3,25.1,125.5L25.1,125.5z M257,269.9c0.7-0.2,1.3-0.5,2-0.6c1-0.2,2.2-1.7,3-0.5c0.7,1.1-0.6,2.2-1.4,3.1
			c-0.1,0.1-0.3,0.2-0.7,0.4c0.2-1.2-0.1-2-1.4-1.7c-1.8,0.4-2.6,1.9-2.9,3.4c-0.2,1.1,1,1.9,2,1.2c2.6-1.6,5-3.5,6.4-6.4
			c0.9-1.8-0.2-2.4-1.7-2C260.3,267.4,258.3,268,257,269.9c-3.4,1.6-6.2,3.8-8.3,7c-0.8,1.2-1,2.6,1,2.5c2.1-0.2,4.1-1,5.9-2.8
			c-0.7,0-1.1,0.1-1.4,0.1c-1-0.2-2.3,1.1-2.8-0.2c-0.4-1,0.9-1.7,1.5-2.6C254.1,272.3,256.2,271.8,257,269.9L257,269.9z
			 M573.4,890.2c-2.5,0.1-4.5,1-6.6,1.7c-10,2.9-19.4,6.9-27,14.2c-2.1,2-4.5,3.7-6.5,5.8c-1,1.1-2.8,1.6-3.3,2.8
			c-0.8,2-1.1,4.2-3.3,5.4c-0.5,0.3-0.3,1.2,0.3,1.7c0.7-1,1-0.7,0.8,0.3c-0.8,3.9,2.8,5.1,4.7,7.1c1.5,1.5,3.6,2.5,5,4.4
			c0.9,1.2,1.7,3,3.8,2.3c2-0.7,3.1,0.2,3.4,2.2c1.2-0.1,1.4-1.5,2.7-1.8c-0.6,1.2,0,1.5,0.8,2.1c2.3,1.8,4.7,1.1,7.3,1.1
			c5,0,10,0.1,15,0.3c2.7,0.1,2.8-0.8,2.8-2.9c0-13.7,0-27.4,0-41.1C573.4,893.7,573.4,892,573.4,890.2L573.4,890.2z M385.4,764.3
			c0.3,1.3,1.3,1.4,2.1,1.7c6.7,2.9,13.5,5.4,20,8.8c4.2,2.2,9.1,3.4,14,2.5c4.2-0.8,8.3,0.4,12.5-0.1c2.2-0.3,4.5,0.3,6.8,0.4
			c5.7,0.2,11.4,0.4,17.1,0.6c6.7,0.2,13.4,0.8,20.1,0.6c8.4-0.3,16.6-0.8,24.9,1.7c4.1,1.2,8.6,1.5,12.8,2.4
			c6.3,1.3,12.4,3.8,18.6,5.8c4.6,1.5,9.3,1.5,13.9,0.3c7.9-2.1,15.6-4.7,23-8.1c0.9-0.4,1.9-0.7,2-1.9c0-1.7,0-3.4,0-5
			c0-1-0.8-1.7-1.5-1.1c-1.1,0.9-2.5,1-3.7,2c-1.9,1.5-4.2,3-6.4,3.7c-6.7,2-13.2,4.4-20.7,2.8c-3.5-0.7-7.1-1.4-10.6-2.2
			c-5.4-1.2-10.9-2.2-16.3-3.3c-5-1-10-1.9-15-2.7c-1.9-0.3-3.9-1-5.7-0.8c-5,0.6-10.1,0.1-15.1,0.9c-3.3,0.5-6.6-0.8-10.1-0.3
			c-2.2,0.3-5.3-0.6-7.7-0.6c-6,0-11.9-0.1-17.8-0.9c-3.3-0.5-6.6-0.1-9.9,0c-3.8,0-7.7,0.3-11.4-0.1c-4.6-0.4-9.4-0.5-14-2
			C400.2,766.7,392.6,767,385.4,764.3L385.4,764.3z M525.7,1019.5c10.7,0,21,0.1,31.3,0c4.9-0.1,9.7-0.5,14.6,0.2
			c0.8,0.1,1.5,0,1.7-1.1c1-4.9,0-6.4-4.8-7.5c-0.9-0.2-1.9-0.3-2.9-0.4c-6.4-0.8-12.6,0.2-18.8,1.7
			C539.7,1014.1,532.8,1016.4,525.7,1019.5z M357.2,804.4c0.1-1.7-0.1-3-0.6-4.1c-0.3-0.7-0.7-1.3-1.5-1.3c-0.9,0-1.5,0.6-1.6,1.4
			c-0.4,2.4-0.5,4.9,0.5,7.2c0.3,0.6,0.6,1.3,1.5,1.3c0.8-0.1,1.2-0.8,1.3-1.5C357,806.3,357.1,805.1,357.2,804.4L357.2,804.4z
			 M277.2,819.8c0.1-1.2-0.5-2-1.6-2c-2.4,0-4.1,1.2-5.3,3.3c-0.4,0.8-0.7,1.6,0.2,2.4c0.1,0,0.1,0.1,0.2,0.1
			c1.7,0.6,3.3-0.2,4.8-0.8C276.7,822.3,277.3,821.1,277.2,819.8L277.2,819.8z M143.4,165.5c1.9-0.3,3.4-1.1,3.7-3.2
			c0.1-1.2-0.6-1.8-1.8-1.7c-1.7,0.1-3.8,2.1-3.8,3.5C141.6,165.4,142.5,165.4,143.4,165.5L143.4,165.5z M410.6,788.1
			c0.3-0.1,1.1,0.3,1.1-0.7c0-1.1-3.2-4-4.6-4c-0.9,0-1.3,0.5-1.4,1.3C405.6,786.2,408,788,410.6,788.1L410.6,788.1z M480.2,953.1
			c1.4-0.1,2.4-0.8,2.5-2.4c0.1-1.2-0.7-1.5-1.7-1.4c-1.5,0.2-2.5,1-2.7,2.4C478.1,952.9,479.1,953.2,480.2,953.1L480.2,953.1z
			 M368.1,803.1c-0.1-0.9,0-2.2-0.8-2c-2,0.4-1.6,2.4-1.9,3.8c-0.1,0.6-0.1,1.8,0.7,1.6C368,806.2,367.8,804.4,368.1,803.1
			L368.1,803.1z M174.8,114.6c2.2-0.4,2.5-2,2.8-3.6c0.1-0.6-0.5-0.6-1-0.5C173.8,110.7,175.2,112.9,174.8,114.6z M275.6,134.1
			c0-1.7-0.5-3.3-2.1-3.8c-1.3-0.4-0.8,1.4-2.1,1.8C273.3,132.5,274.6,133,275.6,134.1L275.6,134.1z M365.2,146.5
			c-0.2,1.3-0.7,2.6,0.4,3.7c0.3,0.3,0.7,0.7,1.1,0.5c0.3-0.1,0.5-0.4,0.7-0.6C366.2,149.2,367.7,146.7,365.2,146.5L365.2,146.5z
			 M202.6,173.8c-0.1-0.7-0.4-1.5-1.2-1.4c-1,0-1.7,0.8-1.8,1.8c-0.1,1,0.6,1.5,1.4,1.4C202,175.6,202.4,174.7,202.6,173.8
			L202.6,173.8z M77.2,118c0.8-0.9,2.5-1.1,2-2.6c-0.3-0.8-1.2-0.9-2-0.8V118L77.2,118z M217.9,343.2c-1.4,1.2-1.3,2.7-1.1,4.1
			c0.1,0.3,0.5,0.6,0.8,0.4c1.3-1,0.8-2.4,0.8-3.7C218.3,343.9,218.1,343.6,217.9,343.2L217.9,343.2z M147.5,112.9
			c1-1.2,0.4-2.5,1.6-2.9c0.4-0.2,1.2,0.3,1.1-0.6c0-0.2-0.5-0.4-0.8-0.6c-0.6-0.3-0.9,0-1.3,0.4
			C147.2,110.2,147.5,111.2,147.5,112.9L147.5,112.9z M52.5,124.9c0.6-0.3,1.4-0.3,1.3-1.3c0-0.8-0.5-1-1.2-1.1
			c-0.9-0.1-1.3,0.3-1.3,1.2C51.5,124.4,51.8,124.8,52.5,124.9z M185.8,115.5c-2.8-1.8-3.3-1.5-3.5,1.4
			C182.6,115.1,183.6,114.7,185.8,115.5z M410.8,392.4c-0.5,0.3-1,0.6-1.2,1.3c-0.1,0.5,0.3,0.8,0.8,0.7c0.7-0.1,1.1-0.6,1-1.3
			C411.5,392.7,411.3,392.4,410.8,392.4L410.8,392.4z M266.5,145.9c0.2,0,0.7,1.5,1.8,0.5c0.2-0.1,0.2-0.7,0.1-1
			C267.5,144,266.7,146,266.5,145.9L266.5,145.9z"/>
		<path class="st1" d="M348.2,160.2c-1.4-1.4-2.9-2.1-4.4-0.1c-0.3,0.4-0.8,0.4-1.1,0c-0.3-0.4-0.3-1.1-0.1-1.2
			c2.4-0.2,0.4-1.7,0.3-1.7c-2.6-0.2-3.3-3.6-6-3.6c-0.4,0-1.1-0.3-1.2-0.1c-2.7,2.8-2.2-0.4-2.1-1.3c0.4-3.1-1.8-3-3.4-2.4
			c-2.8,1-2.6-0.3-1.9-2.4c-2.2,0.3-4.3,0.6-6.5,1c0.4-0.9,1.2-1.2,1.2-2.1c1.1-1.5,2.4,1.3,3.6-0.4c-1.4-1-2.6-2-3.6,0.4
			c-0.6,0.1-1.2,0.1-1.8,0.3c-0.7,0.2-1.3-0.1-1.5-0.7c-0.2-0.6-0.2-1.2,0.7-1.4c1.2-0.3,0.7-1.3,0.7-2c0-0.8-0.9-0.5-1.4-0.8
			c-1.6-0.8-3.6-1.6-2.1-4.2c-0.8,0.6-1.5,1-1.9,1.9c-1.2,3-3,3.3-5.5,1.1c-0.7-0.6-1.2-1.7-2.3-1.5c-2.3,0.4-3.8,0.1-2.1-2.7
			c-3.3,0.2-3.4,0.4-1.7,4.7c-2.2-0.8-3-3-4.8-4.1c0.9,0.2,1.8,0.6,3.1-0.8c-1.9,0-3-0.5-4-1.5c-0.3-0.3-0.9-0.9-1.3-0.4
			c-0.4,0.5-0.4,1.3-0.5,2c0,0.6,0.3,1.1,0.9,1c0.7-0.1,1.3-0.3,2-0.5c-0.8,0.7-1.2,2.1-2.7,1.3c-1.2-0.6-1.8-1.3-1.1-2.7
			c0.2-0.4,0-0.9-0.4-1.2c-1.7-0.9-0.8-2-0.1-3.1c-1.1-0.5-2.1-0.8-3.3-0.6c-0.1,1,2.4,0.6,1.2,1.8c-0.7,0.7-1.7,2.2-3,0.6
			c-0.1-0.1-0.3-0.4-0.4-0.3c-3.3,1-1.9-1.2-1.7-2.5c0.1-0.5,0.1-0.9-0.4-1.1c-0.6-0.1-1,0.3-1.2,0.8c-0.3,1.2-0.6,2.4-0.8,3.6
			c-1.1-0.2-2.1-2.3-3.2-0.1c0.2-0.6,0.5-1.1,0.6-1.7c0.1-0.3,0-0.7-0.2-0.9c-0.3-0.4-0.6-0.1-0.9,0.2c-1.6,1.5-2.2,1.2-2-1
			c0.1-0.9-0.2-1.7-1.2-2.2c-0.9-0.4-1.2,0.2-1.7,0.8c0-0.1,0.1-0.2,0.1-0.3c-1.6,0.7-3.4-0.4-5.2,0.6c-1.1,0.6,0.4-1.2-0.8-1.8
			c-0.9,0.6-2,1.4-3.1,2.2l0.1-0.1h-2.5l0.1,0c-2.2-0.3-4,0.9-5.3,2.2c-1.5,1.5-3.4,1.9-5.1,2.9c-0.4,0.2-0.9,0.2-1-0.4
			c-0.1-0.4,0-0.7,0.4-0.9c0.5-0.2,1.7,0.4,1.3-0.9c-0.2-0.8-1.1-1.1-1.9-1.1c-0.4,0-0.7,0.1-1,0.1c-0.1,0.1-0.3,0.2-0.4,0.3
			c-3,1.3-3.3-1.8-4.8-2.9c-0.6-0.7-0.8,0-1.2,0.2c-1.9,0.4-4.4-0.7-5.9,2.2l2.8-1.5c-0.8,1-1,2.2-0.8,3.5c0.1,0.4,0.2,0.9-0.3,1.1
			c-0.5,0.1-0.7-0.1-0.8-0.7c-0.5-1.7-1.6-1.2-2.8-0.3c0.2-1.4,0.6-2.8-1.1-3.3c-1.3-0.4-0.9-1.3-0.6-2.2c0.1-0.5,0.3-1.2-0.3-1.4
			c-0.7-0.3-0.8,0.4-1,0.8c-0.7,1.1-2.3,1.2-2.8,2.7c-0.2,0.6-0.6-0.2-1-0.4c-0.9-0.4-1.1-1.6-2.2-1.8c1.8-1.1,2.9-2.3,0.3-3.7
			c-0.6-0.4-1-0.9-1.3-1.6c-0.2-0.5-0.7-0.5-1.1-0.2c-0.5,0.3-0.4,0.7,0,1c1,1.2,1.2,2.8,1.9,4.3c-1.7-1.3-4.4-1.4-5-4.1
			c-0.1-0.5-0.9-0.5-1.4-0.2c-1.4,1.1-2.8,0.5-4.4,0c0.4-1.2,1-2.3,0.4-3.5c-0.7-0.1-0.8,0.6-1,1c-0.3,0.5,0,1.4-0.7,1.6
			c-1.1,0.2-0.7-1-1.1-1.5c-0.8-1.1-1.7-1.9-3.1-1.2c-1.3,0.6-2.8,0.3-4.1,0.8c-0.6,0.2-1.4,0.1-1.4-0.3c-0.3-2.2-3.5-0.3-3.9-3.1
			c-0.3-2.9-4.8-4.8-8-4c-1.4,0.3-2.8,1-3.2-1.3c-2.9,0.4-1.1-2.3-2.2-3.4c-0.4,0.9-0.7,1.7-1.2,2.3c-0.6,0.8-1.6,1.8-2.6,0.7
			c-1.2-1.3-2.5-0.9-3.9-0.9c-0.5,0-1.1,0.9-1.6,0c-0.5-1,0.6-1.1,1-1.5c0.5-0.5,1.5-0.1,1.7-1.3c-1.8,0.4-2.6-0.5-3.1-2.1
			c-0.1-0.5-0.6-1.2-1.4-0.6c-2.2,1.4-2.7-0.4-3.4-2.1c-0.9,1.5,0.1,3-0.8,4.4c-0.6,1-0.8,1.6-2,0.8c-0.9-0.6-2.1,0.3-3-0.4
			c1.3,0.1,2.1-0.9,2.1-1.8c-0.1-1.7-2.2-1.5-3.2-2.5c0.3,1.2,0.6,2.3,0.9,3.4c-0.1-1-1.1-1.3-1.6-2c-2.3-2.9-2.7-2.9-5.3,0.1
			c0-0.9,0.6-1.9-0.6-2.4c-0.6-0.2-1.2,0.2-1.1,0.7c0.2,0.8-0.7,2.4,1.3,2c-2.7-0.2-5-2-7.7-2.1c-0.5,0-1.1-1-1.5-0.1
			c-0.3,0.6,0.3,0.9,0.8,1.1c0.5,0.2,0.5,0.7,0.3,1.1c-0.2,0.6-0.7,0.6-1.3,0.4c-0.5-0.2-1-0.2-1.5-0.3l0,0.1l0.4-1.9
			c-1.5,0.7-3.7-1.3-4.6,1.5c-1-1.8,0.5-2.1,1.2-3.1c-2,1.2-4.2-0.8-6.2,0.7c1.7-0.7,1.6,3.1,3.6,1.4c0.1,0.2,0.2,0.4,0.3,0.7
			c0.1,0.8-1.7,3.3-2.4,3.5c-0.6,0.1-1.2,1.3-1.6-0.4c-0.3-1-1.7-0.1-2.3,0.3c-2.1,1.6-2.4,0.2-2.5-1.4c-0.1-1.2,0.4-2.2-1.6-1.2
			c-1,0.6-1.9-1-2.9-1.3c-0.7-1.3,2.3-1.4,1.1-2.6c-1-0.9-2.2,0.6-3.4,0.7c0,0-0.1,0.1-0.1,0.2c0.6,0.9,2.1,0.3,2.4,1.6
			c-0.4,0.7-0.6,1.5-1.6,2.2c0.6-2.3-1.4-3.1-2.5-3.9c-1.1-0.8-2.4,1-3,2.3c-1,2.1-1.1,2.2-2.6,0.7c-1-1-2.9,0.6-3.4-1.3
			c-0.9,0.7,0,1.5-0.4,2.1c-0.4,0.7-0.9,1.1-1.8,0.8c-0.6-0.2-1.5-0.2-1.1-1.3c0.2-0.5,0.6-1.3-0.4-1.5c-0.7-0.1-0.7,0.6-0.7,1.1
			c0,0.2-0.1,0.5-0.1,0.5c-2.2,0.3-4.5,0.8-6.7,0.7c-1.1-0.1-2.2-1.3-2.4,0.9c-0.1,1.2-1.2,0.9-1.9,0.7c-1.2-0.3-2.2-0.2-3.4,0.1
			h0.1c-2.6,0.1-5.3-0.7-7.9,0.4c-2.1,0.8-4.2,0.8-6.3,0.4c-0.9-0.1-2.1,0.1-2.8,0.7c-1.5,1.1-2.4,0.4-3.4-0.5
			c-0.5,1.7-2,1.6-3.2,1.5c-2-0.1-3.9-0.4-4.6,2.2c0,0.1-0.5,0.3-0.7,0.2c-3.3-1.7-6.1-0.1-9.1,0.9c-2.5,0.8-5.3,0.9-8,0.8
			c-1.1-0.1-1.8,0.5-2.7,0.4c-1.1-0.2-1.9,2.7-3,0.2c-0.1-0.3-0.5,0.2-0.8,0.5c-0.3,0.3-0.8,0.9-1,0.8c-5-1.6-4.2,3.5-6.2,5.3
			c-1-1.7-2.2-3.1-4.5-3.4c0,1.5,1.5,1,1.8,2l-2.5,1.7c2,0.4,3.5-0.3,5.2-0.3c-0.6,1.1-1.2,2-2.8,1.6c-1.1-0.3-1.9,0.6-2.6,1.3
			c0.3-1.5-1.6-1.8-1.6-3.1c0-0.9-0.5-1-1.2-0.8c-1,0.4-0.7,1.2-0.3,1.7c0.8,1.1,2,1.6,3.2,2.1c-0.7,0.3-1.5,0.7-2.2,1.1l0.1,0
			c-2.7,0.3-2.4-2.9-4.3-3.6c0.8-2.3-0.9-1.4-1.9-1.5c1-0.5,1.9-1,2.9-1.5c-2-0.4-4-0.7-5.3,1.3c-0.1,0-0.2,0-0.2-0.1
			c-0.3-2.8-2.8-3.4-4.7-4.7c-1.3-0.9-2-0.2-2.6,1c-0.7-0.9-1.1-1.6-1.7-2.2c-0.4-0.4-0.5-0.4-1.1,0.4c-0.3,0.5-0.6,0.3-0.8,0.1
			c-0.6-0.3-1-0.6-1.6,0c-1,0.9-1.2,0.8-1.2-0.4c0-0.8-0.3-1.2-0.9-1.3c-1.3-0.2-0.4,0.8-0.6,1.3c-0.5,0.9-1.2,1.3-2.1,1.2
			c-1.3-0.2-1.7-1.2-1-2.9c-2.4,1.7-5.1,1.4-7.1,2.9c0-37.6,0.1-75.3,0-112.9C0,0.4,0.4,0,2.4,0c190.3,0.1,380.7,0.1,571,0.1
			c0,88.3,0,176.5,0,264.8c0,4,0,4-4,4.6c-12.1,1.9-24.2,3.9-36.3,5.6c-8.5,1.2-17,2.1-25.6,1.7c-6-0.3-11.6,1.7-17.2,3
			c-9.8,2.4-19.6,2-29.4-0.4c-3.7-0.9-5.9-4.5-6-8.4c-0.1-8.1,2.2-15.7,4.1-23.4c0.2-0.6,0.2-1.2,0-1.8c-1.7-8.3-1-16.7-0.5-25.1
			c0.6-11.1,3.1-22,3.9-33.1c0.2-2.5,0.6-5.1,1.7-7.4c0.4-0.8,0.5-1.4-0.1-2.2c-3.4-4.6-5-9.9-5.4-15.5c-0.3-4.8-3-8.8-4.2-13.3
			c-1.8-6.5-5-12.4-7.1-18.8c-0.1-0.4-0.5-0.7-0.7-1.1c-1.5,7.6,0.6,15.2-0.2,22.8c-0.5,4.9-1.1,9.8-3,14.4
			c-0.4,0.9,0.4,1.3,0.6,1.8c1.8,5,0.5,10,0.2,14.9c-0.2,3.7-1.1,7.3-1.4,11c-0.2,2.9-1.7,5.4-2.9,7.9c-2,4.4-3.1,9-4.8,13.5
			c-1.1,3-1,6.1-0.9,9.2c0.1,6.1,0.2,12.2-0.2,18.3c-0.2,2.6-0.8,5.1-1.1,7.7c-0.2,1.6-2.6,3.3-3.8,5.1c-2.5,3.7-5.5,7.1-8.9,10
			c-2,1.7-4,3.5-4.9,6.2c0.4,0.5,1.6-0.8,1.8,0.4c0.1,1-0.9,0.8-1.5,0.9c-1.7,0.4-2.9,1.7-4.1,2.7c-3.4,2.7-6.9,5.2-9,9.2
			c-2.1,3.9-2.1,10.4,3.4,12.3c5.4,1.8,11,2.5,16.6,3c13.8,1.3,27.5-1,41.3-1c9.5,0,18.9-0.1,28.2-1.7c5.1-0.9,10.2-2.2,15.2-3.2
			c5.5-1.1,11.2-1.7,16.6-3.3c6.1-1.8,12.2-0.2,18.3-0.7c9.1-0.8,18.3-0.6,27.5-0.8c2.5-0.1,3.8,1.1,3.8,3.5c0,48-0.2,96-0.1,143.9
			c0,82.5,0,165,0.3,247.5c0,5.2-2.1,7.6-6,9.9c-6.5,3.7-13.5,5.4-20.7,6.9c-10.8,2.2-21.6,2.8-32.5,3.3c-6.7,0.4-13.4,0.8-20.1,0.5
			c-7.1-0.2-13.6-3-20.2-4.9c-3.1-0.9-6-2.4-8.9-4c-6-3.5-8-9.4-9-15.7c-0.5-3.3-0.6-6.7-0.8-10c-0.2-2.5-1.3-4.5-2.7-6.5
			c-3.1-4.3-5.2-9-3.5-14.3c1.5-4.8,3.5-9.4,5.5-14c2.6-5.8,6.2-11.1,9.4-16.6c6.3-10.8,9.1-22.3,7-34.8c-1.4-8.2-5.4-15-10.2-21.5
			c-7.3-10-14.6-20-19.8-31.4c-2.9-6.4-7.5-11.9-11.3-17.8c-1.1-1.7-2.3-3.4-3.1-5.2c-3.8-8.9-9.2-16.9-13.8-25.3
			c-2-3.6-5-6.8-7-10.5c-3-5.8-6.3-11.6-4.9-18.5c1.1-5.3,2.2-10.5,3-15.8c0.7-4.7-0.7-9-2.9-13.1c-0.7-1.2-2.2-1.1-3-2.4
			c-1.9-3-0.8-5.9,0.1-8.7c0.3-0.9-0.2-1.8,0.5-2.6c1.2-1.5,3-2,4.3-3.3c0.7-0.8,1.7-1,1.4-2.3c-0.4-1.2,0.5-1.9,1.1-2.8
			c1.4,1.1-0.2,2.1,0.2,3c1.7-0.9,2.4-2.4,1.9-4.3c1.4,0.4,2.6,0.6,2.6-1.5c0-2.7,1.7-2.5,3.4-1.5c1.6,0.9,1.6,0.1,1.6-1.1
			c0.2,0.7,1.3,1.2,0.8,2c-0.9,1.4,0.1,1.3,0.8,1c0.3-0.1,1.6,0.3,1.1-1.2c-0.5-1.4-0.9-2.4-2.6-1.8c0.3-3.8-3.7-5.8-3.9-9.3
			c0.7,0.8,1.1,3,2.3,1.9c0.9-0.9,1.6-1.7,2.8-2.1c0.7-0.2,0.9-1.3,0.5-1.9c-2-2.6,0-2,1.5-2c1.4-0.9,0.8-1.4-0.3-1.9
			c-0.4-3.2-0.9-3.5-3.2-1.9l0.1,0c0-1.8-1.5-2.9-1.8-4.7c-0.4,0.9-0.7,1.4-1,1.9c-0.1-0.9-0.4-2-1.4-0.9c-0.8,0.8-1.8,0.9-2.5,1.6
			c0.1-1.6-1.9-2-1.6-3.9c-1.4,1.2-1.1,3.8-2.1,3.2c-1.2-0.7-4.9,0-3-3.9c-1.1,0.6-1.2,1.5-2.3,1.4c-2.5-0.1-5.1-0.9-7.4-1.9
			c-1.9-0.8-0.9-1.2-0.1-1.8c0.4-0.3,1-0.5,1.4-0.7c-1,1.8,0.4,2.8,1.4,3.8c0.9,0.9,1.3-0.3,2-0.6c0.6-0.3,1.1-0.8,0.8-1.5
			c-0.6-1.4-1,0.6-1.6,0.2c-0.4-0.3-0.8-0.7-1.1-1l0.1,0.1c-0.4-0.7-1-1-1.7-0.8c-1.7-0.7-3.5-2.2-5.3,0.3c-0.4-1.4,1-2.6-0.6-3.7
			c-1.3-0.9-2.6-1.6-3.9-1.3c-2.2,0.4-3.8-0.5-5.1-2c-0.7-0.8-1.5-0.4-1.7,0c-1.4,3.1-3.3,0.7-4.6,0.2c-2.3-1-4.1-0.6-4.8,1.6
			c-0.6,0-0.7-0.4-0.8-0.9c-0.2-1.4-0.2-1.3-1.6-1.1c-0.5,0.1-1.2-0.3-1.7-0.6c-0.5-0.3-1.1-0.8-1.7-0.3c-1.3,1.1-1.9,1.5-3.4-0.2
			c-1.1-1.2-2.2,0.9-2.6,2.3c-0.5-0.1-0.7-0.4-0.6-0.8c0.6-2.2-0.6-2.9-2.5-3.2c-2.6-0.4-5.1-1.2-7.9-0.6c-2.5,0.5-5-0.7-7.5-1.1
			c-1.5-0.3-2.7,1.2-2.7,1c0-2.3-1.5-1.1-2.3-1.1c-0.9,0.1-1.5-0.6-2.2-0.9c-2.6-1-5.2-0.4-7.7-1c-2.2-0.6-5.4-1.1-6.4-2.4
			c-1.6-2.1-3.5-0.6-4.6-1.4c-1-0.8-2.2-0.7-3.1-1.3c-1.3-0.9-2.8-1.5-3.8-2.7c-0.7-0.8-3.7-0.6-1.9-3c-0.3-0.2-0.6-0.4-0.9-0.5
			c-0.4-0.2-0.6,0.2-0.8,0.5c-0.2,0.5,0.1,1.1-0.9,1.4c0.1-2.3-1.3-4-1.2-6.5c0-1,0.5-4.1-2.1-4.7c-0.5-0.1-0.7-0.3-0.7-0.9
			c-0.4-3.2-1.4-7.1,0-9.5c1.5-2.5-0.9-5.6,2.3-7.2c1.3,0.9,1.5,2.9,3,4.4c0-2,2.3-3.9-1.1-4.8c-0.5-0.1-0.7-0.5-0.6-1
			c0.5-1.9,0.6-4,1.8-5.7c4.8-6.6,9.7-13.1,14.4-19.7c3.2-4.5,6.9-8.6,10.9-12.1c6.6-5.9,11.9-13.1,19.3-18.1c3-2,5.4-4.7,8.3-6.8
			c0.6-0.4,1.1-1,1.8-1.1c4.6-0.8,6.5-4.4,8-7.9c3.3-7.8,7.9-15,10.3-23.2c2.4-8,4.4-16.2,5.3-24.5c0.3-2.8,0.9-5.6,2.1-8.2
			c0.4-0.8,0.7-1.6,0.1-2.5c-3.6-5.2-5-11.3-6.7-17.2c-0.6-2-0.9-4.1-3.5-4.4c-0.5-0.1-0.7-0.5-0.6-1c0.1-0.7,0.4-1.3,1.2-1.1
			c1,0.2,1.4-0.2,1.3-1.1c-0.7-8.9-1.3-17.9-7.3-25.3c-1.2-1.5-2.6-2.8-4.2-3.9c-1.8-1.2-2.5-1.4-3.4,1.2c-0.9,2.4-0.6,3.2,1.8,3.4
			c-0.5,0.6-1.4,1.5-1.9,1c-2.6-2.7-2.4-0.5-2.6,1.3c-0.1,0.7-0.4,1.4-0.7,2c-0.3,0.5-1,1.1-1.3,0.2c-0.4-0.9-0.7-0.6-1-0.2
			c-0.4,0.5-0.3,1.1,0.3,1.3c1.5,0.5,2.5-0.1,2.8-1.5c0.7-2.5,1.9-2.5,3.6-0.9l0-0.1c-1.4,1.3-1.5,3-1.3,4.7c-1.2-1.5-2.5-1.6-4-0.3
			c1.7-0.6,2.4,1.2,3.7,1.3c-1.6-0.1-2.5,0.8-3,1.9c1.3,1.5,3.8-1.5,4.6,1.5l0-0.1c-0.6,0.3-1.6,0.4-1.6,1.1c-0.1,0.8,1,0.6,1.4,1
			c0.4,0.3,1.1,0.5,1.3,0.9c0.6,1.4,2.8-0.1,2.7,1.2c-0.1,1.1-2-0.1-2.9,0.6c-0.5,0.4-2,1.1-0.1,2c1.4,0.6,1.1,2.2,1.5,4
			c-1.6-1.5-2.3-4.5-4.9-1.9c0.5,0.7,1.8-0.4,2,0.9c0.2,0.9-0.5,1.1-0.9,1.7c-1,1.7-2.3,2.3-4.3,1.6c-0.6-0.2-1.7-0.1-2,0.3
			c-1.7,2.4-3.2-0.3-3.8-0.7c-1.5-0.9,1-1.4,1.1-2.4c0.1,1.7,1.8,0.7,2.3,1.6c1-3.3-1.3-3.8-3.4-4.6h0
			C347.8,158.9,348,159.6,348.2,160.2L348.2,160.2z M423.4,358.8c0.4-0.2,1-0.6,0.8-0.8c-0.8-0.9-1.9-0.8-3.2-0.7
			c0.2,0.8,1.2,1.1,0.8,1.9c-1.1,0.7-1.5-0.8-2.3-0.9c-1.7,0.2-1.9,1.8-1.8,2.8c0.1,1.3-1.4,2.8-0.2,3.5c0.9,0.6,1.9-1.2,3-1.7
			l-0.1-0.1c-0.1,2.1,0.6,4.1-0.3,6.5c0.7-0.4,0.9-0.6,1.1-0.7c0.6-0.2-0.1-1.9,1-1.2c1.1,0.5,0.6,1.5-0.2,2.1
			c-0.5,0.4-1.1,0.9,0,1.3c1.2,3.1,2.3-0.5,3.4,0c-1.2-0.6-2.3,0.2-3.5,0.1c1.5-2.4,4.2-3.3,6.1-5.2c-0.7-0.2-1.2,0-1.8,0.3
			c-0.6,0.2-0.8,1.8-1.7,0.8c-0.6-0.6-0.1-1.5,0.3-2.2c0.3-0.5,0.6-0.9,0.9-1.3c0.3-0.6,0.1-1-0.2-1.5
			C424.8,360.9,425.5,358.8,423.4,358.8L423.4,358.8z M493.5,376.9c2.5-0.8,3-2.4,1.4-4.7c-0.3,2.1-1.1,3.2-2.6,3.4
			C492.8,376,493.2,376.5,493.5,376.9c-1.1,0-1.7-1-2.5-1.5c-0.8,0.6-0.6,1.7-0.4,1.9C491.6,378,492.6,377,493.5,376.9z
			 M510.4,377.1l-0.2,0.1l0-0.2c0.3-0.2,0.8-0.2,0.8-0.5c0.5-1.5-0.5-0.9-1.6-1.7c-2.4-1.8-2.2,1.1-3.4,1.2
			C507.7,376.1,509,376.6,510.4,377.1L510.4,377.1z M499.1,370.6c-0.1,0.1-0.4,0.1-0.5,0.3c-0.2,0.5,0.2,0.8,0.4,1.1
			c0.9,1.2,2.8,0.8,3.6,2.4c0.5,0.9,1.3,1.7,2.5,1c1.3-0.8,0.7-1.8,0.4-2.8c-0.1-0.6-1.5-0.8-0.5-1.6c0.5-0.4,1.2-0.6,0.4-1.4
			c-0.6-0.5-1.2-0.2-1.7,0.1c-0.9,0.6-1.6,1.5-2.6,0.1c-0.3-0.4-0.8-0.2-0.7,0.2C501,372.6,499.7,370.5,499.1,370.6L499.1,370.6z
			 M334.6,120.2c1.2,1.8,2.5,2.7,4.5,1.9c0.8-0.3,0.3-0.9,0.1-1.3C338.1,118.6,336.4,119.8,334.6,120.2L334.6,120.2z M136.6,102.7
			c0.5,1.4,4,0.8,1.5,3.2c-0.2,0.2,0.1,0.9,0.4,0.7c0.6-0.3,1.9,0.4,1.8-0.3c-0.2-1.3,1.3-2.1,0.6-3.4c-0.9-1.6-1.6,0.4-2.5,0.1
			C138,102.7,137.3,102.8,136.6,102.7L136.6,102.7z M346.8,127.7c2.6-1.3,4.4,1.9,7,1.4C349.4,125.4,349,125.3,346.8,127.7z
			 M308.9,138.4l5.3-1.1c-2.2-0.6-3.2-2.7-5.2-2C308.1,136.6,311.9,136.5,308.9,138.4L308.9,138.4z M354.1,161.3
			c0.3-1,0.6-1.9,0.9-2.8c0.3-0.9-0.7-1.1-1-1.7c-0.3-0.5-0.5,0.4-0.9,0.5c-0.4,0.1-0.9,0.8-0.6,0.9
			C354.4,158.6,353,160.4,354.1,161.3L354.1,161.3z M340.6,124.9c1-0.8,2,1.7,2.6-0.1c0.2-0.7,0.8-1.8-0.5-2.2
			C340.7,121.8,342.3,124.9,340.6,124.9L340.6,124.9z M352.9,135.6c1.3-0.4,2.7-0.8,4-1.4c0.2-0.1-0.4-1.1-1-1.7
			C355,133.6,354.3,134.8,352.9,135.6L352.9,135.6z M415.4,374.2c-0.7,0.1-1.2,0.5-1,1.2c0.2,0.6,0.4,1.5,1.3,1.3
			c0.8-0.1,0.6-0.9,0.6-1.5C416.5,374.5,416,374.2,415.4,374.2L415.4,374.2z M488.3,375c-0.9,0.5-1.6,0.7-1.3,1.6
			c0.2,0.7,0.5,1.3,1.4,1.3c0.5,0,1-0.7,0.8-0.7C488,376.8,488.4,375.8,488.3,375L488.3,375z M279.1,112.9c0.5-2.3,0.4-2.5-2.9-2.9
			C276.8,111.3,279.4,110.6,279.1,112.9z M210.6,117.7c1.4,1,2.8,0.9,4.3,0.1C213.5,117.8,212,118,210.6,117.7z M430.2,362.4
			c1.7,0,3.1,1,4.3-0.2C433.2,362.4,431.8,360.8,430.2,362.4z M419.2,392c-0.2,1.6,0.4,2.5,1.9,2.7
			C420.7,393.6,419.2,393.3,419.2,392z M412.1,373.4c-0.1-0.7-0.1-1.5-1.1-1.5c-0.7,0-1,0.7-1,1.3c-0.1,1.8,1.2-0.8,1.6,0.5
			C411.9,374.6,412,373.6,412.1,373.4z M324.6,136.2c0.1-0.7-0.2-0.9-0.9-0.7c-0.5,0.2-1.4,0-1.1,1c0.2,0.6,0.4,1.2,1.2,1.1
			C324.7,137.5,324.5,136.8,324.6,136.2z M427.8,359.1c0.7-0.5,2,0.2,2.3-1c0-0.2-0.2-0.6-0.4-0.6
			C428.6,357.2,428.1,358,427.8,359.1L427.8,359.1z"/>
		<path class="st1" d="M239.1,755.1c-2.4-0.9-4.5,0.6-6.5,1.3c-5.8,2-12.1,3-17.4,6.5c-1.4,0.9-2.9,1.4-4.7,0.2
			c-1.3-0.8-2.5,0-3.4,1.2c-2.6,3.6-5.2,7.3-7.9,10.9c-3.3,4.5-6.6,8.9-9.9,13.3c-3.2,4.4-6.8,8.5-10.4,12.6
			c-2.2,2.4-5.3,3.7-7.4,6.1c-0.6,0.6-1.2,0.4-2,0.4c-1.9,0-3.6-1.1-5-1.9c-2.1-1.2-1.1-3.9-1-5.8c0.2-5.3,1.4-10.4,2.5-15.6
			c3.5-17,6.5-34,6.2-51.4c-0.1-7.6,0.9-15.2-0.2-22.8c-1.1-8.1-2.5-16.2-4.9-24.1c-1.5-4.6-2.4-9.4-2.9-14.2
			c-1.4-12.7-8.5-21.1-19.4-26.8c-9.3-4.9-19.3-8-29.3-11.2c-15.6-5-31-10.7-45.9-17.5c-9.2-4.2-18.5-8.3-27.4-13.2
			c-1.7-0.9-3.7-1.2-5.5-1.8c-4.9-1.7-7.6-8.4-6.3-13.7c1-4,2.8-7.5,5.1-10.8c1.7-2.5,2.1-5.6,3.4-8.3c2.8-6,5.3-12.1,7.9-18.2
			c0.2-0.4,0.7-0.9,0-1.7c-3.9,5.2-6.2,11.2-10.5,16c1.2-2.4,2.4-4.8,3.8-7.1c6.5-11.5,12-23.4,17.1-35.6
			c4.7-11.3,11.3-21.6,16.7-32.5c4.4-8.9,8.2-18,10.4-27.7c0.9-4,0.6-8-0.4-12c-2.3-8.6-3-17.4-0.9-26.2c0.2-0.9,0.4-1.7-0.1-2.6
			c-2.9-4.8-2-10-2.1-15.2c-0.1-8.4,3.1-16.1,4.7-24.1c2.2-11.2,1.6-21.9-4-32.1c-1.9-3.6-3.5-7.3-4.9-11.1
			c-2.9-7.9-2.1-15.6,1.2-23.2c1-2.3,3-3.6,5.6-5c-2.3,0-3.2-1-3.7-2.6c-1.7-6.1-3-12.4-3.4-18.7c-0.6-10.3-3.6-19.9-7.6-29.3
			c-3.1-7.4-7.3-14.1-12.2-20.4c-6.1-7.9-14.7-12.3-24-15.1c-9.4-2.9-19.1-4.1-29-4c-1,0-1.9-0.1-2.9-0.2v-55.8
			c4.1-0.5,8,0.6,12,1.1c6.5,0.8,13,0.9,19.4,0.4c7.2-0.6,14.4,0,21.7-0.1c8.8-0.1,17.6,0.2,26.4,0c4.8-0.1,9.7-0.6,14.5-1.5
			c3.8-0.7,7.3,0.2,10.9,1.1c2.4,0.6,4.9-0.1,7.1,0.8c2.3,0.9,5.2-0.8,7,1.8c0.3,0.4,0.8,0.2,1.2,0.3c2,0.7,4.5,0.1,6.1,2.1
			c0.4,0.5,1.7,1,2.4,0c0.6-0.8,0.9-0.1,1.1,0.2c0.9,1.4,2.9,1.7,3.7,3.3c0.4,0.7,0.9,0.1,1.4-0.1c1-0.3,1.5,0.7,2.1,1.1
			c0.4,0.4-0.4,0.9-1.1,1.2c1.6-0.1,3.1,0.4,4.4,1.1c0.6,0.3,1.4,0.1,0.8,1.4c-0.4,0.8,0.7,0.8,1.3,0.8c2.9-0.1,4.8,1.9,7,3.2
			c1.1,0.7,4.1,0,3,2.9c0.9,0.3,1.7-0.7,2.7-0.2c0.1,0.6-0.5,0.7-0.6,1.1c-0.2,0.6-0.6,1.1,0,1.7c0.7,0.6,1.1,0.1,1.5-0.3
			c1.2-1.3,2.2-0.7,2.4,0.7c0.3,2.6,2.7,3.1,4.2,4.4c1.4,1.2,3.3,1.9,4,3.8c0.2,0.6,0.9,1,1.2,0.9c1.8-0.9,2.8,1.1,4.3,1.3
			c0.7,0.1,1.6,0.7,1.8,1.7c0.3,2.8,2.7,2.6,4.6,3.1c0.2,0.1,0.8-0.6,1,0c1.1,3.5,3.8,2.9,6.4,2.6c1.8-0.2,3.2,1.5,5.3,1.3
			c0.8-0.1-0.7,1-0.7,2c2.3-0.7,4.2-0.4,5.3,2c0.1,0.1,0.3,0.3,0.4,0.2c4.1-2.2,5.2,2.5,7.9,3.6c0.9,0.4,1.4,1.2,2.7,1.3
			c1.1,0.1,2.6,0.6,2.6,2.4c0.1,2,2.2,2.3,3.3,3.4c3.4,3.1,6.5,6.4,9.2,10.2c0.8,1.1,2.4,1.6,1.9,3.7c-0.2,1,2.4,1.7,3.1,3.1
			c1.8,3.4,4.4,6.4,4.9,10.4c0,0.2-0.1,0.6,0,0.7c3.1,1.6,2.3,4.6,3.1,7.2c1,3.3,0.6,6.2-0.1,9.3c0,0.2-0.1,0.4,0,0.5
			c2.4,2.1,0.1,3.2-1.1,4.3c-2.9,2.8-3.7,6.7-5.7,10c-3.1,5.2-5.7,10.8-8,16.4c-2.3,5.6-4.2,11.4-6.1,17.2c-2,6-2.8,12.2-4.1,18.3
			c-1.4,6.8-0.9,13.5-1.3,20.2c-0.2,4.4,0.3,9-1.3,13.4c-1.1,3.1-0.9,6.6-1.5,9.9c-1.1,6.1-1,12.3-1.3,18.5
			c-0.4,7.4,0.4,14.8,3,21.8c1.2,3.3,3.6,6.3,6.8,8.2c2.9,1.7,4.6,1,5.7-2c0.8,0.6,0.8,1.4,0.5,2.1c-1,3.4-0.6,6.9-0.8,10.4
			c-0.3,5.1-1.4,10.1-2.5,15.2c-0.8,3.7-1.7,7.4-2.3,11.1c-1.3,8.8-3.4,17.4-5.6,26c-1.2,4.8-2.9,9.6-3.7,14.5
			c-0.9,5.3-0.2,10.4,2.7,15.2c1.8,2.9,4.3,4.7,6.9,6.5c0.5,0.3,0.9,0.9,1.1,1.4c1.2,2.9,4.3,3.2,6.5,4.1c2.9,1.2,5.5,2.8,8.2,4.3
			c1.5,0.9-0.2,1.7,0.4,2.5c1.7,0,3.1,0.2,3.3,2.5c0.2,3.2,3.2,4.2,5.1,6c1.3,1.2,1.6,4.1,4.4,3.3c0.1,0.4,0.3,0.8,0.3,1.3
			c0,0.8,0.3,1.6,0.8,1.9c3.9,2.2,7.6,4.5,12.3,4.6c3.3,0.1,6.6,0.9,10,1.2c1.4,0.1,2.8,0.6,4.2,0.7c6.4,0.3,12.9,1,19.1,2.4
			c9.2,2,18,5,25.5,11c4.8,3.7,10.1,6.8,14.9,10.5c4,3.1,7.9,6.5,11.6,10c2.6,2.5,5.5,4.8,8.4,7c5.5,4.3,11,8.6,14.4,14.9
			c0.3,0.5,0.7,0.9,0.5,1.7c-0.4,1.4-0.1,2.8,0.6,3.9c2.2,3.4,0.7,6.8,0.3,10.3c-0.4,3.2-1.3,6.3-1.9,9.4c-0.6,3.2-2.4,5.8-2.9,8.8
			c-0.7,4.5-2.3,9-2.1,13.7c0.2,3.8,0.4,7.6,0.9,11.4c0.5,3.4,5,7.5,8.4,7.6c5.4,0.3,10.8,0.4,16.2,0.3c4.4-0.1,8.7-1,13.1-1.4
			c3.5-0.3,7-0.3,10.1,1.3c4.8,2.4,6.3,7.1,4.3,12.9c-1.2,3.7-3.3,7-5.6,10.2c-2.8,3.8-5.8,7.6-8.2,11.6c-2.2,3.7-2.8,7.9-2.6,12.3
			c0.1,4.1,1.1,7.8,3.1,11.1c1.4,2.2,1.9,5.4,5.3,5.8c0.6,0.1,0.7,0.7,0.9,1.2c0.3,0.9,0.5,1.8,1.9,1.4c0.3-0.1,1,0.5,1,0.7
			c0,2.6,3,2.2,3.9,4c0.2,0.5,1.7,1,2.1,0.8c1.8-1.4,3.1,0.1,4.6,0.6c-1,0.5-2.7,0.8-2,2.2c0.8,1.5,1.6-0.7,2.5-0.5
			c0.1,0,0.2,0,0.3,0l-0.1,0c-1.1,1.5,1.1,2.4,0.8,3.8c0,0.1-0.1,0.2-0.1,0.2c-0.2,1.7-0.5,2.3-2.8,2.1c-3.1-0.3-5.9-1.6-8.8-1.9
			c-3.1-0.3-6.3-0.7-9.5-0.7c-3.6,0-6.6-2-9.3-4.3c-0.7-0.6-1.4-1.3-2.3-1.7c-3.1-1.2-5.2-3.7-5.9-6.7c-0.6-2.8-1.5-5.8-1.3-8.8
			c0.5-7.3,4-13.2,8.2-18.8c0.5-0.6,0.9-1.3,1.4-1.9c2.6-1.6,4.5-4,6.6-6.1c4.6-4.5,9.1-9.2,11.8-15.2c1.1-2.5,2.1-5.1,1.5-7.9
			c-0.9-3.8-5-6-10.2-5.8c-4.6,0.1-9,1.5-13.5,2.4c-6.3,1.2-12.6,2.6-19.2,1.8c-4.5-0.5-8-2.6-9.8-6.7c-2.9-7-2.9-14.4-1.4-21.6
			c1.4-7.1,3.8-14,5.6-21c0.7-2.5,1.4-5.3,0.1-7.8c-2.5-4.6-7.3-5.5-11.9-5.8c-3.3-0.2-6.4-1.1-9.5-1.6c-3.9-0.6-7.1-4.3-11.4-2.3
			c-0.1,0.1-0.4,0-0.5-0.1c-2.5-1.3-4.9,0.2-7.3,0.1c-2.2,0-4.3,1.6-6.1,1.5c-2.6-0.2-5.2,0.7-7.7-0.4c-0.2-0.1-0.5,0.1-0.7,0.2
			c-3,1.6-7,0.3-9.7,3c-0.6,0.6-1.5,0.3-2.3,0c-0.5-0.2-0.7-0.4-1.4-0.1c-3.3,1.5-6.9,2.2-10,4.1c-1.7,1.1-4.5-0.8-5.5,2.1
			c-3.6-0.2-5,3.4-7.8,4.7c-1.3,0.6-2.2,2-4,1.9c-0.8,0-0.8,0.8-1.1,1.2c-0.7,0.9-0.8,2.3-1.9,2.7c-1.7,0.6-3,1.5-4,3
			c-0.4,0.6-0.7,1.3-1.2,1.9c-1.4,1.7-3.5,2.8-4.1,5.2c-0.9,3.4-3.9,5.8-4.9,9.3c-0.2,0.9-1.9,1.3-1.1,2.9c0.2,0.4-0.5,0.8-1,1
			c-0.4,0.1-1,0.4-0.6,0.9c1.1,1.2,2.3,2.3-0.6,2.6c0.8,1.8-1.5,4.1,0.9,5.8c0.5,0.4,1.4,1.1,0.8,2c-0.5,0.7-1.3,0.2-1.9,0.2
			c-0.6-0.1-1,0.1-0.9,0.9c1.8,0.7,3.4-0.3,4.8-0.5c1.6,1.4-1.1,2.1-0.2,3.5c0.8,1.3,1,2.5-0.8,3.5c-0.8,0.5-2,2.7-0.1,2.6
			c2-0.1,2.5,2.5,4.5,1.5c0.4-0.2,0.4,0.5,0.4,0.9c-0.1,2.6-0.1,5.2-0.2,7.8c-0.1,1.7,0.9,3.7-1.4,4.9c1.1,0.7,2,1.8,3.2,0.8
			c1.4-1.2,3.4-1.6,4.7-2.7c2.8-2.2,6.6-1.1,9.2-3.3c0.1-0.1,0.3,0,0.5,0c2.2,0,4.4,0.1,6.5-0.2c1.2-0.1,2.1-0.6,3.1,0.8
			c0.6,0.8,2.9,0.1,2.9,2.3c0,0.5,0.7,0.2,1.1,0c0.6-0.2,0.9-0.1,1.5,0.4c2.1,1.9-0.7,2.5-0.8,3.8c0.5,0.5,1,0.2,1.5,0.1
			c1.5-0.4,7.4,2.1,7.3,3.4c-0.2,2.8,1.6,3.5,3.4,4.5c3.6,2,7.4,2.8,11.4,1.6l-0.1,0.1c1-0.5,2.1,0.1,3.1,0.2
			c1.8,0.2,2.2-0.6,1.6-2.2c-1.3,1.1-2.3,0.9-3.2-0.4c-0.3-0.4-0.6-0.9-0.8-1.3c2.3,0.2,4.1-2.3,6.7-1.4c0.8,0.3,2-0.2,3-0.5
			c1.8-0.4,3.7-0.8,5.6,0.4c1,0.7,2.3,0.5,3.5,0.2c2.4-0.7,4.8-1.4,7.3-1.4c9.4,0.1,18.1-2.6,26.3-6.8c7.5-3.8,14.9-7.9,23-10.3
			c5-1.5,10-3,15.2-3.2c5.8-0.2,9.1,3.5,7.3,8.2c-2.9,7.4-7.5,13.8-13.7,18.9c-1.6,1.3-2.3,2.5-1.2,4.4c-1.2-0.4-1.7,0.4-2.3,1.2
			c-6,8.3-10.2,17.3-11.6,27.5c-0.4,3-2,5.9-1.3,9.1c0.2,0.9,0.6,2.7-0.5,2.8c-1.2,0.1-2.9,0.3-3.9-0.9c-1.4-1.6-2.8-3.2-3.9-5
			c-0.8-1.2-1.5-1.7-2.9-1.8c-3.9-0.2-7.7-4.3-7.7-8.2c0-0.5,0.3-0.9-0.1-1.5c-0.6-0.8-1.5-2.1-1.3-2.4c1.5-2.1,2-4.9,4.4-6.4
			c1.3-0.8,3.1-0.8,4-2.9c-4.2,1.7-8.1,3.3-12,4.7c-5.9,2.1-11,5.5-16.3,8.5c-1.6,0.9-3.1,2.5-5.3,2.4c-0.5,0-0.5,0.5-0.8,0.9
			c-1.2,1.7-3.1,2.5-4.9,2.3c-1.9-0.2-2,0.5-1.7,2.1c-1-0.6-1.8-2.2-2.7-0.2c-0.2,0.4-0.9,0.6-1.1,0.3c-1.5-1.9-2.1-0.7-2.7,0.7
			c-0.3,0.7-0.6,0.8-1.1,0.2c-0.8-0.9-1.7,0-2,0.3c-0.8,1.1,0.7,1.1,1.1,1.6c-2.4,1.6-5.1,1.7-7.8,1.4c-1.5-0.1-2.2,0.6-3,2
			c-0.1-1.7-0.5-2.4-1.8-1.2c-0.5,0.5-0.8,1.1-1.8,0.9c-1.9-0.5-3.8,0-5.3,1.1c-1,0.7-1.7,0.5-2.5-0.1c-0.3-0.2-1-0.1-1-0.7
			c0-0.7,0.5-0.8,1.1-0.8c0.8,0,1.7-0.3,1.4-1.1c-0.4-1-1-0.6-1.3,0.2c-2.3-1.7-5.5,0.3-7.7-1.9c-1.5-1.5-3.6-2.5-4-4.8
			c-0.3-2-1.5-2.2-2.8-1.1s-2.2,0.2-3.2-0.3c-0.5-0.2-0.9-0.5-1.5-0.8c-0.6,2.3-1.8,3.6-4.6,2.9c-1.4-0.3-2.7,1-4.3,1.1
			c-1.2,0-2,2.8-3.6,0.6c-0.6,0.6-1.5,0.7-1.8,1.7c-0.3,0.9-0.3,3.3-2.5,1.2c-0.4-0.4-2.3-0.1-3.5,0c-1.1,0.1-2,0.4-2.8-0.7
			c-0.6-0.7-1-0.5-1.1,0.5c0,0.5-0.6,0.8-0.9,0.4c-1.5-2.3-2.8,0.1-3.7,0.5c-1.6,0.7-3.2,1.7-4.8,2.6c0.8-0.7,1.6-1.3,1.9-2.6
			c-1.4-0.1-2.1,1-3.8,0.8L239.1,755.1L239.1,755.1z M363.8,721.8c8.6-0.9,15.3-5.1,21.1-11.8c-2.9,0.5-4.5,3-7.1,2.8
			c-1.5-0.1-2.8,0.4-3.8,1.5c-2.6,2.8-5.7,4.8-9.2,6.5C364.3,720.9,363.8,721.1,363.8,721.8L363.8,721.8z M275,585.9
			c0.4,0,0.8,0,1.2-0.1c1.1-0.1,2.2-0.2,2.5-1.5s-0.7-1.9-1.6-2.5c-1.5-1-3.2-1.4-5-1.6c-1.2-0.1-2.4,0.3-2.8,1.5
			c-0.4,1.1,0.2,2.1,1.1,2.8C271.7,585.6,273.3,585.9,275,585.9L275,585.9z M389.4,704.8c3.8-1.9,6.9-4.6,8.6-8.5
			c0.5-1.2,0.6-2.4-0.3-3.5c-0.7-0.8-2-1-3.4-0.4c2.8,1.4,3.2,3.2,1.5,5.9C394.2,701,391.6,702.8,389.4,704.8z M341.5,735.9
			c-1.1-0.4-1.5,0-2,0.2c-3.2,0.9-5.5,4.5-9.5,3.6c-0.4-0.1-1.4,0.5-1.3,1.4c0.2,0.9,1,0.6,1.5,0.4
			C334.1,740,337.9,738.5,341.5,735.9L341.5,735.9z M284.7,703.3c1.5-0.1,2,1.4,3.1,2C287.4,703.7,286.5,702.9,284.7,703.3z"/>
		<path class="st1" d="M0.1,263c5.3,2,10.5,4,15.8,5.9c5,1.8,9.4,4.4,13.1,8.3c5.3,5.6,10.6,11.2,12.6,19c1,4.1,1.3,8.4,1.9,12.5
			c0.5,3.3,1.8,6.3,3.5,9.1c1.2,2,3.1,3,5.3,3.5c-0.2,0.8-0.7,0.8-1.1,0.9c-5.5,0.9-7.8,4.7-8.9,9.8c-1.1,4.9-1.7,9.7-1.6,14.7
			c0.1,2.5-0.6,4.7-2.1,6.7c-2.4,3.1-1.4,6.8,2.2,8.2c3.8,1.4,6.8,3.6,9.2,6.9c0.6,0.9,1.5,1.7,2.7,1.2c1.1-0.5,1.1-1.7,1-2.8
			c-0.2-1.6-0.9-3-1.6-4.5c-0.7-1.3-0.8-2.6,0.7-3.5c1.7-0.9,2.5,0.5,3,1.7c1.1,2.7,1.1,5.7,1.5,8.5c0.9,8.1-1.1,15.5-4.3,22.8
			c-4.5,10.1-5.2,21-5,31.9c0.2,9.7-0.5,19.4-1.1,29.1c-0.7,10.4-5.2,19.4-9.7,28.6c-4.8,9.8-12.1,17.3-19.8,24.5
			c-7.1,6.7-12.5,14.6-17.2,23v-35.1c3.6-3.2,7.1-6.5,9.9-10.5c4.8-6.9,8.5-14.4,10.3-22.6c1.6-7.4,1.1-14.8,0.2-22.2
			c-1-8.2-1.9-16.3-0.7-24.6c0.8-5.5,2.1-10.8,6.1-15.2c1.7-1.9,3.5-3.7,5-5.8c0.5-0.8,1.1-1.7-0.2-2.1c-1.6-0.5-3.3-0.8-5.5-1.3
			c1.1,1.3,2.3,0.9,3.3,1.5c-4.4,0.7-7.5-1.4-10.4-3.8c-5.9-4.9-11.5-10.2-18.2-14.1C0.1,336.7,0.1,299.8,0.1,263L0.1,263z
			 M6.5,374.7C6.2,373,4.8,372.2,4,371c-0.3-0.5-0.8-0.8-1.3-0.3c-0.6,0.5,0.1,1,0.3,1.4C3.7,373.6,5.6,373.4,6.5,374.7z"/>
		<path class="st1" d="M0.1,652.3c9.5,3.2,19.1,6.2,28.6,9.6c19.4,7,36.4,18,50.4,33.2c7.6,8.3,13.7,17.6,15.2,29.1
			c1.1,8.4-1,16.1-6.6,22.7c-2.3,2.7-5.9,3.2-8.5,5.2c-2,1.5-4.1,2.6-6.6,3.2c-5,1.2-8.4-1.2-8.2-6.3c1.2-22-8.9-39.3-23-54.8
			c-7.6-8.4-17-14.8-26.9-20.3c-4.6-2.5-9.4-4.7-14.4-6.2C0.1,662.6,0.1,657.4,0.1,652.3L0.1,652.3z"/>
		<path class="st0" d="M0.1,373.5c6.7,3.8,12.3,9.2,18.2,14.1c2.9,2.4,6,4.5,10.4,3.8c-1-0.6-2.2-0.2-3.3-1.5
			c2.1,0.5,3.9,0.8,5.5,1.3c1.3,0.4,0.7,1.3,0.2,2.1c-1.5,2.1-3.3,3.9-5,5.8c-4,4.4-5.4,9.7-6.1,15.2c-1.2,8.2-0.3,16.4,0.7,24.6
			c0.9,7.4,1.4,14.8-0.2,22.2c-1.8,8.3-5.6,15.7-10.3,22.6c-2.7,4-6.3,7.2-9.9,10.5L0.1,373.5L0.1,373.5z"/>
		<path class="st1" d="M0.1,119c3-1.7,6.5-1.4,9.6-2.7c0.9-0.4,2.1,0.6,3.1,1.5c-3.9,0.2-7.2,0.9-8.5,4.9c-0.2,0.7-0.1,1.2,0.3,1.7
			c-2-1.3-2.7-1.1-2.9,0.9l0.1,0L0,124.3L0.1,119L0.1,119z"/>
		<path class="st1" d="M3.3,126.2L0,127v-0.5l1.6-1.1l-0.1,0C2.1,125.8,2.5,126.4,3.3,126.2z"/>
		<path class="st0" d="M1.7,125.4l-1.6,1.1c0-0.7,0-1.4,0-2.1L1.7,125.4L1.7,125.4z"/>
		<path class="st1" d="M573.4,890.2c0,1.8,0,3.6,0,5.3c0,13.7-0.1,27.4,0,41.1c0,2.1-0.1,3-2.8,2.9c-5-0.2-10-0.3-15-0.3
			c-2.6,0-5,0.7-7.3-1.1c-0.8-0.6-1.4-0.9-0.8-2.1c-1.3,0.4-1.5,1.7-2.7,1.8c-0.2-2-1.3-2.8-3.4-2.2c-2.2,0.7-2.9-1.1-3.8-2.3
			c-1.4-1.9-3.5-2.9-5-4.4c-1.9-1.9-5.5-3.2-4.7-7.1c0.2-1,0-1.3-0.8-0.3c-0.5-0.5-0.8-1.4-0.3-1.7c2.2-1.2,2.5-3.3,3.3-5.4
			c0.5-1.2,2.2-1.7,3.3-2.8c2-2.1,4.3-3.8,6.5-5.8c7.6-7.2,17-11.3,27-14.2C568.9,891.2,570.9,890.2,573.4,890.2L573.4,890.2z"/>
		<path class="st1" d="M385.4,764.3c7.1,2.8,14.8,2.5,21.8,4.8c4.6,1.6,9.4,1.6,14,2c3.7,0.3,7.6,0.1,11.4,0.1c3.3,0,6.6-0.4,9.9,0
			c5.9,0.9,11.8,1,17.8,0.9c2.5,0,5.6,0.9,7.7,0.6c3.5-0.4,6.8,0.9,10.1,0.3c5-0.8,10.1-0.3,15.1-0.9c1.9-0.2,3.8,0.5,5.7,0.8
			c5,0.8,10,1.7,15,2.7c5.4,1.1,10.9,2.1,16.3,3.3c3.5,0.8,7.2,1.5,10.6,2.2c7.5,1.6,14-0.8,20.7-2.8c2.2-0.7,4.5-2.2,6.4-3.7
			c1.2-0.9,2.6-1,3.7-2c0.7-0.6,1.5,0,1.5,1.1c0,1.7,0,3.4,0,5c0,1.2-1.1,1.5-2,1.9c-7.4,3.4-15.2,6-23,8.1
			c-4.7,1.2-9.3,1.2-13.9-0.3c-6.2-2-12.3-4.5-18.6-5.8c-4.2-0.9-8.7-1.1-12.8-2.4c-8.2-2.5-16.5-2-24.9-1.7
			c-6.7,0.2-13.4-0.4-20.1-0.6c-5.7-0.2-11.4-0.3-17.1-0.6c-2.3-0.1-4.6-0.7-6.8-0.4c-4.2,0.5-8.3-0.7-12.5,0.1
			c-4.8,0.9-9.8-0.2-14-2.5c-6.5-3.4-13.4-5.9-20-8.8C386.7,765.7,385.7,765.6,385.4,764.3L385.4,764.3z"/>
		<path class="st1" d="M525.7,1019.5c7.1-3.1,14-5.4,21.1-7.1c6.2-1.5,12.4-2.5,18.8-1.7c1,0.1,1.9,0.2,2.9,0.4
			c4.8,1.1,5.7,2.6,4.8,7.5c-0.2,1.1-0.9,1.2-1.7,1.1c-4.9-0.6-9.7-0.3-14.6-0.2C546.7,1019.6,536.4,1019.5,525.7,1019.5z"/>
		<path class="st0" d="M418.2,384.2c-1.4,0-3.5-0.6-1.5,2c0.4,0.5,0.2,1.6-0.5,1.9c-1.2,0.4-1.9,1.2-2.8,2.1c-1.2,1.2-1.6-1-2.3-1.9
			c0,0-0.1-0.1-0.2-0.2c0.2-1.1,1.9-0.4,2-1.6c-1-0.7-3.1-0.2-3-1c0.3-1.8-1.2-1.5-1.8-2.2c0.4-1,1.1-0.9,1.9-0.4
			c0.8,0.5,1.6,1.1,2.6,0.8c1.1-1.3,2.3-1.4,3.5-0.2C416.9,383.9,417.3,384.5,418.2,384.2L418.2,384.2z"/>
		<path class="st1" d="M357.2,804.4c-0.1,0.7-0.2,1.9-0.5,3.1c-0.1,0.7-0.5,1.4-1.3,1.5c-0.8,0.1-1.2-0.6-1.5-1.3
			c-1-2.3-0.9-4.8-0.5-7.2c0.1-0.8,0.7-1.4,1.6-1.4c0.8,0,1.2,0.6,1.5,1.3C357.1,801.5,357.3,802.7,357.2,804.4L357.2,804.4z"/>
		<path class="st1" d="M277.2,819.8c0.1,1.4-0.5,2.5-1.7,3c-1.5,0.6-3,1.5-4.8,0.8c-0.1,0-0.1-0.1-0.2-0.1c-0.9-0.7-0.6-1.6-0.2-2.4
			c1.1-2.1,2.9-3.3,5.3-3.3C276.6,817.8,277.3,818.6,277.2,819.8L277.2,819.8z"/>
		<path class="st1" d="M359,142.1L359,142.1c2.9-0.3,1.8-1.7,0.7-3c1.2-0.7,1.9,1,3.1,0.7c0.3-0.1-0.5,0.9-0.7,1.4
			c-0.4,0.8-1.3,1.6,0.4,1.8c0.6,0.1,1.1,0.3,0.3,0.9c-1.1,0.8,0,1.6-0.1,2.4c-0.2,0.9,1.3,1.6,0.3,2.4c-1.3,1.1-2.4,2.4-4.1,3
			c0-0.1,0-0.2,0-0.2c0-0.1,0-0.2,0.1-0.3l0,0.1c1.1-2.6,3.1-5.3-0.2-7.9C358.6,143.2,358.9,142.5,359,142.1L359,142.1z"/>
		<path class="st1" d="M257,269.9c1.2-1.9,3.3-2.5,5.3-3.1c1.5-0.4,2.5,0.2,1.7,2c-1.4,2.8-3.8,4.8-6.4,6.4c-1,0.6-2.1-0.1-2-1.2
			c0.2-1.5,1.1-3,2.9-3.4c1.3-0.3,1.6,0.5,1.4,1.7c0.4-0.2,0.6-0.3,0.7-0.4c0.8-0.9,2.1-2,1.4-3.1c-0.8-1.2-2,0.2-3,0.5
			C258.3,269.4,257.7,269.7,257,269.9L257,269.9L257,269.9z"/>
		<path class="st1" d="M257,269.9c-0.8,1.9-2.9,2.5-4,4c-0.6,0.8-1.9,1.6-1.5,2.6c0.5,1.3,1.9,0,2.8,0.2c0.3,0.1,0.7,0,1.4-0.1
			c-1.9,1.7-3.9,2.6-5.9,2.8c-2,0.2-1.8-1.3-1-2.5C250.8,273.7,253.6,271.5,257,269.9L257,269.9L257,269.9z"/>
		<path class="st1" d="M143.4,165.5c-0.9-0.1-1.8-0.1-1.9-1.4c-0.1-1.5,2-3.4,3.8-3.5c1.2-0.1,2,0.6,1.8,1.7
			C146.9,164.4,145.3,165.2,143.4,165.5L143.4,165.5z"/>
		<path class="st0" d="M163,104.6c2.6-3,3-3,5.3-0.1c0.5,0.7,1.5,0.9,1.6,2c0,0.3,0,0.6,0,0.8l0,0c-0.9,0.2-1.8,0-2.7-0.3l-1.3-0.2
			C164.4,106.9,164.9,104.1,163,104.6L163,104.6L163,104.6L163,104.6z"/>
		<path class="st1" d="M410.6,788.1c-2.6-0.1-5-1.9-4.8-3.5c0.1-0.8,0.5-1.3,1.4-1.3c1.4,0,4.6,2.9,4.6,4
			C411.6,788.4,410.9,788,410.6,788.1L410.6,788.1z"/>
		<path class="st1" d="M418.2,384.2c-0.8,0.3-1.3-0.3-1.8-0.8c-1.3-1.2-2.4-1.1-3.5,0.2c-0.2-0.6-0.3-1.3-1.1-1.6
			c-1.5-0.7-0.8-1.5,0-2.3l0.5-0.4c0.9,0.2,1.1,1.9,2.5,1.1l-0.1,0c0.2,0.7,0.3,1.8,1.4,1.2c1-0.5,1.4,0.2,1.8,0.7
			C419,382.8,419.6,383.4,418.2,384.2z"/>
		<path class="st1" d="M265.8,129.1L265.8,129.1c0.3,0.5,0.9,0.8,0.5,1.5c-0.3,0.6,0,1.3,0.6,1.4c0.7,0.1,1.1-0.6,1.2-1.1
			c0.2-0.5,0-1.2,0-1.8l-0.1,0.1c0.9,0.5,2.3,0.6,1.8,2.3c-0.3,1,1.2,1.1,1.4,2.2c-2.2,0.4-4.3-0.1-5.9-1.4
			C264.6,131.5,265,130,265.8,129.1L265.8,129.1z"/>
		<path class="st0" d="M359.7,139.1c1.1,1.4,2.2,2.7-0.7,3.1c-1.7-1.6-2.9-1.6-3.6,0.9c-0.4,1.4-1.4,2-2.8,1.5
			c-0.6-0.2-0.8-0.8-0.3-1.3c0.4-0.4,0.7-0.7,1,0.2c0.4,0.9,1,0.4,1.3-0.2c0.3-0.6,0.6-1.3,0.7-2c0.2-1.8,0.1-4,2.6-1.3
			c0.5,0.5,1.4-0.4,1.9-1L359.7,139.1L359.7,139.1z"/>
		<path class="st1" d="M426.4,756.5c-1.6-1.6-1.8,0.7-2.7,1l0,0.1c-0.2-0.4-0.4-1.1-0.5-1.1c-1.5,0.1-2.5-0.1-2.1-2.1
			c0.1-0.3-0.7,0.4-1.1,0.5l0.1,0l-0.8-1.7c1.3,0,3.2-2.1,3.4,1.1c0.8-1.1,1.5-0.5,2.3,0.1C425.7,755,426.4,755.5,426.4,756.5
			L426.4,756.5L426.4,756.5z"/>
		<path class="st0" d="M277.1,128.4c0.4-0.5,0.8-1.2,1.7-0.8c0.9,0.4,1.3,1.3,1.2,2.1c-0.2,2.2,0.3,2.6,2,1c0.3-0.2,0.6-0.5,0.9-0.2
			c0.2,0.2,0.2,0.6,0.2,0.9c-0.1,0.6-0.4,1.1-0.6,1.7c0,0.2-0.1,0.4-0.1,0.6c-1.4,0.2-2.7-2.6-4.1,0l0.1,0.1c0.1-1.5,0.1-3,0.3-4.5
			C278.7,128.2,278,128.3,277.1,128.4L277.1,128.4z"/>
		<path class="st1" d="M246.7,128.6c0.4-0.2,0.7-0.9,1.2-0.2c0.4,2,0.5,3.9-2.6,3.9c0.4,0.5,0.5,0.8,0.7,1.1
			c0.5,0.6,0.9,1.4,0.1,1.7c-1.2,0.5-0.5-0.9-0.9-1.3c-1.2-1.2-0.7-3-1.6-4.3C245.3,131.3,246,130,246.7,128.6L246.7,128.6z"/>
		<path class="st1" d="M480.2,953.1c-1.1,0-2.1-0.3-1.9-1.4c0.2-1.4,1.3-2.2,2.7-2.4c1-0.1,1.8,0.2,1.7,1.4
			C482.6,952.4,481.5,953,480.2,953.1L480.2,953.1z"/>
		<path class="st1" d="M368.1,803.1c-0.3,1.3-0.1,3.1-2,3.5c-0.9,0.2-0.8-1-0.7-1.6c0.2-1.5-0.2-3.5,1.9-3.8
			C368.1,800.9,368,802.2,368.1,803.1L368.1,803.1z"/>
		<path class="st0" d="M229.4,127.2c-0.6-1.4-0.8-3-1.9-4.3c-0.3-0.4-0.5-0.8,0-1c0.4-0.2,0.9-0.2,1.1,0.2c0.3,0.6,0.7,1.2,1.3,1.6
			c2.6,1.4,1.5,2.6-0.3,3.7C229.7,127.3,229.6,127.3,229.4,127.2L229.4,127.2z"/>
		<path class="st0" d="M394.6,371.7c0.4,0.4,0.7,0.8,1.1,1c0.5,0.4,0.9-1.6,1.6-0.2c0.3,0.6-0.2,1.2-0.8,1.5c-0.6,0.3-1.1,1.5-2,0.6
			c-1-1-2.5-1.9-1.4-3.8l-0.1,0.1c0.8-0.2,1.4,0.1,1.7,0.8L394.6,371.7L394.6,371.7z"/>
		<path class="st0" d="M299.5,136.6c-0.7,0.2-1.3,0.4-2,0.5c-0.6,0.1-1-0.4-0.9-1c0-0.7,0.1-1.5,0.5-2c0.4-0.6,1,0.1,1.3,0.4
			c1,1,2.2,1.5,4,1.5c-1.3,1.4-2.2,0.9-3.1,0.8L299.5,136.6L299.5,136.6z"/>
		<path class="st1" d="M412.3,379.3l-0.5,0.4c-1.4-0.2-3-0.2-4,0.5c-1.3,0.9-2.4-3.2-3.2,1.1c-0.1-3.8,2.7-1.9,3.5-3.2
			c1.5,1.3,2.6,0,3.9-0.6C412.5,378,412.4,378.7,412.3,379.3L412.3,379.3z"/>
		<path class="st1" d="M174.8,114.6c0.4-1.6-1.1-3.8,1.8-4.1c0.5-0.1,1.1-0.1,1,0.5C177.4,112.6,177,114.2,174.8,114.6z"/>
		<path class="st1" d="M34.3,125.4L34.3,125.4c1,0.4,2.7-0.5,3,0.5c0.5,1.5-1.9,1.1-2.4,2.2c-0.2,0.4-0.7,1.2-1.4,0.6
			c-0.6-0.5-0.4-1.1,0-1.7C33.8,126.4,34.1,125.9,34.3,125.4L34.3,125.4z"/>
		<path class="st0" d="M347.5,158.3c2,0.8,4.4,1.3,3.4,4.6c-0.6-0.9-2.2,0.1-2.3-1.6c-0.1-0.4-0.2-0.7-0.4-1.1
			C348,159.6,347.7,158.9,347.5,158.3L347.5,158.3L347.5,158.3z"/>
		<path class="st1" d="M25.5,120.1c0,0,0.1,0,0.2,0.1c0.9,0,1.7,0.4,2.6,0.1c-1.7,1.5,1.5,1.4,0.9,2.7c-1.4-0.1-2.6-1.2-4.1-1
			c-0.9,0.1-0.6-0.6-0.7-1C24.4,119.9,24.7,119.6,25.5,120.1z"/>
		<path class="st0" d="M170,107.3c0-0.3,0-0.6,0-0.8c-0.3-1.1-0.6-2.3-0.9-3.4c1,1.1,3.1,0.8,3.2,2.5c0,0.9-0.8,1.9-2.1,1.8
			L170,107.3L170,107.3z"/>
		<path class="st1" d="M277.1,128.4c0.8-0.1,1.6-0.2,1.4,1.1c-0.2,1.5-0.2,3-0.3,4.5c-1.6-1.7-1.8-3.7-1.1-5.8
			C277.2,128.3,277.1,128.3,277.1,128.4L277.1,128.4z"/>
		<path class="st1" d="M408.3,383.2c0.6,0.7,2,0.4,1.8,2.2c-0.1,0.8,2,0.3,3,1c-0.1,1.2-1.8,0.6-2,1.6c-0.3-0.3-0.6-0.6-0.9-1
			l0.2,0.1C408.6,386.4,408.7,384.7,408.3,383.2L408.3,383.2z"/>
		<path class="st1" d="M275.6,134.1c-1-1.1-2.2-1.6-4.2-2c1.3-0.5,0.9-2.3,2.1-1.8C275.1,130.9,275.5,132.5,275.6,134.1L275.6,134.1
			z"/>
		<path class="st1" d="M365.2,146.5c2.5,0.2,1,2.7,2.2,3.6c-0.2,0.2-0.4,0.5-0.7,0.6c-0.5,0.2-0.8-0.2-1.1-0.5
			C364.5,149.1,365,147.8,365.2,146.5L365.2,146.5z"/>
		<path class="st1" d="M410.3,387.3l-0.2-0.1c0.2,1,0.4,2,0.6,3.2c-1.7-0.2-2.7-1.9-5.1-1.1C407.3,387.6,408.9,387.6,410.3,387.3
			L410.3,387.3z"/>
		<path class="st1" d="M25.1,125.8l2.3-2.6c0.4,1.5-0.3,2.2-0.7,3c-0.3,0.7-0.5,1.3,0.1,1.9c0.3,0.3,1.2,0.4,0.6,1
			c-0.6,0.5-1.1,0-1.3-0.7c-0.3-1-0.6-2-0.9-3C25.1,125.6,25.1,125.7,25.1,125.8L25.1,125.8z"/>
		<path class="st1" d="M202.6,173.8c-0.2,0.9-0.6,1.8-1.6,1.8c-0.8,0-1.5-0.4-1.4-1.4c0.1-1.1,0.8-1.8,1.8-1.8
			C202.2,172.3,202.5,173.1,202.6,173.8L202.6,173.8z"/>
		<path class="st1" d="M25.1,125.8c0-0.1,0-0.2,0-0.3c-1.2,0.8-2.6,0.5-4.1,1C22.6,124.3,23.9,124.1,25.1,125.8z"/>
		<path class="st0" d="M36.4,124.3c-1.2-0.4-2.5-1-3.2-2.1c-0.4-0.5-0.7-1.3,0.3-1.7c0.7-0.2,1.2-0.1,1.2,0.8c0,1.3,1.9,1.6,1.6,3.1
			L36.4,124.3L36.4,124.3z"/>
		<path class="st1" d="M77.2,118v-3.3c0.8-0.1,1.7,0,2,0.8C79.7,116.9,78,117.1,77.2,118L77.2,118z"/>
		<path class="st0" d="M246.7,128.6c-0.7,1.4-1.4,2.8-3,0.8c-0.1,0-0.1,0-0.1-0.1c-0.8,0.4-1.6,0.9-2.8,1.5
			C242.3,127.8,244.8,129,246.7,128.6L246.7,128.6z"/>
		<path class="st0" d="M3.3,126.2c-0.8,0.2-1.2-0.4-1.6-0.8c0.2-2,0.9-2.2,2.9-0.9C4.6,125.4,3.7,125.6,3.3,126.2L3.3,126.2z"/>
		<path class="st0" d="M28.3,120.2c-0.9,0.4-1.7-0.1-2.6-0.1c1.3-2.1,3.3-1.8,5.3-1.3c-1,0.5-1.9,1-2.9,1.5L28.3,120.2z"/>
		<path class="st1" d="M217.9,343.2c0.2,0.4,0.4,0.6,0.4,0.8c0,1.3,0.5,2.7-0.8,3.7c-0.3,0.2-0.8-0.1-0.8-0.4
			C216.6,345.9,216.4,344.4,217.9,343.2L217.9,343.2z"/>
		<path class="st0" d="M415.1,397.6c1.7-0.6,2.1,0.4,2.6,1.8c0.5,1.4-0.8,1-1.1,1.2c-0.7,0.3-1.8,0.4-0.8-1
			C416.4,398.7,415.4,398.2,415.1,397.6L415.1,397.6L415.1,397.6z"/>
		<path class="st1" d="M420.6,758.8c0,0,0.1-0.1,0.1-0.2c0.9-0.7,1.8-1.4,3-1.1l0-0.1c-0.1,0.5-1,0.4-0.8,1.1
			c0.2,0.5,1.6,0.6,0.7,1.5c-0.8,0.8-1.4-0.2-2-0.5C421.2,759.4,420.9,759,420.6,758.8L420.6,758.8z"/>
		<path class="st0" d="M412,377.5c-1.2,0.6-2.3,2-3.9,0.6l-0.1,0.2c0.7-0.7,1.7-0.9,2.5-1.6c1.1-1.1,1.3,0,1.4,0.9L412,377.5
			L412,377.5z"/>
		<path class="st0" d="M163,104.6L163,104.6c-0.2,0.1-0.3,0.2-0.4,0.3c-1.9,0.3-1.1-1.3-1.3-2c-0.1-0.5,0.5-0.9,1.1-0.7
			C163.6,102.7,162.9,103.8,163,104.6z"/>
		<path class="st1" d="M163,104.7c1.9-0.6,1.4,2.2,3,2.1c-0.3,0.5,0.4,1.4-0.6,1.4c-0.8,0-1.5-0.2-1.6-1.1
			C163.7,106.2,163.4,105.5,163,104.7L163,104.7z"/>
		<path class="st1" d="M147.5,112.9c0.1-1.7-0.3-2.7,0.6-3.6c0.4-0.4,0.8-0.7,1.3-0.4c0.3,0.1,0.8,0.3,0.8,0.6
			c0.1,0.9-0.7,0.5-1.1,0.6C147.9,110.4,148.5,111.7,147.5,112.9L147.5,112.9z"/>
		<path class="st0" d="M239.1,755.1l-1.8-2c1.6,0.3,2.4-0.9,3.8-0.8c-0.2,1.2-1.1,1.9-1.9,2.6C239.1,754.9,239.1,755,239.1,755.1
			L239.1,755.1z"/>
		<path class="st1" d="M151.6,105c-0.5,0.3-0.9,0.8-1.5,1c-0.5,0.2-1.1,0.5-1.7,0.1c-0.4-0.2-0.2-0.6-0.1-0.9
			c0.3-0.7,0.8-1.1,1.6-0.8C150.5,104.5,151.1,104.8,151.6,105C151.6,105,151.6,105,151.6,105z"/>
		<path class="st0" d="M419.2,753.2l0.8,1.7c-0.1,0-0.2,0-0.3,0c-1-0.2-1.8,2.1-2.5,0.5C416.6,754,418.3,753.8,419.2,753.2
			L419.2,753.2L419.2,753.2z"/>
		<path class="st1" d="M167.3,107.1c0.9,0.2,1.8,0.5,2.7,0.3c-0.2,1.6-2.8,1.2-2.5,3.4C166.7,109.3,168.6,108.2,167.3,107.1
			L167.3,107.1z"/>
		<path class="st1" d="M252.7,131.3c0.1-0.1,0.3-0.2,0.4-0.3c0.1,0,0.2,0,0.2,0.1c1,0.9,0.3,1.7-0.2,2.5c-0.2,0.4-0.6,0.4-0.9,0.1
			C251.6,132.7,252.2,132,252.7,131.3L252.7,131.3z"/>
		<path class="st1" d="M52.5,124.9c-0.7-0.1-1.1-0.6-1.1-1.2c-0.1-0.9,0.4-1.3,1.3-1.2c0.7,0.1,1.1,0.3,1.2,1.1
			C53.9,124.6,53.1,124.6,52.5,124.9z"/>
		<path class="st1" d="M426.3,756.5c0.7-0.1,1-1.3,1.7-0.8c0.3,0.2,0.7,1,0.1,1.6c-0.4,0.5-1,0.9-1.6,0.7
			C425.8,757.7,426.3,757,426.3,756.5L426.3,756.5z"/>
		<path class="st1" d="M185.8,115.5c-2.2-0.8-3.2-0.4-3.5,1.4C182.4,114,183,113.7,185.8,115.5z"/>
		<path class="st1" d="M278.2,133.9c1.4-2.6,2.7,0.2,4.1,0C280.9,135.1,279.6,134.4,278.2,133.9z"/>
		<path class="st1" d="M410.8,392.4c0.5,0,0.7,0.3,0.7,0.7c0,0.7-0.4,1.1-1,1.3c-0.5,0.1-0.9-0.1-0.8-0.7
			C409.8,393.1,410.3,392.7,410.8,392.4L410.8,392.4z"/>
		<path class="st1" d="M266.5,145.9c0.2,0.1,1-1.9,1.9-0.4c0.1,0.2,0.1,0.8-0.1,1C267.1,147.4,266.6,145.9,266.5,145.9L266.5,145.9z
			"/>
		<path class="st1" d="M101.3,107.8L101.3,107.8z"/>
		<path class="st0" d="M499.1,370.5c0.6,0,1.9,2,1.3-0.5c-0.1-0.4,0.4-0.6,0.7-0.2c1,1.4,1.7,0.5,2.6-0.1c0.5-0.3,1.1-0.6,1.7-0.1
			c0.8,0.7,0,1-0.4,1.4c-1,0.8,0.4,1.1,0.5,1.6c0.2,1,0.9,2-0.4,2.8c-1.2,0.7-2-0.1-2.5-1c-0.8-1.5-2.7-1.1-3.6-2.4
			c-0.2-0.4-0.6-0.7-0.4-1.1C498.7,370.7,499,370.6,499.1,370.5L499.1,370.5z"/>
		<path class="st0" d="M422.1,370.8c-1-0.5-0.5-0.9,0-1.3c0.8-0.6,1.3-1.5,0.2-2.1c-1.2-0.6-0.5,1-1,1.2c-0.2,0.1-0.4,0.3-1.1,0.7
			c0.9-2.4,0.1-4.4,0.3-6.5c0.6,0.4,1.3-0.7,2,0.4c0.9,1.6,2.2,1.3,3.4,0.1c-0.3,0.4-0.6,0.8-0.9,1.3c-0.4,0.7-0.9,1.6-0.3,2.2
			c1,1,1.1-0.6,1.7-0.8c0.6-0.2,1.1-0.5,1.8-0.3C426.3,367.5,423.5,368.5,422.1,370.8L422.1,370.8L422.1,370.8z"/>
		<path class="st0" d="M359,142.1c-0.1,0.4-0.4,1.1-0.2,1.2c3.3,2.6,1.2,5.3,0.2,7.9c-0.8-3.1-3.3,0-4.6-1.5c0.5-1.1,1.5-1.9,3-1.9
			c0.1-0.3,0.1-0.7,0.2-1C357.5,145.1,357.5,143.4,359,142.1L359,142.1z"/>
		<path class="st1" d="M425.9,363.3c-1.2,1.2-2.5,1.5-3.4-0.1c-0.6-1.1-1.4-0.1-2-0.4l0.1,0.1c-1.1-1-1.4-2.5-1.1-4.6
			c0.9,0.1,1.2,1.6,2.3,0.9c0.4-0.1,0.9-0.1,1.3-0.2c-0.6,2.2,1.5,2.1,2.5,2.9C426,362.3,426.1,362.8,425.9,363.3z"/>
		<path class="st0" d="M334.6,120.2c1.8-0.4,3.5-1.6,4.7,0.6c0.2,0.4,0.7,0.9-0.1,1.3C337.2,122.9,335.9,121.9,334.6,120.2
			L334.6,120.2z"/>
		<path class="st0" d="M136.6,102.7c0.7,0.1,1.3,0,1.8,0.3c0.9,0.4,1.6-1.6,2.5-0.1c0.7,1.3-0.8,2.1-0.6,3.4c0.1,0.7-1.1,0-1.8,0.3
			c-0.3,0.2-0.6-0.5-0.4-0.7C140.7,103.5,137.1,104.1,136.6,102.7L136.6,102.7z"/>
		<path class="st0" d="M346.8,127.7c2.2-2.4,2.6-2.3,7,1.4C351.2,129.6,349.4,126.3,346.8,127.7z"/>
		<path class="st0" d="M510.4,377.1c-1.3-0.5-2.7-1-4.2-0.9c1.2-0.1,0.9-3,3.4-1.2c1.1,0.8,2.1,0.2,1.6,1.7
			c-0.1,0.2-0.5,0.3-0.8,0.5H510.4z"/>
		<path class="st0" d="M41.6,121.6c-1.6,0.1-3.2,0.8-5.2,0.3l2.5-1.7c-0.3-1-1.8-0.5-1.8-2C39.3,118.5,40.6,119.9,41.6,121.6
			L41.6,121.6z"/>
		<path class="st0" d="M419.5,358.3c-0.4,2.1,0,3.6,1.1,4.6c-1.1,0.4-2.1,2.2-3,1.7c-1.1-0.7,0.3-2.2,0.2-3.5
			C417.7,360.1,417.8,358.5,419.5,358.3L419.5,358.3z"/>
		<path class="st0" d="M309,138.4c2.9-1.9-0.9-1.8,0.2-3c2-0.8,3,1.4,5.2,2L309,138.4L309,138.4z"/>
		<path class="st0" d="M493.6,376.9l-1.3-1.3c1.4-0.2,2.3-1.3,2.6-3.4C496.5,374.5,496.1,376.1,493.6,376.9L493.6,376.9L493.6,376.9
			z"/>
		<path class="st0" d="M354.1,161.3c-1.1-0.9,0.3-2.7-1.6-3.1c-0.4-0.1,0.2-0.7,0.6-0.9c0.4-0.1,0.6-1,0.9-0.5
			c0.3,0.5,1.3,0.8,1,1.7C354.7,159.4,354.4,160.3,354.1,161.3L354.1,161.3z"/>
		<path class="st0" d="M340.6,124.9c1.7,0,0.1-3.1,2.2-2.3c1.2,0.4,0.7,1.6,0.5,2.2C342.7,126.5,341.6,124,340.6,124.9L340.6,124.9z
			"/>
		<path class="st0" d="M357.6,146.8c-0.1,0.4-0.1,0.7-0.2,1c-1.4-0.1-2.1-1.9-3.7-1.3C355.2,145.2,356.5,145.3,357.6,146.8
			L357.6,146.8z"/>
		<path class="st0" d="M412,377.5l0,0.1c0.3-0.5,0.5-1.1,1-1.9c0.4,1.9,1.9,2.9,1.8,4.7c-1.3,0.8-1.6-0.9-2.5-1.1
			C412.4,378.7,412.5,378,412,377.5L412,377.5z"/>
		<path class="st0" d="M352.9,135.6c1.4-0.8,2.1-2,3-3.1c0.6,0.5,1.2,1.6,1,1.7C355.7,134.8,354.3,135.2,352.9,135.6L352.9,135.6z"
			/>
		<path class="st0" d="M417.9,382.3c-0.5-0.5-0.8-1.3-1.8-0.7c-1.1,0.6-1.2-0.5-1.4-1.2C417,378.8,417.5,379.1,417.9,382.3z"/>
		<path class="st0" d="M425.6,361.8c-1-0.8-3.1-0.7-2.5-2.9c0.1-0.1,0.2-0.1,0.2-0.1C425.5,358.8,424.8,360.9,425.6,361.8
			L425.6,361.8z"/>
		<path class="st0" d="M133.1,103.8c-0.3-1.3-1.9-0.7-2.4-1.6c0-0.1,0.1-0.2,0.1-0.2c1.2-0.1,2.4-1.7,3.4-0.7
			C135.4,102.4,132.4,102.5,133.1,103.8L133.1,103.8L133.1,103.8z"/>
		<path class="st0" d="M268.2,129.1c0,0.6,0.1,1.2,0,1.8c-0.2,0.5-0.5,1.2-1.2,1.1c-0.7-0.1-1-0.8-0.6-1.4c0.4-0.8-0.2-1.1-0.6-1.5
			C266.6,129.1,267.4,129.1,268.2,129.1L268.2,129.1z"/>
		<path class="st0" d="M423.4,358.8c-0.1,0-0.2,0.1-0.2,0.1c-0.4,0.1-0.9,0.1-1.3,0.2c0.4-0.8-0.6-1.1-0.8-1.9
			c1.2-0.1,2.4-0.2,3.2,0.7C424.4,358.2,423.7,358.6,423.4,358.8L423.4,358.8z"/>
		<path class="st0" d="M415.4,374.2c0.7,0,1.1,0.2,1,1.1c-0.1,0.6,0.2,1.3-0.6,1.5c-0.9,0.2-1.1-0.7-1.3-1.3
			C414.2,374.7,414.6,374.3,415.4,374.2L415.4,374.2z"/>
		<path class="st0" d="M488.3,375c0.1,0.8-0.3,1.8,0.8,2.2c0.2,0.1-0.3,0.7-0.8,0.7c-0.8,0-1.2-0.6-1.4-1.3
			C486.7,375.7,487.4,375.5,488.3,375L488.3,375z"/>
		<path class="st0" d="M279.1,112.9c0.3-2.3-2.3-1.6-2.9-2.9C279.5,110.4,279.6,110.5,279.1,112.9z"/>
		<path class="st0" d="M210.6,117.7c1.4,0.3,2.9,0,4.3,0.1C213.4,118.7,212,118.7,210.6,117.7z"/>
		<path class="st0" d="M430.2,362.4c1.6-1.6,3,0,4.3-0.2C433.3,363.3,431.9,362.4,430.2,362.4z"/>
		<path class="st0" d="M419.2,392c0,1.3,1.4,1.6,1.9,2.7C419.7,394.5,419,393.6,419.2,392z"/>
		<path class="st0" d="M412.1,373.4c-0.1,0.2-0.2,1.2-0.5,0.4c-0.4-1.3-1.7,1.3-1.6-0.5c0-0.6,0.3-1.3,1-1.3
			C412.1,371.8,412,372.7,412.1,373.4z"/>
		<path class="st0" d="M323,146.3c0.9-2.5,2.2-1.4,3.6-0.4C325.3,147.6,324,144.8,323,146.3L323,146.3z"/>
		<path class="st0" d="M324.6,136.2c-0.1,0.6,0.1,1.4-0.8,1.4c-0.8,0.1-1.1-0.6-1.2-1.1c-0.3-1,0.6-0.8,1.1-1
			C324.4,135.3,324.7,135.5,324.6,136.2z"/>
		<path class="st0" d="M427.8,359.1c0.3-1.1,0.8-1.9,2-1.6c0.2,0,0.4,0.5,0.4,0.6C429.8,359.3,428.6,358.6,427.8,359.1L427.8,359.1z
			"/>
		<path class="st0" d="M422.1,370.8c1.2,0.2,2.3-0.6,3.5-0.1C424.4,370.3,423.4,373.8,422.1,370.8L422.1,370.8z"/>
		<path class="st0" d="M493.5,376.9c-1,0.1-1.9,1.1-2.9,0.5c-0.3-0.2-0.4-1.3,0.4-1.9C491.9,375.9,492.5,376.9,493.5,376.9
			C493.6,376.9,493.6,376.9,493.5,376.9L493.5,376.9z"/>
		<path class="st0" d="M510.4,377.1h-0.1l0,0.1L510.4,377.1z"/>
		<path class="st1" d="M347.5,158.3L347.5,158.3z"/>
		<path class="st0" d="M394.6,371.7l0.1,0.1L394.6,371.7z"/>
		<path class="st0" d="M390.4,716.2c-1.1-1.9-0.4-3.1,1.2-4.4c6.1-5.1,10.8-11.5,13.7-18.9c1.8-4.7-1.5-8.4-7.3-8.2
			c-5.2,0.2-10.2,1.7-15.2,3.2c-8.1,2.4-15.5,6.5-23,10.3c-8.2,4.2-16.9,6.9-26.3,6.8c-2.5,0-4.9,0.7-7.3,1.4
			c-1.2,0.3-2.5,0.5-3.5-0.2c-1.8-1.2-3.8-0.9-5.6-0.4c-1,0.2-2.2,0.8-3,0.5c-2.6-0.9-4.3,1.6-6.7,1.4l0.1,0.1
			c-0.1-0.9-0.4-1.4-1.3-0.7c-1.3,1-0.9,3.5,0.7,4.3c-4,1.1-7.8,0.4-11.4-1.6c-1.8-1-3.6-1.7-3.4-4.5c0.1-1.3-5.8-3.8-7.3-3.4
			c-0.5,0.1-1,0.4-1.5-0.1c0.1-1.3,2.9-1.9,0.8-3.8c-0.6-0.5-0.9-0.6-1.5-0.4c-0.4,0.2-1.1,0.5-1.1,0c0-2.2-2.3-1.5-2.9-2.3
			c-1-1.4-1.9-0.9-3.1-0.8c-2.1,0.2-4.3,0.1-6.5,0.2c-0.2,0-0.4-0.1-0.5,0c-2.6,2.2-6.5,1.1-9.2,3.3c-1.4,1.1-3.3,1.5-4.7,2.7
			c-1.2,1-2.1-0.1-3.2-0.8c2.3-1.2,1.3-3.2,1.4-4.9c0.2-2.6,0.1-5.2,0.2-7.8c0-0.5,0-1.2-0.4-0.9c-2,1-2.5-1.6-4.5-1.5
			c-2,0.1-0.7-2.2,0.1-2.6c1.7-1,1.6-2.3,0.8-3.5c-0.9-1.4,1.9-2.1,0.2-3.5c-1.4,0.2-3,1.2-4.8,0.5c-0.1-0.8,0.3-0.9,0.9-0.9
			c0.7,0.1,1.5,0.5,1.9-0.2c0.6-0.9-0.3-1.6-0.8-2c-2.4-1.7-0.1-3.9-0.9-5.8c2.8-0.3,1.7-1.4,0.6-2.6c-0.4-0.5,0.2-0.7,0.6-0.9
			c0.6-0.2,1.2-0.6,1-1c-0.8-1.5,0.8-2,1.1-2.9c1-3.5,4-6,4.9-9.3c0.7-2.5,2.7-3.6,4.1-5.2c0.5-0.6,0.8-1.3,1.2-1.9
			c1-1.6,2.3-2.4,4-3c1.1-0.4,1.2-1.8,1.9-2.7c0.4-0.5,0.4-1.3,1.1-1.2c1.7,0.1,2.7-1.4,4-1.9c2.8-1.2,4.2-4.8,7.8-4.7
			c1-2.9,3.8-1,5.5-2.1c3.1-1.9,6.8-2.5,10-4.1c0.6-0.3,0.9,0,1.4,0.1c0.8,0.3,1.7,0.5,2.3,0c2.7-2.7,6.7-1.4,9.7-3
			c0.2-0.1,0.5-0.3,0.7-0.2c2.5,1,5.2,0.2,7.7,0.4c1.8,0.1,3.8-1.5,6.1-1.5c2.4,0,4.8-1.4,7.3-0.1c0.1,0.1,0.4,0.1,0.5,0.1
			c4.4-1.9,7.6,1.8,11.4,2.3c3.2,0.5,6.3,1.4,9.5,1.6c4.6,0.3,9.3,1.2,11.9,5.8c1.3,2.5,0.6,5.2-0.1,7.8c-1.8,7-4.1,13.9-5.6,21
			c-1.5,7.2-1.5,14.6,1.4,21.6c1.7,4.1,5.3,6.2,9.8,6.7c6.5,0.7,12.8-0.6,19.2-1.8c4.5-0.9,8.9-2.3,13.5-2.4
			c5.2-0.1,9.3,2.1,10.2,5.8c0.7,2.8-0.3,5.4-1.5,7.9c-2.7,6-7.3,10.6-11.8,15.2C394.8,712.1,392.9,714.5,390.4,716.2L390.4,716.2
			L390.4,716.2z"/>
		<path class="st0" d="M363.7,721.8c0.1-0.6,0.6-0.8,1-1c3.4-1.6,6.5-3.7,9.2-6.5c1-1.1,2.3-1.6,3.8-1.5c2.6,0.2,4.2-2.3,7.1-2.8
			C379,716.6,372.3,720.8,363.7,721.8L363.7,721.8z"/>
		<path class="st0" d="M275,585.9c-1.7-0.1-3.3-0.3-4.6-1.4c-0.9-0.7-1.5-1.6-1.1-2.8c0.4-1.2,1.6-1.7,2.8-1.5
			c1.8,0.2,3.5,0.6,5,1.6c0.9,0.6,1.9,1.2,1.6,2.5c-0.3,1.3-1.4,1.4-2.5,1.5C275.7,585.9,275.3,585.9,275,585.9L275,585.9z
			 M278.4,584.2c-2.3-1.5-4.2-2.1-6.2-2.4c-0.7-0.1-1.6-0.2-1.8,0.7c-0.2,0.7,0.4,1.3,1.1,1.7C273.6,585.4,275.7,585.2,278.4,584.2
			L278.4,584.2z"/>
		<path class="st0" d="M389.4,704.8c2.3-2.1,4.8-3.8,6.5-6.5c1.7-2.8,1.3-4.5-1.5-5.9c1.4-0.5,2.6-0.4,3.4,0.4
			c0.9,1.1,0.8,2.3,0.3,3.5C396.2,700.2,393.2,702.9,389.4,704.8z"/>
		<path class="st0" d="M341.5,735.9c-3.6,2.6-7.3,4.2-11.2,5.6c-0.5,0.2-1.3,0.5-1.5-0.4c-0.2-0.9,0.9-1.5,1.3-1.4
			c4,0.9,6.2-2.7,9.5-3.6C340,735.9,340.4,735.5,341.5,735.9L341.5,735.9z"/>
		<path class="st0" d="M307.4,707.6c0.3,0.5,0.5,0.9,0.8,1.3c0.9,1.3,1.9,1.4,3.2,0.4c0.6,1.6,0.1,2.3-1.6,2.2c-1-0.1-2-0.6-3.1-0.2
			c-0.2-0.6,1.8-1.2,0-2C306.4,709.2,306,707.6,307.4,707.6L307.4,707.6L307.4,707.6z"/>
		<path class="st0" d="M423.8,757.5c-1.2-0.3-2.1,0.3-3,1.1c0.3-1.4-1.9-2.2-0.8-3.8c0.4-0.1,1.2-0.8,1.1-0.5
			c-0.5,2,0.6,2.2,2.1,2.1C423.4,756.4,423.6,757.2,423.8,757.5L423.8,757.5z"/>
		<path class="st1" d="M307.5,707.6c-1.5,0-1.1,1.6-0.8,1.7c1.8,0.7-0.1,1.4,0,2l0.1-0.1c-1.6-0.8-2-3.3-0.7-4.3
			C307.1,706.2,307.4,706.7,307.5,707.6L307.5,707.6z"/>
		<path class="st0" d="M284.7,703.3c1.8-0.4,2.7,0.4,3.1,2C286.8,704.6,286.3,703.2,284.7,703.3z"/>
		<path class="st0" d="M6.5,374.7c-0.9-1.3-2.8-1.1-3.6-2.6c-0.2-0.4-0.8-0.8-0.3-1.4c0.5-0.5,1-0.1,1.3,0.3
			C4.8,372.2,6.2,373,6.5,374.7z"/>
		<path class="st1" d="M278.4,584.2c-2.7,1-4.8,1.2-6.9,0.1c-0.6-0.3-1.2-1-1.1-1.7c0.2-0.9,1.1-0.8,1.8-0.7
			C274.2,582.1,276.2,582.7,278.4,584.2L278.4,584.2z"/>
	</g>
</g>
</svg>
