<?xml version="1.0" encoding="UTF-8"?><svg id="Layer_2" xmlns="http://www.w3.org/2000/svg" viewBox="0 0 648 365"><defs><style>.cls-1{fill:#fff;}</style></defs><g id="Layer_1-2"><g><path class="cls-1" d="M324.14,364.28c-106.63,0-213.26,.01-319.89-.17-1.34,0-3.83-2.49-3.83-3.83-.18-118.78-.18-237.55,0-356.33,0-1.33,2.5-3.83,3.83-3.83,213.26-.17,426.52-.17,639.79,0,1.33,0,3.83,2.49,3.83,3.83,.18,118.78,.18,237.55,0,356.33,0,1.33-2.5,3.83-3.83,3.83-106.63,.18-213.26,.17-319.89,.17ZM178.37,136.47l-.1,.1c12.96,11.8,25.31,24.43,39.27,34.9,4.12,3.09,16.5,2.61,18.67-.58,5.51-8.12,7.19-18.77,10.81-28.25,1.54-4.03,3.6-8.16,6.54-11.16,.88-.9,5.6,1.68,8.42,2.97,5.4,2.47,10.7,5.16,16.04,7.75,1.69-7.72,2.51-15.79,5.4-23.03,1.82-4.55,6.04-9.61,10.42-11.37,7.91-3.19,17.37-2.74,25.06-6.26,10.66-4.88,21.01-11.12,30.22-18.38,22.08-17.4,43.61-24.48,69.38-5.97,10.19,7.32,34.29-5.06,34.89-17.65,.82-17.25-1.89-34.74-4.14-51.98-.32-2.49-6.49-6.01-9.96-6.03-74.96-.36-149.92,.07-224.87-.65-12.56-.12-15.72,2.96-14.45,15.08,2.8,26.65,4.57,53.42,6.17,80.17,.2,3.39-3.09,6.98-4.77,10.48-3.34-2.07-6.83-3.96-10-6.26-5.58-4.05-10.49-10.99-16.53-12.09-21.24-3.87-42.83-5.76-64.29-8.42-1.68-.21-3.35-.5-5.02-.75,1.57-.85,3.1-1.76,4.71-2.53,23.48-11.13,47.64-2.43,71.5-2.83,4.37-.07,12.55-5.41,12.38-7.89-1.37-20.8-4.2-41.51-6.95-62.2-.14-1.03-3.58-2.31-5.49-2.31-57.97-.13-115.94-.18-173.91,.16-2.11,.01-6.01,4.08-6.02,6.26-.3,105.11-.29,210.23-.23,315.34,0,13.23-4.61,31.63,2.14,38.26,6.87,6.74,25.16,2.07,38.44,2.06,20.48-.02,40.97-.1,61.43-.78,2.55-.08,5.66-3.56,7.26-6.21,1.38-2.3,.99-5.67,1.38-8.57-1.12,2.04-2.2,4.1-3.39,6.1-.17,.29-.84,.3-1.28,.44-.06-1.25-.19-2.5-.18-3.76,.1-15.32,.24-30.64,.25-45.96,0-1.1-.98-2.21-1.5-3.31-.5,.61-1.36,1.17-1.44,1.83-.48,3.87-.19,7.95-1.33,11.59-.94,3.03-3.5,5.55-5.34,8.3-.53-2.38-1.46-4.74-1.53-7.13-.41-13.3-1.88-26.73-.58-39.88,1.73-17.53,5.21-34.95,8.81-52.23,2.98-14.3,7.35-28.31,10.87-42.5,1.09-4.4,.1-9.87,2.39-13.3,5.86-8.76,12.73-16.92,19.86-24.72,2.01-2.19,6.77-1.63,9.46-3.48,7.39-5.08,26.52,.81,29.43,9.2,.34,.99,3.33,1.07,5.08,1.57-1.14-4.71-2.27-9.43-3.41-14.14ZM480.03,57.41h1.7c.34,5.49,.88,10.96,.96,16.44,.08,5.48-.09,10.98-.49,16.45-1.39,18.62-12.51,23.87-28.08,13.77-3.32-2.15-7.85-2.43-11.82-3.57-1.01,3.94-2.99,7.91-2.85,11.81,.58,16.29-4.45,19.81-20.51,16.74-8.42-1.6-22.24-3.03-25.49,1.4-11.59,15.82-19.49,34.31-29.2,51.56-7.95,14.11-16.31,28-25,41.66-1.22,1.91-5.51,3.02-8.16,2.69-20.65-2.58-39.08-7.9-62.37-1.2-21.6,6.22-49.75-4.9-73.37-13.11-13.2-4.59-23.41-5.74-31.59,3.67-10.66,12.26-18.4,27.01-27.98,40.28-10.51,14.57-16.55,29.77-13.98,48.38,1.74,12.58,3.42,26.26,.28,38.17-5.56,21.08,3.63,22.04,20.39,21.37,11.53-.46,15.21-2.73,15.05-14.69-.32-24.48,14.93-39.61,40.54-41.61,8.91-.69,17.99,1.02,26.94,.54,21.72-1.16,43.4-3.5,65.13-4.25,9.61-.33,20.1,.08,28.8,3.59,17.69,7.13,34.63,16.25,51.51,25.23,10.97,5.84,19.37,12.12,23.98-7.35,4.2-17.76,12.17-34.82,20.05-51.44,3.63-7.66,10.42-18.61,16.79-19.34,24.08-2.77,48.57-1.94,72.91-2.52,4.61-.11,9.21-.47,13.81-.72-2.84-3.73-5.41-7.71-8.59-11.13-6.48-6.98-15.27-12.64-19.44-20.73-4.6-8.92-5.12-19.94-7.17-30.1-.03-.16,3.19-1.28,4.94-1.42,2.06-.17,4.16,.25,6.24,.41-.32-1.86-1.04-3.76-.87-5.58,.5-5.39,.55-11.01,2.25-16.05,3.6-10.68,8.16-21.03,12.2-31.57,.26-.68-.61-1.79-.95-2.7-.67,.8-1.27,1.67-2.02,2.38-5.32,5.01-9.98,12.23-16.26,14.15-3.89,1.19-10.26-5.66-15.52-8.9,2.07-1.51,4.51-2.72,6.14-4.61,3.01-3.51,5.54-7.42,8.27-11.16-2.94-.54-5.89-1.01-8.81-1.65-1.24-.27-2.39-.91-3.58-1.39,.5-.33,1.13-.55,1.49-1,4.58-5.65,12.6-11.07,13.07-17.06,2.24-28.91,2.69-57.98,3.11-87,.06-4.37-3.1-8.94-5.38-13.08-.64-1.16-3.47-1.39-5.31-1.46-.54-.02-1.66,1.95-1.66,3.02-.11,17.56-.07,35.13-.07,52.69Zm-139.51,306.46c9.26-.62,13.04-.87,16.81-1.12-.36-.64-.61-1.37-1.08-1.91-28.1-31.61-66.36-37.98-105.45-42.15-2.44-.26-5.05,1.04-7.58,1.61,1.51,.36,3.05,.64,4.5,1.16,.24,.09,.36,1.65,.13,1.76-3.82,2-7.81,5.61-11.54,5.37-5.78-.38-11.35-4.93-17.06-5.03-17.98-.32-36.84,18.82-37.15,36.81-.02,.98,2.63,2.85,4.05,2.87,12.98,.22,26.25-1.59,38.9,.48,22.11,3.61,28.62-12.2,37.28-26.24,.42-.68,2.24-.95,3.27-.73,7.08,1.54,14.31,5.22,21.12,4.53,15.1-1.53,27.69,.97,38.63,12.35,5.06,5.27,12.35,8.4,15.16,10.24Zm130.6-70.75c-8.53,4.44-16.36,5.94-19.39,10.57-10.62,16.23-19.73,33.46-29.03,50.51-1.32,2.41-.57,5.94-.79,8.96,2.97-2.26,7.38-3.89,8.68-6.88,10.09-23.01,23.61-41.34,51.74-42.34,1.12-.04,3.4-4.12,3.01-4.61-4.34-5.43-9.11-10.52-14.22-16.21ZM599.8,21.23c.02-31.2-18.95-15.57-28.51-19.75-.72-.31-3.87,2.99-3.8,3.09,7.42,10.1,15.05,20.05,22.66,30.01,4.24-5.86,8.47-11.72,9.65-13.34Zm-91.36,.18c-1.47-4.92-2.83-11.31-5.48-17.12-.78-1.71-5.23-1.76-7.99-2.57,.49,1.93,1.06,3.85,1.46,5.81,.91,4.35,2.75,8.8,2.41,13.06-1.37,17.1-3.65,34.12-5.15,51.21-1.26,14.4-1.89,28.85-2.84,43.27-.08,1.27-.44,2.52-.67,3.78,.83-1.06,2.21-2.03,2.41-3.2,5.28-30.93,10.43-61.89,15.84-94.24Zm138.67-9.39l-2.53-10.06c-.87,2.64-2.75,5.42-2.41,7.88,.78,5.56,2.66,10.97,4.09,16.44l.84-14.26Z"/><path d="M178.37,136.47c1.14,4.71,2.27,9.43,3.41,14.14-1.76-.5-4.74-.58-5.08-1.57-2.91-8.38-22.03-14.28-29.43-9.2-2.7,1.86-7.46,1.29-9.46,3.48-7.13,7.8-14,15.96-19.86,24.72-2.29,3.43-1.3,8.91-2.39,13.3-3.53,14.19-7.89,28.2-10.87,42.5-3.61,17.28-7.08,34.7-8.81,52.23-1.3,13.15,.17,26.58,.58,39.88,.07,2.39,1,4.75,1.53,7.13,1.84-2.75,4.39-5.27,5.34-8.3,1.14-3.64,.85-7.72,1.33-11.59,.08-.66,.94-1.22,1.44-1.83,.52,1.1,1.5,2.21,1.5,3.31,0,15.32-.16,30.64-.25,45.96,0,1.25,.12,2.5,.18,3.76,.44-.14,1.11-.14,1.28-.44,1.19-2,2.27-4.06,3.39-6.1-.39,2.9,0,6.27-1.38,8.57-1.6,2.65-4.7,6.13-7.26,6.21-20.46,.68-40.95,.77-61.43,.78-13.29,.01-31.57,4.68-38.44-2.06-6.75-6.62-2.13-25.02-2.14-38.26-.06-105.11-.07-210.23,.23-315.34,0-2.18,3.91-6.25,6.02-6.26,57.97-.34,115.94-.29,173.91-.16,1.91,0,5.35,1.28,5.49,2.31,2.75,20.69,5.58,41.4,6.95,62.2,.16,2.48-8.01,7.82-12.38,7.89-23.87,.4-48.02-8.31-71.5,2.83-1.61,.76-3.14,1.68-4.71,2.53,1.67,.25,3.34,.54,5.02,.75,21.46,2.65,43.06,4.55,64.29,8.42,6.04,1.1,10.95,8.04,16.53,12.09,3.17,2.31,6.66,4.19,10,6.26,1.68-3.5,4.97-7.09,4.77-10.48-1.61-26.76-3.38-53.52-6.17-80.17-1.27-12.12,1.89-15.2,14.45-15.08,74.95,.72,149.92,.29,224.87,.65,3.48,.02,9.64,3.54,9.96,6.03,2.25,17.25,4.97,34.74,4.14,51.98-.6,12.59-24.7,24.97-34.89,17.65-25.77-18.51-47.3-11.43-69.38,5.97-9.21,7.26-19.55,13.5-30.22,18.38-7.69,3.52-17.15,3.07-25.06,6.26-4.38,1.76-8.6,6.82-10.42,11.37-2.89,7.24-3.71,15.31-5.4,23.03-5.34-2.6-10.64-5.28-16.04-7.75-2.82-1.29-7.53-3.87-8.42-2.97-2.94,3-5,7.13-6.54,11.16-3.63,9.48-5.3,20.13-10.81,28.25-2.17,3.2-14.56,3.67-18.67,.58-13.96-10.48-26.31-23.1-39.27-34.9-10.45-4.89-20.88-9.84-31.39-14.61-1.19-.54-2.87-.01-4.32,.02,1.29,.53,2.56,1.12,3.87,1.56,4.35,1.47,8.82,2.62,13.04,4.37,6.38,2.64,12.6,5.68,18.89,8.55Z"/><path d="M480.03,57.41c0-17.56-.03-35.13,.07-52.69,0-1.06,1.13-3.04,1.66-3.02,1.85,.08,4.67,.3,5.31,1.46,2.28,4.14,5.44,8.71,5.38,13.08-.42,29.02-.87,58.09-3.11,87-.46,5.99-8.49,11.41-13.07,17.06-.36,.44-.99,.67-1.49,1,1.19,.47,2.35,1.11,3.58,1.39,2.92,.64,5.87,1.11,8.81,1.65-2.73,3.74-5.26,7.66-8.27,11.16-1.63,1.9-4.07,3.1-6.14,4.61,5.26,3.24,11.63,10.1,15.52,8.9,6.28-1.93,10.94-9.14,16.26-14.15,.75-.71,1.35-1.59,2.02-2.38,.34,.91,1.21,2.02,.95,2.7-4.04,10.54-8.6,20.89-12.2,31.57-1.7,5.04-1.74,10.66-2.25,16.05-.17,1.82,.55,3.72,.87,5.58-2.08-.16-4.18-.57-6.24-.41-1.75,.14-4.97,1.26-4.94,1.42,2.04,10.16,2.56,21.19,7.17,30.1,4.18,8.09,12.96,13.75,19.44,20.73,3.18,3.42,5.74,7.4,8.59,11.13-4.6,.25-9.2,.61-13.81,.72-24.34,.57-48.83-.25-72.91,2.52-6.37,.73-13.16,11.68-16.79,19.34-7.88,16.62-15.85,33.68-20.05,51.44-4.61,19.47-13.01,13.19-23.98,7.35-16.88-8.98-33.82-18.09-51.51-25.23-8.7-3.51-19.19-3.92-28.8-3.59-21.73,.75-43.4,3.09-65.13,4.25-8.95,.48-18.03-1.23-26.94-.54-25.61,1.99-40.86,17.13-40.54,41.61,.16,11.96-3.52,14.22-15.05,14.69-16.76,.68-25.95-.28-20.39-21.37,3.14-11.91,1.46-25.6-.28-38.17-2.57-18.61,3.47-33.81,13.98-48.38,9.57-13.27,17.32-28.01,27.98-40.28,8.18-9.41,18.39-8.27,31.59-3.67,23.62,8.21,51.77,19.33,73.37,13.11,23.3-6.7,41.72-1.39,62.37,1.2,2.64,.33,6.94-.78,8.16-2.69,8.69-13.66,17.05-27.55,25-41.66,9.71-17.24,17.61-35.74,29.2-51.56,3.25-4.43,17.07-3,25.49-1.4,16.07,3.06,21.09-.46,20.51-16.74-.14-3.9,1.84-7.87,2.85-11.81,3.97,1.14,8.5,1.42,11.82,3.57,15.57,10.1,26.69,4.85,28.08-13.77,.41-5.47,.58-10.97,.49-16.45-.08-5.48-.62-10.95-.96-16.43h-1.7Zm-75.82,96.68c-1.52,.91-3.03,1.83-4.55,2.74,8.09,13.33,14.81,27.89,25.05,39.29,3.27,3.64,21.06,1.59,23.13-2.48,4.83-9.47,6.29-21.96,5.2-32.84-1.59-15.79-6.74-31.21-10.07-46.85-.54-2.51,.46-5.34,.75-8.03,2.62,.29,5.24,.56,7.86,.9,.75,.1,1.47,.39,2.2,.59-.44-.64-.75-1.66-1.34-1.86-3.16-1.06-6.39-1.91-9.59-2.84-.53,4.31-2.16,8.83-1.39,12.9,3.31,17.6-1.14,23.02-17.05,19.6-16.91-3.63-21.29,.47-20.19,18.87Z"/><path d="M340.52,363.87c-2.81-1.84-10.1-4.97-15.16-10.24-10.94-11.38-23.53-13.88-38.63-12.35-6.81,.69-14.05-2.99-21.12-4.53-1.02-.22-2.85,.05-3.27,.73-8.66,14.04-15.16,29.84-37.28,26.24-12.65-2.06-25.92-.26-38.9-.48-1.43-.02-4.07-1.9-4.05-2.87,.31-17.99,19.17-37.13,37.15-36.81,5.71,.1,11.29,4.65,17.06,5.03,3.73,.24,7.72-3.37,11.54-5.37,.23-.12,.11-1.68-.13-1.76-1.46-.52-2.99-.8-4.5-1.16,2.53-.57,5.14-1.87,7.58-1.61,39.09,4.17,77.35,10.54,105.45,42.15,.48,.53,.73,1.27,1.08,1.91-3.78,.25-7.56,.5-16.81,1.12Z"/><path d="M471.12,293.11c5.11,5.69,9.87,10.78,14.22,16.21,.39,.49-1.88,4.57-3.01,4.61-28.13,1-41.65,19.33-51.74,42.34-1.31,2.98-5.71,4.62-8.68,6.88,.21-3.01-.53-6.54,.79-8.96,9.31-17.05,18.41-34.28,29.03-50.51,3.03-4.63,10.86-6.13,19.39-10.57Z"/><path d="M599.8,21.23c-1.17,1.62-5.41,7.48-9.65,13.34-7.61-9.96-15.24-19.91-22.66-30.01-.07-.09,3.08-3.4,3.8-3.09,9.56,4.18,28.52-11.45,28.51,19.75Z"/><path d="M508.44,21.41c-5.41,32.36-10.56,63.31-15.84,94.24-.2,1.17-1.58,2.14-2.41,3.2,.23-1.26,.58-2.51,.67-3.78,.95-14.42,1.57-28.87,2.84-43.27,1.5-17.09,3.78-34.11,5.15-51.21,.34-4.26-1.51-8.71-2.41-13.06-.41-1.95-.97-3.87-1.46-5.81,2.77,.81,7.21,.85,7.99,2.57,2.65,5.8,4,12.2,5.48,17.12Z"/><path d="M647.11,12.03l-.84,14.26c-1.43-5.47-3.31-10.87-4.09-16.44-.35-2.47,1.54-5.25,2.41-7.88l2.53,10.06Z"/><path class="cls-1" d="M178.37,136.47c-6.29-2.87-12.5-5.91-18.89-8.55-4.23-1.75-8.7-2.9-13.04-4.37-1.32-.44-2.58-1.04-3.87-1.56,1.45-.03,3.13-.56,4.32-.02,10.51,4.76,20.93,9.71,31.39,14.61l.1-.11Z"/><path class="cls-1" d="M404.22,154.1c-1.1-18.4,3.29-22.5,20.19-18.87,15.91,3.42,20.37-2,17.05-19.6-.77-4.07,.86-8.59,1.39-12.9,3.2,.93,6.43,1.78,9.59,2.84,.59,.2,.9,1.22,1.34,1.86-.73-.2-1.45-.49-2.2-.59-2.61-.34-5.24-.61-7.86-.9-.29,2.68-1.28,5.52-.75,8.03,3.34,15.64,8.49,31.06,10.07,46.85,1.09,10.88-.37,23.36-5.2,32.84-2.07,4.06-19.87,6.12-23.13,2.48-10.24-11.41-16.97-25.96-25.05-39.29,1.52-.91,3.03-1.83,4.55-2.74Z"/></g></g></svg>